G04*
G04 #@! TF.GenerationSoftware,Altium Limited,Altium Designer,24.2.2 (26)*
G04*
G04 Layer_Color=16711935*
%FSLAX43Y43*%
%MOMM*%
G71*
G04*
G04 #@! TF.SameCoordinates,78AD72C9-59E1-4A50-B3D3-B96FA2B5B495*
G04*
G04*
G04 #@! TF.FilePolarity,Positive*
G04*
G01*
G75*
%ADD11C,0.200*%
%ADD56C,0.100*%
D11*
X37590Y57575D02*
G03*
X37590Y57575I-100J0D01*
G01*
D56*
X16545Y18500D02*
G03*
X16222Y21265I-1295J1250D01*
G01*
X15602D02*
G03*
X14898Y21265I-352J-355D01*
G01*
X15568Y19750D02*
G03*
X14933Y19750I-317J0D01*
G01*
D02*
G03*
X15568Y19750I317J0D01*
G01*
X14278Y21265D02*
G03*
X13955Y18500I972J-1515D01*
G01*
X42255Y5705D02*
Y11695D01*
Y5705D02*
X48245D01*
Y11695D01*
X42255D02*
X48245D01*
X13750Y21550D02*
X14500D01*
X16000D02*
X16750D01*
X17050Y21250D01*
X15980Y21265D02*
Y21700D01*
X14355Y18150D02*
Y18500D01*
Y18150D02*
X16145D01*
X15602Y21265D02*
X16222D01*
X14830Y21550D02*
X15670D01*
X17050Y17750D02*
Y21250D01*
X15675Y21700D02*
X15980D01*
X14520Y21265D02*
Y21700D01*
X15675Y21550D02*
Y21700D01*
X13450Y21250D02*
X13750Y21550D01*
X16145Y18500D02*
X16545D01*
X16145Y18150D02*
Y18500D01*
X14520Y21700D02*
X14825D01*
Y21550D02*
Y21700D01*
X13955Y18500D02*
X14355D01*
X14278Y21265D02*
X14898D01*
X13450Y17750D02*
X17050D01*
X13450Y17750D02*
Y21250D01*
X12938Y55437D02*
X15138D01*
X12938Y53987D02*
X15138D01*
X12938D02*
Y55437D01*
X15138Y53987D02*
Y55437D01*
X31600Y15125D02*
Y16475D01*
X29400Y15125D02*
Y16475D01*
Y15125D02*
X31600D01*
X29400Y16475D02*
X31600D01*
X9645Y47405D02*
Y53395D01*
X3655D02*
X9645D01*
X3655Y47405D02*
Y53395D01*
Y47405D02*
X9645D01*
X38140Y56305D02*
Y58845D01*
X48300D01*
Y56305D02*
Y58845D01*
X38140Y56305D02*
X48300D01*
X38140D02*
Y58845D01*
X48300D01*
Y56305D02*
Y58845D01*
M02*
