G04*
G04 #@! TF.GenerationSoftware,Altium Limited,Altium Designer,24.2.2 (26)*
G04*
G04 Layer_Color=8388736*
%FSLAX43Y43*%
%MOMM*%
G71*
G04*
G04 #@! TF.SameCoordinates,78AD72C9-59E1-4A50-B3D3-B96FA2B5B495*
G04*
G04*
G04 #@! TF.FilePolarity,Positive*
G04*
G01*
G75*
%ADD11C,0.200*%
D11*
X3775Y14025D02*
X9525D01*
X3775Y6625D02*
Y14025D01*
Y6625D02*
X9525D01*
Y14025D01*
X3600Y15550D02*
X9350D01*
Y42950D01*
X3600D02*
X9350D01*
X3600Y15550D02*
Y42950D01*
X8150Y57525D02*
X9400D01*
Y59525D01*
X8150D02*
X9400D01*
X8150Y57525D02*
Y59525D01*
X10937Y52512D02*
X11487D01*
X10937Y51462D02*
Y52512D01*
Y51462D02*
X11487D01*
Y52512D01*
X13450Y51450D02*
X14000D01*
Y52500D01*
X13450D02*
X14000D01*
X13450Y51450D02*
Y52500D01*
X21175Y39700D02*
X22425D01*
X21175Y37700D02*
Y39700D01*
Y37700D02*
X22425D01*
Y39700D01*
X42200Y55650D02*
X47950D01*
X42200Y48250D02*
Y55650D01*
Y48250D02*
X47950D01*
Y55650D01*
X42225Y45575D02*
X47975D01*
X42225Y38175D02*
Y45575D01*
Y38175D02*
X47975D01*
Y45575D01*
X42425Y36625D02*
X48175D01*
X42425Y14225D02*
Y36625D01*
Y14225D02*
X48175D01*
Y36625D01*
X22075Y5025D02*
Y10775D01*
Y5025D02*
X29475D01*
Y10775D01*
X22075D02*
X29475D01*
X15175Y13775D02*
X16425D01*
Y15775D01*
X15175D02*
X16425D01*
X15175Y13775D02*
Y15775D01*
X12075Y59450D02*
X12875D01*
X12075Y57850D02*
Y59450D01*
Y57850D02*
X12875D01*
Y59450D01*
X11125Y48175D02*
X12375D01*
Y50175D01*
X11125D02*
X12375D01*
X11125Y48175D02*
Y50175D01*
X22850Y13450D02*
Y14250D01*
X21250D02*
X22850D01*
X21250Y13450D02*
Y14250D01*
Y13450D02*
X22850D01*
X26225Y13125D02*
X26775D01*
Y14175D01*
X26225D02*
X26775D01*
X26225Y13125D02*
Y14175D01*
X32575Y4875D02*
Y10625D01*
Y4875D02*
X39975D01*
Y10625D01*
X32575D02*
X39975D01*
X35225Y13900D02*
Y15150D01*
Y13900D02*
X37225D01*
Y15150D01*
X35225D02*
X37225D01*
X41225Y13825D02*
Y15075D01*
X39225D02*
X41225D01*
X39225Y13825D02*
Y15075D01*
Y13825D02*
X41225D01*
X23698Y22472D02*
X30202D01*
Y25978D01*
X23698D02*
X30202D01*
X23698Y22472D02*
Y25978D01*
X32125Y18275D02*
X35125D01*
Y21975D01*
X32125D02*
X35125D01*
X32125Y18275D02*
Y21975D01*
X17525Y42345D02*
Y67945D01*
Y42345D02*
X35625D01*
Y67945D01*
X17525D02*
X35625D01*
X39775Y16425D02*
X40325D01*
Y17475D01*
X39775D02*
X40325D01*
X39775Y16425D02*
Y17475D01*
X11625Y4775D02*
Y10525D01*
Y4775D02*
X19025D01*
Y10525D01*
X11625D02*
X19025D01*
M02*
