M48
;Layer_Color=9474304
;FILE_FORMAT=4:4
METRIC,LZ
;TYPE=PLATED
T01F00S00C0.6350
T02F00S00C0.7112
T03F00S00C0.9000
T04F00S00C0.9900
T05F00S00C1.0000
T06F00S00C3.0000
%
T01
X003941Y0057575
X004195
X004449
X004703
T02
X00115Y00175
X00195Y00155
X002025Y00205
X00345Y0016325
X0037Y001725
X004525Y000845
X00045Y005825
X001075Y0054211
X002075Y005275
X003025Y00565
Y0038
X00325Y0040039
X002425Y004
X004125Y0039
T03
X0044775Y0016675
Y0019175
Y0021675
Y0024175
Y0026675
Y0029175
Y0031675
X0007Y00305
Y0028
Y00255
Y0023
Y00205
Y0018
Y0033
Y00355
Y0038
Y00405
X0044775Y0034175
T04
X00475Y000545
Y001195
X0043
Y000545
X00044Y004715
Y005365
X00089
Y004715
T05
X0007175Y0009075
Y0011575
X0014075Y0008175
X0016575
X0024525Y0008425
X0027025
X0035025Y0008275
X0037525
X0045625Y0040625
Y0043125
X00456Y00507
Y00532
T06
X004975Y000225
X000225
X000275Y006125
X0049Y00615
M30
