G04*
G04 #@! TF.GenerationSoftware,Altium Limited,Altium Designer,24.2.2 (26)*
G04*
G04 Layer_Physical_Order=2*
G04 Layer_Color=16711680*
%FSLAX43Y43*%
%MOMM*%
G71*
G04*
G04 #@! TF.SameCoordinates,78AD72C9-59E1-4A50-B3D3-B96FA2B5B495*
G04*
G04*
G04 #@! TF.FilePolarity,Positive*
G04*
G01*
G75*
%ADD12C,0.500*%
%ADD37C,1.550*%
%ADD38R,1.550X1.550*%
%ADD39C,1.400*%
%ADD40R,1.400X1.400*%
%ADD43R,1.550X1.550*%
%ADD48C,0.300*%
%ADD49R,1.500X1.500*%
%ADD50C,1.500*%
%ADD51R,0.985X0.985*%
%ADD52C,0.985*%
%ADD53C,3.500*%
%ADD54C,1.270*%
G36*
X47224Y60551D02*
X47443Y60223D01*
X47723Y59943D01*
X48051Y59724D01*
X48415Y59573D01*
X48803Y59496D01*
X49197D01*
X49585Y59573D01*
X49738Y59637D01*
X49975Y59400D01*
Y4277D01*
X49947Y4254D01*
X49553D01*
X49165Y4177D01*
X48801Y4026D01*
X48473Y3807D01*
X48193Y3527D01*
X47974Y3199D01*
X47823Y2835D01*
X47746Y2447D01*
Y2053D01*
X47757Y1998D01*
X47676Y1900D01*
X5975D01*
X225Y7650D01*
Y55400D01*
X3671Y58846D01*
X3772Y58768D01*
X3672Y58593D01*
X3611Y58367D01*
Y58133D01*
X3621Y58097D01*
X1387Y55863D01*
X1275Y55697D01*
X1236Y55500D01*
Y43586D01*
X1275Y43389D01*
X1387Y43222D01*
X1680Y42930D01*
X1846Y42818D01*
X2043Y42779D01*
X8494D01*
X8986Y42287D01*
Y19500D01*
X9025Y19303D01*
X9137Y19137D01*
X10621Y17653D01*
X10611Y17617D01*
Y17383D01*
X10621Y17347D01*
X6849Y13575D01*
X6737Y13409D01*
X6698Y13212D01*
Y12604D01*
X6146D01*
Y10546D01*
X7176D01*
X7551Y10171D01*
X7486Y10057D01*
X7310Y10104D01*
X7040D01*
X6778Y10034D01*
X6543Y9898D01*
X6352Y9707D01*
X6216Y9472D01*
X6146Y9210D01*
Y8940D01*
X6216Y8678D01*
X6352Y8443D01*
X6543Y8252D01*
X6778Y8116D01*
X7040Y8046D01*
X7310D01*
X7572Y8116D01*
X7807Y8252D01*
X7998Y8443D01*
X8134Y8678D01*
X8204Y8940D01*
Y9210D01*
X8157Y9386D01*
X8271Y9451D01*
X12646Y5076D01*
X12813Y4965D01*
X13009Y4926D01*
X37207D01*
X37404Y4965D01*
X37570Y5076D01*
X37863Y5369D01*
X37975Y5536D01*
X38014Y5733D01*
Y7369D01*
X38157Y7452D01*
X38348Y7643D01*
X38402Y7736D01*
X41073D01*
X41270Y7775D01*
X41437Y7887D01*
X46379Y12829D01*
X46496Y12780D01*
Y10946D01*
X48504D01*
Y12954D01*
X46670D01*
X46621Y13071D01*
X47613Y14063D01*
X47725Y14230D01*
X47764Y14427D01*
Y41950D01*
X47725Y42147D01*
X47613Y42313D01*
X46654Y43273D01*
Y44154D01*
X44797D01*
X44748Y44271D01*
X47427Y46951D01*
X47539Y47117D01*
X47578Y47314D01*
Y55186D01*
X47539Y55383D01*
X47427Y55549D01*
X46363Y56613D01*
X46197Y56725D01*
X46000Y56764D01*
X44820D01*
X44799Y56822D01*
X44798Y56891D01*
X44948Y56978D01*
X45087Y57117D01*
X45186Y57287D01*
X45236Y57477D01*
Y57673D01*
X45186Y57863D01*
X45087Y58033D01*
X44948Y58172D01*
X44778Y58271D01*
X44588Y58321D01*
X44392D01*
X44202Y58271D01*
X44032Y58172D01*
X43893Y58033D01*
X43794Y57863D01*
X43743Y57673D01*
Y57477D01*
X43794Y57287D01*
X43893Y57117D01*
X44032Y56978D01*
X44182Y56891D01*
X44181Y56822D01*
X44160Y56764D01*
X42280D01*
X42259Y56822D01*
X42258Y56891D01*
X42408Y56978D01*
X42547Y57117D01*
X42646Y57287D01*
X42696Y57477D01*
Y57673D01*
X42646Y57863D01*
X42547Y58033D01*
X42408Y58172D01*
X42238Y58271D01*
X42048Y58321D01*
X41852D01*
X41662Y58271D01*
X41492Y58172D01*
X41353Y58033D01*
X41254Y57863D01*
X41203Y57673D01*
Y57477D01*
X41254Y57287D01*
X41353Y57117D01*
X41492Y56978D01*
X41642Y56891D01*
X41641Y56822D01*
X41620Y56764D01*
X40903D01*
X40157Y57510D01*
Y58321D01*
X38664D01*
Y56828D01*
X39385D01*
X40327Y55887D01*
X40493Y55775D01*
X40690Y55736D01*
X45787D01*
X46550Y54973D01*
Y54229D01*
X45727D01*
Y53200D01*
Y52171D01*
X46550D01*
Y51358D01*
X46455Y51332D01*
X46423Y51332D01*
X46232Y51523D01*
X45997Y51659D01*
X45735Y51729D01*
X45465D01*
X45203Y51659D01*
X44968Y51523D01*
X44777Y51332D01*
X44641Y51097D01*
X44571Y50835D01*
Y50565D01*
X44641Y50303D01*
X44777Y50068D01*
X44968Y49877D01*
X45188Y49750D01*
Y48771D01*
X37015Y40598D01*
X33199D01*
X33046Y40750D01*
X32843Y40867D01*
X32617Y40928D01*
X32383D01*
X32157Y40867D01*
X31954Y40750D01*
X31789Y40585D01*
X31672Y40382D01*
X31611Y40156D01*
Y39922D01*
X31672Y39696D01*
X31789Y39493D01*
X31954Y39328D01*
X32157Y39211D01*
X32383Y39150D01*
X32617D01*
X32843Y39211D01*
X33046Y39328D01*
X33211Y39493D01*
X33328Y39696D01*
X33349Y39774D01*
X37186D01*
X37343Y39805D01*
X37477Y39894D01*
X45891Y48309D01*
X45981Y48442D01*
X46012Y48600D01*
Y49750D01*
X46232Y49877D01*
X46359Y50004D01*
X46423Y50047D01*
X46496Y50026D01*
X46550Y49993D01*
Y47527D01*
X42887Y43863D01*
X42775Y43697D01*
X42736Y43500D01*
Y38713D01*
X35387Y31363D01*
X35275Y31197D01*
X35236Y31000D01*
Y23213D01*
X24179Y12156D01*
X24068Y11989D01*
X24039Y11844D01*
X23912Y11857D01*
Y39058D01*
X24012Y39143D01*
X24133Y39111D01*
X24367D01*
X24593Y39172D01*
X24796Y39289D01*
X24961Y39454D01*
X25078Y39657D01*
X25139Y39883D01*
Y40117D01*
X25078Y40343D01*
X24961Y40546D01*
X24796Y40711D01*
X24593Y40828D01*
X24367Y40889D01*
X24133D01*
X23907Y40828D01*
X23704Y40711D01*
X23539Y40546D01*
X23422Y40343D01*
X23361Y40117D01*
Y39883D01*
X23401Y39734D01*
X23209Y39541D01*
X23119Y39408D01*
X23088Y39250D01*
Y10317D01*
X22780Y10009D01*
X22690Y9875D01*
X22659Y9717D01*
Y8502D01*
X17553D01*
X17534Y8572D01*
X17398Y8807D01*
X17207Y8998D01*
X16972Y9134D01*
X16710Y9204D01*
X16440D01*
X16178Y9134D01*
X15943Y8998D01*
X15752Y8807D01*
X15616Y8572D01*
X15546Y8310D01*
Y8040D01*
X15616Y7778D01*
X15752Y7543D01*
X15943Y7352D01*
X16178Y7216D01*
X16440Y7146D01*
X16710D01*
X16972Y7216D01*
X17207Y7352D01*
X17398Y7543D01*
X17476Y7678D01*
X22895D01*
X23053Y7709D01*
X23187Y7799D01*
X23362Y7974D01*
X23369Y7985D01*
X23496Y7946D01*
Y7396D01*
X25554D01*
Y9454D01*
X25056D01*
Y11580D01*
X36113Y22637D01*
X36225Y22803D01*
X36264Y23000D01*
Y30787D01*
X43613Y38137D01*
X43725Y38303D01*
X43764Y38500D01*
Y43287D01*
X44479Y44002D01*
X44596Y43953D01*
Y42096D01*
X46377D01*
X46736Y41737D01*
Y40945D01*
X46609Y40928D01*
X46584Y41022D01*
X46448Y41257D01*
X46257Y41448D01*
X46022Y41584D01*
X45760Y41654D01*
X45490D01*
X45228Y41584D01*
X44993Y41448D01*
X44802Y41257D01*
X44666Y41022D01*
X44596Y40760D01*
Y40490D01*
X44666Y40228D01*
X44802Y39993D01*
X44993Y39802D01*
X45228Y39666D01*
X45490Y39596D01*
X45760D01*
X46022Y39666D01*
X46257Y39802D01*
X46448Y39993D01*
X46584Y40228D01*
X46609Y40322D01*
X46736Y40305D01*
Y14639D01*
X44121Y12025D01*
X44004Y12073D01*
Y12082D01*
X43936Y12338D01*
X43803Y12566D01*
X43616Y12753D01*
X43388Y12886D01*
X43132Y12954D01*
X43127D01*
Y11950D01*
X43000D01*
Y11823D01*
X41996D01*
Y11818D01*
X42064Y11562D01*
X42197Y11334D01*
X42384Y11147D01*
X42612Y11014D01*
X42868Y10946D01*
X42877D01*
X42925Y10829D01*
X40861Y8764D01*
X38431D01*
X38348Y8907D01*
X38157Y9098D01*
X37922Y9234D01*
X37660Y9304D01*
X37390D01*
X37128Y9234D01*
X36893Y9098D01*
X36702Y8907D01*
X36566Y8672D01*
X36496Y8410D01*
Y8140D01*
X36566Y7878D01*
X36702Y7643D01*
X36893Y7452D01*
X36986Y7398D01*
Y5954D01*
X13222D01*
X8204Y10972D01*
Y12604D01*
X7726D01*
Y12999D01*
X11347Y16621D01*
X11383Y16611D01*
X11617D01*
X11843Y16672D01*
X12046Y16789D01*
X12211Y16954D01*
X12328Y17157D01*
X12389Y17383D01*
Y17617D01*
X12328Y17843D01*
X12211Y18046D01*
X12046Y18211D01*
X11843Y18328D01*
X11617Y18389D01*
X11383D01*
X11347Y18379D01*
X10014Y19713D01*
Y42500D01*
X9975Y42697D01*
X9863Y42863D01*
X9070Y43656D01*
X8904Y43768D01*
X8707Y43807D01*
X2264D01*
Y55287D01*
X4347Y57371D01*
X4383Y57361D01*
X4617D01*
X4843Y57422D01*
X5046Y57539D01*
X5211Y57704D01*
X5328Y57907D01*
X5389Y58133D01*
Y58367D01*
X5328Y58593D01*
X5211Y58796D01*
X5046Y58961D01*
X4843Y59078D01*
X4617Y59139D01*
X4383D01*
X4157Y59078D01*
X3982Y58978D01*
X3904Y59079D01*
X5725Y60900D01*
X15225D01*
X18975Y57650D01*
X33725D01*
X37725Y60900D01*
X47079D01*
X47224Y60551D01*
D02*
G37*
%LPC*%
G36*
X47157Y58314D02*
Y57702D01*
X47769D01*
X47726Y57863D01*
X47627Y58033D01*
X47488Y58172D01*
X47318Y58271D01*
X47157Y58314D01*
D02*
G37*
G36*
X46903D02*
X46742Y58271D01*
X46572Y58172D01*
X46433Y58033D01*
X46334Y57863D01*
X46291Y57702D01*
X46903D01*
Y58314D01*
D02*
G37*
G36*
X47769Y57448D02*
X47157D01*
Y56836D01*
X47318Y56879D01*
X47488Y56978D01*
X47627Y57117D01*
X47726Y57287D01*
X47769Y57448D01*
D02*
G37*
G36*
X46903D02*
X46291D01*
X46334Y57287D01*
X46433Y57117D01*
X46572Y56978D01*
X46742Y56879D01*
X46903Y56836D01*
Y57448D01*
D02*
G37*
G36*
X30377Y57386D02*
Y56627D01*
X31136D01*
X31078Y56843D01*
X30961Y57046D01*
X30796Y57211D01*
X30593Y57328D01*
X30377Y57386D01*
D02*
G37*
G36*
X30123D02*
X29907Y57328D01*
X29704Y57211D01*
X29539Y57046D01*
X29422Y56843D01*
X29364Y56627D01*
X30123D01*
Y57386D01*
D02*
G37*
G36*
X31136Y56373D02*
X30377D01*
Y55614D01*
X30593Y55672D01*
X30796Y55789D01*
X30961Y55954D01*
X31078Y56157D01*
X31136Y56373D01*
D02*
G37*
G36*
X30123D02*
X29364D01*
X29422Y56157D01*
X29539Y55954D01*
X29704Y55789D01*
X29907Y55672D01*
X30123Y55614D01*
Y56373D01*
D02*
G37*
G36*
X10877Y55097D02*
Y54338D01*
X11636D01*
X11578Y54554D01*
X11461Y54757D01*
X11296Y54922D01*
X11093Y55039D01*
X10877Y55097D01*
D02*
G37*
G36*
X10623D02*
X10407Y55039D01*
X10204Y54922D01*
X10039Y54757D01*
X9922Y54554D01*
X9861Y54328D01*
Y54247D01*
X9734Y54213D01*
X9703Y54266D01*
X9516Y54453D01*
X9288Y54586D01*
X9032Y54654D01*
X9027D01*
Y53650D01*
X8900D01*
D01*
X9027D01*
Y52646D01*
X9032D01*
X9288Y52714D01*
X9516Y52847D01*
X9703Y53034D01*
X9836Y53262D01*
X9904Y53518D01*
Y53644D01*
X10031Y53678D01*
X10039Y53665D01*
X10204Y53500D01*
X10407Y53383D01*
X10623Y53325D01*
Y54211D01*
Y55097D01*
D02*
G37*
G36*
X8773Y54654D02*
X8768D01*
X8512Y54586D01*
X8284Y54453D01*
X8097Y54266D01*
X7964Y54038D01*
X7896Y53782D01*
Y53777D01*
X8773D01*
Y54654D01*
D02*
G37*
G36*
X45473Y54229D02*
X44571D01*
Y53327D01*
X45473D01*
Y54229D01*
D02*
G37*
G36*
X11636Y54084D02*
X10877D01*
Y53325D01*
X11093Y53383D01*
X11296Y53500D01*
X11461Y53665D01*
X11578Y53868D01*
X11636Y54084D01*
D02*
G37*
G36*
X8773Y53523D02*
X7896D01*
Y53518D01*
X7964Y53262D01*
X8097Y53034D01*
X8284Y52847D01*
X8512Y52714D01*
X8768Y52646D01*
X8773D01*
Y53523D01*
D02*
G37*
G36*
X4532Y54654D02*
X4268D01*
X4012Y54586D01*
X3784Y54453D01*
X3597Y54266D01*
X3464Y54038D01*
X3396Y53782D01*
Y53518D01*
X3464Y53262D01*
X3597Y53034D01*
X3784Y52847D01*
X4012Y52714D01*
X4268Y52646D01*
X4532D01*
X4788Y52714D01*
X5016Y52847D01*
X5203Y53034D01*
X5336Y53262D01*
X5404Y53518D01*
Y53782D01*
X5336Y54038D01*
X5203Y54266D01*
X5016Y54453D01*
X4788Y54586D01*
X4532Y54654D01*
D02*
G37*
G36*
X45473Y53073D02*
X44571D01*
Y52171D01*
X45473D01*
Y53073D01*
D02*
G37*
G36*
X9032Y48154D02*
X9027D01*
Y47277D01*
X9904D01*
Y47282D01*
X9836Y47538D01*
X9703Y47766D01*
X9516Y47953D01*
X9288Y48086D01*
X9032Y48154D01*
D02*
G37*
G36*
X8773D02*
X8768D01*
X8512Y48086D01*
X8284Y47953D01*
X8097Y47766D01*
X7964Y47538D01*
X7896Y47282D01*
Y47277D01*
X8773D01*
Y48154D01*
D02*
G37*
G36*
X9904Y47023D02*
X9027D01*
Y46146D01*
X9032D01*
X9288Y46214D01*
X9516Y46347D01*
X9703Y46534D01*
X9836Y46762D01*
X9904Y47018D01*
Y47023D01*
D02*
G37*
G36*
X8773D02*
X7896D01*
Y47018D01*
X7964Y46762D01*
X8097Y46534D01*
X8284Y46347D01*
X8512Y46214D01*
X8768Y46146D01*
X8773D01*
Y47023D01*
D02*
G37*
G36*
X5404Y48154D02*
X3396D01*
Y46146D01*
X5404D01*
Y48154D01*
D02*
G37*
G36*
X7954Y41454D02*
X7127D01*
Y40627D01*
X7954D01*
Y41454D01*
D02*
G37*
G36*
X6873D02*
X6046D01*
Y40627D01*
X6873D01*
Y41454D01*
D02*
G37*
G36*
X7954Y40373D02*
X7127D01*
Y39546D01*
X7954D01*
Y40373D01*
D02*
G37*
G36*
X6873D02*
X6046D01*
Y39546D01*
X6873D01*
Y40373D01*
D02*
G37*
G36*
X41367Y39889D02*
X41133D01*
X40907Y39828D01*
X40704Y39711D01*
X40539Y39546D01*
X40422Y39343D01*
X40361Y39117D01*
Y38883D01*
X40401Y38734D01*
X40079Y38412D01*
X31039D01*
X30961Y38546D01*
X30796Y38711D01*
X30593Y38828D01*
X30367Y38889D01*
X30133D01*
X29907Y38828D01*
X29704Y38711D01*
X29539Y38546D01*
X29422Y38343D01*
X29361Y38117D01*
Y37883D01*
X29422Y37657D01*
X29539Y37454D01*
X29704Y37289D01*
X29907Y37172D01*
X30133Y37111D01*
X30367D01*
X30593Y37172D01*
X30796Y37289D01*
X30961Y37454D01*
X31039Y37588D01*
X40250D01*
X40408Y37619D01*
X40541Y37709D01*
X40984Y38151D01*
X41133Y38111D01*
X41367D01*
X41593Y38172D01*
X41796Y38289D01*
X41961Y38454D01*
X42078Y38657D01*
X42139Y38883D01*
Y39117D01*
X42078Y39343D01*
X41961Y39546D01*
X41796Y39711D01*
X41593Y39828D01*
X41367Y39889D01*
D02*
G37*
G36*
X7126Y38954D02*
X6874D01*
X6632Y38889D01*
X6414Y38763D01*
X6237Y38586D01*
X6111Y38368D01*
X6046Y38126D01*
Y37874D01*
X6111Y37632D01*
X6237Y37414D01*
X6414Y37237D01*
X6632Y37111D01*
X6874Y37046D01*
X7126D01*
X7368Y37111D01*
X7586Y37237D01*
X7763Y37414D01*
X7889Y37632D01*
X7954Y37874D01*
Y38126D01*
X7889Y38368D01*
X7763Y38586D01*
X7586Y38763D01*
X7368Y38889D01*
X7126Y38954D01*
D02*
G37*
G36*
Y36454D02*
X6874D01*
X6632Y36389D01*
X6414Y36263D01*
X6237Y36086D01*
X6111Y35868D01*
X6046Y35626D01*
Y35374D01*
X6111Y35132D01*
X6237Y34914D01*
X6414Y34737D01*
X6632Y34611D01*
X6874Y34546D01*
X7126D01*
X7368Y34611D01*
X7586Y34737D01*
X7763Y34914D01*
X7889Y35132D01*
X7954Y35374D01*
Y35626D01*
X7889Y35868D01*
X7763Y36086D01*
X7586Y36263D01*
X7368Y36389D01*
X7126Y36454D01*
D02*
G37*
G36*
X44901Y35129D02*
X44649D01*
X44407Y35064D01*
X44189Y34938D01*
X44012Y34761D01*
X43886Y34543D01*
X43821Y34301D01*
Y34049D01*
X43886Y33807D01*
X44012Y33589D01*
X44189Y33412D01*
X44407Y33286D01*
X44649Y33221D01*
X44901D01*
X45143Y33286D01*
X45361Y33412D01*
X45538Y33589D01*
X45664Y33807D01*
X45729Y34049D01*
Y34301D01*
X45664Y34543D01*
X45538Y34761D01*
X45361Y34938D01*
X45143Y35064D01*
X44901Y35129D01*
D02*
G37*
G36*
X7126Y33954D02*
X6874D01*
X6632Y33889D01*
X6414Y33763D01*
X6237Y33586D01*
X6111Y33368D01*
X6046Y33126D01*
Y32874D01*
X6111Y32632D01*
X6237Y32414D01*
X6414Y32237D01*
X6632Y32111D01*
X6874Y32046D01*
X7126D01*
X7368Y32111D01*
X7586Y32237D01*
X7763Y32414D01*
X7889Y32632D01*
X7954Y32874D01*
Y33126D01*
X7889Y33368D01*
X7763Y33586D01*
X7586Y33763D01*
X7368Y33889D01*
X7126Y33954D01*
D02*
G37*
G36*
X44901Y32629D02*
X44649D01*
X44407Y32564D01*
X44189Y32438D01*
X44012Y32261D01*
X43886Y32043D01*
X43821Y31801D01*
Y31549D01*
X43886Y31307D01*
X44012Y31089D01*
X44189Y30912D01*
X44407Y30786D01*
X44649Y30721D01*
X44901D01*
X45143Y30786D01*
X45361Y30912D01*
X45538Y31089D01*
X45664Y31307D01*
X45729Y31549D01*
Y31801D01*
X45664Y32043D01*
X45538Y32261D01*
X45361Y32438D01*
X45143Y32564D01*
X44901Y32629D01*
D02*
G37*
G36*
X7126Y31454D02*
X6874D01*
X6632Y31389D01*
X6414Y31263D01*
X6237Y31086D01*
X6111Y30868D01*
X6046Y30626D01*
Y30374D01*
X6111Y30132D01*
X6237Y29914D01*
X6414Y29737D01*
X6632Y29611D01*
X6874Y29546D01*
X7126D01*
X7368Y29611D01*
X7586Y29737D01*
X7763Y29914D01*
X7889Y30132D01*
X7954Y30374D01*
Y30626D01*
X7889Y30868D01*
X7763Y31086D01*
X7586Y31263D01*
X7368Y31389D01*
X7126Y31454D01*
D02*
G37*
G36*
X44901Y30129D02*
X44649D01*
X44407Y30064D01*
X44189Y29938D01*
X44012Y29761D01*
X43886Y29543D01*
X43821Y29301D01*
Y29049D01*
X43886Y28807D01*
X44012Y28589D01*
X44189Y28412D01*
X44407Y28286D01*
X44649Y28221D01*
X44901D01*
X45143Y28286D01*
X45361Y28412D01*
X45538Y28589D01*
X45664Y28807D01*
X45729Y29049D01*
Y29301D01*
X45664Y29543D01*
X45538Y29761D01*
X45361Y29938D01*
X45143Y30064D01*
X44901Y30129D01*
D02*
G37*
G36*
X7126Y28954D02*
X6874D01*
X6632Y28889D01*
X6414Y28763D01*
X6237Y28586D01*
X6111Y28368D01*
X6046Y28126D01*
Y27874D01*
X6111Y27632D01*
X6237Y27414D01*
X6414Y27237D01*
X6632Y27111D01*
X6874Y27046D01*
X7126D01*
X7368Y27111D01*
X7586Y27237D01*
X7763Y27414D01*
X7889Y27632D01*
X7954Y27874D01*
Y28126D01*
X7889Y28368D01*
X7763Y28586D01*
X7586Y28763D01*
X7368Y28889D01*
X7126Y28954D01*
D02*
G37*
G36*
X44901Y27629D02*
X44649D01*
X44407Y27564D01*
X44189Y27438D01*
X44012Y27261D01*
X43886Y27043D01*
X43821Y26801D01*
Y26549D01*
X43886Y26307D01*
X44012Y26089D01*
X44189Y25912D01*
X44407Y25786D01*
X44649Y25721D01*
X44901D01*
X45143Y25786D01*
X45361Y25912D01*
X45538Y26089D01*
X45664Y26307D01*
X45729Y26549D01*
Y26801D01*
X45664Y27043D01*
X45538Y27261D01*
X45361Y27438D01*
X45143Y27564D01*
X44901Y27629D01*
D02*
G37*
G36*
X7126Y26454D02*
X6874D01*
X6632Y26389D01*
X6414Y26263D01*
X6237Y26086D01*
X6111Y25868D01*
X6046Y25626D01*
Y25374D01*
X6111Y25132D01*
X6237Y24914D01*
X6414Y24737D01*
X6632Y24611D01*
X6874Y24546D01*
X7126D01*
X7368Y24611D01*
X7586Y24737D01*
X7763Y24914D01*
X7889Y25132D01*
X7954Y25374D01*
Y25626D01*
X7889Y25868D01*
X7763Y26086D01*
X7586Y26263D01*
X7368Y26389D01*
X7126Y26454D01*
D02*
G37*
G36*
X44901Y25129D02*
X44649D01*
X44407Y25064D01*
X44189Y24938D01*
X44012Y24761D01*
X43886Y24543D01*
X43821Y24301D01*
Y24049D01*
X43886Y23807D01*
X44012Y23589D01*
X44189Y23412D01*
X44407Y23286D01*
X44649Y23221D01*
X44901D01*
X45143Y23286D01*
X45361Y23412D01*
X45538Y23589D01*
X45664Y23807D01*
X45729Y24049D01*
Y24301D01*
X45664Y24543D01*
X45538Y24761D01*
X45361Y24938D01*
X45143Y25064D01*
X44901Y25129D01*
D02*
G37*
G36*
X7126Y23954D02*
X6874D01*
X6632Y23889D01*
X6414Y23763D01*
X6237Y23586D01*
X6111Y23368D01*
X6046Y23126D01*
Y22874D01*
X6111Y22632D01*
X6237Y22414D01*
X6414Y22237D01*
X6632Y22111D01*
X6874Y22046D01*
X7126D01*
X7368Y22111D01*
X7586Y22237D01*
X7763Y22414D01*
X7889Y22632D01*
X7954Y22874D01*
Y23126D01*
X7889Y23368D01*
X7763Y23586D01*
X7586Y23763D01*
X7368Y23889D01*
X7126Y23954D01*
D02*
G37*
G36*
X44901Y22629D02*
X44649D01*
X44407Y22564D01*
X44189Y22438D01*
X44012Y22261D01*
X43886Y22043D01*
X43821Y21801D01*
Y21549D01*
X43886Y21307D01*
X44012Y21089D01*
X44189Y20912D01*
X44407Y20786D01*
X44649Y20721D01*
X44901D01*
X45143Y20786D01*
X45361Y20912D01*
X45538Y21089D01*
X45664Y21307D01*
X45729Y21549D01*
Y21801D01*
X45664Y22043D01*
X45538Y22261D01*
X45361Y22438D01*
X45143Y22564D01*
X44901Y22629D01*
D02*
G37*
G36*
X20377Y21386D02*
Y20627D01*
X21136D01*
X21078Y20843D01*
X20961Y21046D01*
X20796Y21211D01*
X20593Y21328D01*
X20377Y21386D01*
D02*
G37*
G36*
X20123D02*
X19907Y21328D01*
X19704Y21211D01*
X19539Y21046D01*
X19422Y20843D01*
X19364Y20627D01*
X20123D01*
Y21386D01*
D02*
G37*
G36*
X21136Y20373D02*
X20377D01*
Y19614D01*
X20593Y19672D01*
X20796Y19789D01*
X20961Y19954D01*
X21078Y20157D01*
X21136Y20373D01*
D02*
G37*
G36*
X20123D02*
X19364D01*
X19422Y20157D01*
X19539Y19954D01*
X19704Y19789D01*
X19907Y19672D01*
X20123Y19614D01*
Y20373D01*
D02*
G37*
G36*
X7126Y21454D02*
X6874D01*
X6632Y21389D01*
X6414Y21263D01*
X6237Y21086D01*
X6111Y20868D01*
X6046Y20626D01*
Y20374D01*
X6111Y20132D01*
X6237Y19914D01*
X6414Y19737D01*
X6632Y19611D01*
X6874Y19546D01*
X7126D01*
X7368Y19611D01*
X7586Y19737D01*
X7763Y19914D01*
X7889Y20132D01*
X7954Y20374D01*
Y20626D01*
X7889Y20868D01*
X7763Y21086D01*
X7586Y21263D01*
X7368Y21389D01*
X7126Y21454D01*
D02*
G37*
G36*
X44901Y20129D02*
X44649D01*
X44407Y20064D01*
X44189Y19938D01*
X44012Y19761D01*
X43886Y19543D01*
X43821Y19301D01*
Y19049D01*
X43886Y18807D01*
X44012Y18589D01*
X44189Y18412D01*
X44407Y18286D01*
X44649Y18221D01*
X44901D01*
X45143Y18286D01*
X45361Y18412D01*
X45538Y18589D01*
X45664Y18807D01*
X45729Y19049D01*
Y19301D01*
X45664Y19543D01*
X45538Y19761D01*
X45361Y19938D01*
X45143Y20064D01*
X44901Y20129D01*
D02*
G37*
G36*
X7126Y18954D02*
X6874D01*
X6632Y18889D01*
X6414Y18763D01*
X6237Y18586D01*
X6111Y18368D01*
X6046Y18126D01*
Y17874D01*
X6111Y17632D01*
X6237Y17414D01*
X6414Y17237D01*
X6632Y17111D01*
X6874Y17046D01*
X7126D01*
X7368Y17111D01*
X7586Y17237D01*
X7763Y17414D01*
X7889Y17632D01*
X7954Y17874D01*
Y18126D01*
X7889Y18368D01*
X7763Y18586D01*
X7586Y18763D01*
X7368Y18889D01*
X7126Y18954D01*
D02*
G37*
G36*
X34627Y17211D02*
Y16452D01*
X35386D01*
X35328Y16668D01*
X35211Y16871D01*
X35046Y17036D01*
X34843Y17153D01*
X34627Y17211D01*
D02*
G37*
G36*
X34373D02*
X34157Y17153D01*
X33954Y17036D01*
X33789Y16871D01*
X33672Y16668D01*
X33614Y16452D01*
X34373D01*
Y17211D01*
D02*
G37*
G36*
X45729Y17629D02*
X43821D01*
Y15721D01*
X45729D01*
Y17629D01*
D02*
G37*
G36*
X35386Y16198D02*
X34627D01*
Y15439D01*
X34843Y15497D01*
X35046Y15614D01*
X35211Y15779D01*
X35328Y15982D01*
X35386Y16198D01*
D02*
G37*
G36*
X34373D02*
X33614D01*
X33672Y15982D01*
X33789Y15779D01*
X33954Y15614D01*
X34157Y15497D01*
X34373Y15439D01*
Y16198D01*
D02*
G37*
G36*
X20867Y53639D02*
X20633D01*
X20407Y53578D01*
X20204Y53461D01*
X20039Y53296D01*
X19922Y53093D01*
X19861Y52867D01*
Y52633D01*
X19922Y52407D01*
X20039Y52204D01*
X20204Y52039D01*
X20338Y51961D01*
Y49921D01*
X16459Y46041D01*
X16369Y45908D01*
X16338Y45750D01*
Y18250D01*
X16369Y18092D01*
X16459Y17959D01*
X18651Y15766D01*
X18611Y15617D01*
Y15383D01*
X18672Y15157D01*
X18789Y14954D01*
X18954Y14789D01*
X19157Y14672D01*
X19383Y14611D01*
X19617D01*
X19843Y14672D01*
X20046Y14789D01*
X20211Y14954D01*
X20328Y15157D01*
X20389Y15383D01*
Y15617D01*
X20328Y15843D01*
X20211Y16046D01*
X20046Y16211D01*
X19843Y16328D01*
X19617Y16389D01*
X19383D01*
X19234Y16349D01*
X17162Y18421D01*
Y45579D01*
X21041Y49459D01*
X21131Y49592D01*
X21162Y49750D01*
Y51961D01*
X21296Y52039D01*
X21461Y52204D01*
X21578Y52407D01*
X21639Y52633D01*
Y52867D01*
X21578Y53093D01*
X21461Y53296D01*
X21296Y53461D01*
X21093Y53578D01*
X20867Y53639D01*
D02*
G37*
G36*
X42873Y12954D02*
X42868D01*
X42612Y12886D01*
X42384Y12753D01*
X42197Y12566D01*
X42064Y12338D01*
X41996Y12082D01*
Y12077D01*
X42873D01*
Y12954D01*
D02*
G37*
G36*
X45377Y9336D02*
Y8577D01*
X46136D01*
X46078Y8793D01*
X45961Y8996D01*
X45796Y9161D01*
X45593Y9278D01*
X45377Y9336D01*
D02*
G37*
G36*
X45123D02*
X44907Y9278D01*
X44704Y9161D01*
X44539Y8996D01*
X44422Y8793D01*
X44364Y8577D01*
X45123D01*
Y9336D01*
D02*
G37*
G36*
X27160Y9454D02*
X27152D01*
Y8552D01*
X28054D01*
Y8560D01*
X27984Y8822D01*
X27848Y9057D01*
X27657Y9248D01*
X27422Y9384D01*
X27160Y9454D01*
D02*
G37*
G36*
X26898D02*
X26890D01*
X26628Y9384D01*
X26393Y9248D01*
X26202Y9057D01*
X26066Y8822D01*
X25996Y8560D01*
Y8552D01*
X26898D01*
Y9454D01*
D02*
G37*
G36*
X15104Y9204D02*
X14202D01*
Y8302D01*
X15104D01*
Y9204D01*
D02*
G37*
G36*
X13948D02*
X13046D01*
Y8302D01*
X13948D01*
Y9204D01*
D02*
G37*
G36*
X46136Y8323D02*
X45377D01*
Y7564D01*
X45593Y7622D01*
X45796Y7739D01*
X45961Y7904D01*
X46078Y8107D01*
X46136Y8323D01*
D02*
G37*
G36*
X45123D02*
X44364D01*
X44422Y8107D01*
X44539Y7904D01*
X44704Y7739D01*
X44907Y7622D01*
X45123Y7564D01*
Y8323D01*
D02*
G37*
G36*
X28054Y8298D02*
X27152D01*
Y7396D01*
X27160D01*
X27422Y7466D01*
X27657Y7602D01*
X27848Y7793D01*
X27984Y8028D01*
X28054Y8290D01*
Y8298D01*
D02*
G37*
G36*
X26898D02*
X25996D01*
Y8290D01*
X26066Y8028D01*
X26202Y7793D01*
X26393Y7602D01*
X26628Y7466D01*
X26890Y7396D01*
X26898D01*
Y8298D01*
D02*
G37*
G36*
X37117Y18139D02*
X36883D01*
X36657Y18078D01*
X36454Y17961D01*
X36289Y17796D01*
X36172Y17593D01*
X36111Y17367D01*
Y17133D01*
X36172Y16907D01*
X36289Y16704D01*
X36454Y16539D01*
X36588Y16461D01*
Y10421D01*
X35471Y9304D01*
X33996D01*
Y7246D01*
X36054D01*
Y8721D01*
X37291Y9959D01*
X37381Y10092D01*
X37412Y10250D01*
Y16461D01*
X37546Y16539D01*
X37711Y16704D01*
X37828Y16907D01*
X37889Y17133D01*
Y17367D01*
X37828Y17593D01*
X37711Y17796D01*
X37546Y17961D01*
X37343Y18078D01*
X37117Y18139D01*
D02*
G37*
G36*
X15104Y8048D02*
X14202D01*
Y7146D01*
X15104D01*
Y8048D01*
D02*
G37*
G36*
X13948D02*
X13046D01*
Y7146D01*
X13948D01*
Y8048D01*
D02*
G37*
G36*
X43132Y6454D02*
X43127D01*
Y5577D01*
X44004D01*
Y5582D01*
X43936Y5838D01*
X43803Y6066D01*
X43616Y6253D01*
X43388Y6386D01*
X43132Y6454D01*
D02*
G37*
G36*
X42873D02*
X42868D01*
X42612Y6386D01*
X42384Y6253D01*
X42197Y6066D01*
X42064Y5838D01*
X41996Y5582D01*
Y5577D01*
X42873D01*
Y6454D01*
D02*
G37*
G36*
X47632D02*
X47368D01*
X47112Y6386D01*
X46884Y6253D01*
X46697Y6066D01*
X46564Y5838D01*
X46496Y5582D01*
Y5318D01*
X46564Y5062D01*
X46697Y4834D01*
X46884Y4647D01*
X47112Y4514D01*
X47368Y4446D01*
X47632D01*
X47888Y4514D01*
X48116Y4647D01*
X48303Y4834D01*
X48436Y5062D01*
X48504Y5318D01*
Y5582D01*
X48436Y5838D01*
X48303Y6066D01*
X48116Y6253D01*
X47888Y6386D01*
X47632Y6454D01*
D02*
G37*
G36*
X44004Y5323D02*
X43127D01*
Y4446D01*
X43132D01*
X43388Y4514D01*
X43616Y4647D01*
X43803Y4834D01*
X43936Y5062D01*
X44004Y5318D01*
Y5323D01*
D02*
G37*
G36*
X42873D02*
X41996D01*
Y5318D01*
X42064Y5062D01*
X42197Y4834D01*
X42384Y4647D01*
X42612Y4514D01*
X42868Y4446D01*
X42873D01*
Y5323D01*
D02*
G37*
%LPD*%
D12*
X7212Y11237D02*
X13009Y5440D01*
X37207D01*
X37500Y5733D01*
Y8250D01*
X24250Y8775D02*
X24543Y9068D01*
Y11793D01*
X35750Y23000D01*
Y31000D01*
X9500Y19500D02*
Y42500D01*
Y19500D02*
X11500Y17500D01*
X7212Y11237D02*
Y13212D01*
X11500Y17500D01*
X8707Y43293D02*
X9500Y42500D01*
X37500Y8250D02*
X41073D01*
X35750Y31000D02*
X43250Y38500D01*
Y43500D01*
X47064Y47314D01*
Y55186D01*
X40690Y56250D02*
X46000D01*
X47064Y55186D01*
X39440Y57500D02*
X40690Y56250D01*
X45750Y43450D02*
X47250Y41950D01*
X41073Y8250D02*
X47250Y14427D01*
Y41950D01*
X1750Y55500D02*
X4250Y58000D01*
X2043Y43293D02*
X8707D01*
X1750Y43586D02*
Y55500D01*
Y43586D02*
X2043Y43293D01*
D37*
X7175Y9075D02*
D03*
X45600Y50700D02*
D03*
X45625Y40625D02*
D03*
X27025Y8425D02*
D03*
X37525Y8275D02*
D03*
X16575Y8175D02*
D03*
D38*
X7175Y11575D02*
D03*
X45600Y53200D02*
D03*
X45625Y43125D02*
D03*
D39*
X7000Y18000D02*
D03*
Y20500D02*
D03*
Y23000D02*
D03*
Y25500D02*
D03*
Y28000D02*
D03*
Y30500D02*
D03*
Y33000D02*
D03*
Y35500D02*
D03*
Y38000D02*
D03*
X44775Y34175D02*
D03*
Y31675D02*
D03*
Y29175D02*
D03*
Y26675D02*
D03*
Y24175D02*
D03*
Y21675D02*
D03*
Y19175D02*
D03*
D40*
X7000Y40500D02*
D03*
X44775Y16675D02*
D03*
D43*
X24525Y8425D02*
D03*
X35025Y8275D02*
D03*
X14075Y8175D02*
D03*
D48*
X45600Y48600D02*
Y50700D01*
X37186Y40186D02*
X45600Y48600D01*
X45750Y50350D02*
X46150D01*
X23500Y39250D02*
X24250Y40000D01*
X23071Y9717D02*
X23500Y10146D01*
Y39250D01*
X23071Y8266D02*
Y9717D01*
X16750Y45750D02*
X20750Y49750D01*
X16750Y18250D02*
X19500Y15500D01*
X16750Y18250D02*
Y45750D01*
X20750Y49750D02*
Y52750D01*
X22895Y8090D02*
X23071Y8266D01*
X16347Y8090D02*
X22895D01*
X40250Y38000D02*
X41250Y39000D01*
X30250Y38000D02*
X40250D01*
X32647Y40186D02*
X37186D01*
X32500Y40039D02*
X32647Y40186D01*
X35000Y8250D02*
X37000Y10250D01*
Y17250D01*
D49*
X47500Y11950D02*
D03*
X4400Y47150D02*
D03*
D50*
X43000Y11950D02*
D03*
Y5450D02*
D03*
X47500D02*
D03*
X8900Y47150D02*
D03*
Y53650D02*
D03*
X4400D02*
D03*
D51*
X39410Y57575D02*
D03*
D52*
X41950D02*
D03*
X44490D02*
D03*
X47030D02*
D03*
D53*
X2750Y61250D02*
D03*
X49000Y61500D02*
D03*
X2250Y2250D02*
D03*
X49750D02*
D03*
D54*
X45250Y8450D02*
D03*
X20250Y20500D02*
D03*
X19500Y15500D02*
D03*
X11500Y17500D02*
D03*
X24250Y40000D02*
D03*
X20750Y52750D02*
D03*
X30250Y38000D02*
D03*
X34500Y16325D02*
D03*
X32500Y40039D02*
D03*
X41250Y39000D02*
D03*
X37000Y17250D02*
D03*
X30250Y56500D02*
D03*
X4500Y58250D02*
D03*
X10750Y54211D02*
D03*
M02*
