G04*
G04 #@! TF.GenerationSoftware,Altium Limited,Altium Designer,24.2.2 (26)*
G04*
G04 Layer_Color=16711935*
%FSLAX43Y43*%
%MOMM*%
G71*
G04*
G04 #@! TF.SameCoordinates,78AD72C9-59E1-4A50-B3D3-B96FA2B5B495*
G04*
G04*
G04 #@! TF.FilePolarity,Negative*
G04*
G01*
G75*
%ADD37C,1.550*%
%ADD38R,1.550X1.550*%
%ADD39C,1.400*%
%ADD40R,1.400X1.400*%
%ADD41R,1.703X1.703*%
%ADD42C,1.703*%
%ADD43R,1.550X1.550*%
%ADD44R,1.188X1.188*%
%ADD45C,1.188*%
%ADD46C,3.703*%
%ADD47C,1.473*%
D37*
X7175Y9075D02*
D03*
X45600Y50700D02*
D03*
X45625Y40625D02*
D03*
X27025Y8425D02*
D03*
X37525Y8275D02*
D03*
X16575Y8175D02*
D03*
D38*
X7175Y11575D02*
D03*
X45600Y53200D02*
D03*
X45625Y43125D02*
D03*
D39*
X7000Y18000D02*
D03*
Y20500D02*
D03*
Y23000D02*
D03*
Y25500D02*
D03*
Y28000D02*
D03*
Y30500D02*
D03*
Y33000D02*
D03*
Y35500D02*
D03*
Y38000D02*
D03*
X44775Y34175D02*
D03*
Y31675D02*
D03*
Y29175D02*
D03*
Y26675D02*
D03*
Y24175D02*
D03*
Y21675D02*
D03*
Y19175D02*
D03*
D40*
X7000Y40500D02*
D03*
X44775Y16675D02*
D03*
D41*
X47500Y11950D02*
D03*
X4400Y47150D02*
D03*
D42*
X43000Y11950D02*
D03*
Y5450D02*
D03*
X47500D02*
D03*
X8900Y47150D02*
D03*
Y53650D02*
D03*
X4400D02*
D03*
D43*
X24525Y8425D02*
D03*
X35025Y8275D02*
D03*
X14075Y8175D02*
D03*
D44*
X39410Y57575D02*
D03*
D45*
X41950D02*
D03*
X44490D02*
D03*
X47030D02*
D03*
D46*
X2750Y61250D02*
D03*
X49000Y61500D02*
D03*
X2250Y2250D02*
D03*
X49750D02*
D03*
D47*
X45250Y8450D02*
D03*
X20250Y20500D02*
D03*
X19500Y15500D02*
D03*
X11500Y17500D02*
D03*
X24250Y40000D02*
D03*
X20750Y52750D02*
D03*
X30250Y38000D02*
D03*
X34500Y16325D02*
D03*
X32500Y40039D02*
D03*
X41250Y39000D02*
D03*
X37000Y17250D02*
D03*
X30250Y56500D02*
D03*
X4500Y58250D02*
D03*
X10750Y54211D02*
D03*
M02*
