G04*
G04 #@! TF.GenerationSoftware,Altium Limited,Altium Designer,24.2.2 (26)*
G04*
G04 Layer_Color=128*
%FSLAX43Y43*%
%MOMM*%
G71*
G04*
G04 #@! TF.SameCoordinates,78AD72C9-59E1-4A50-B3D3-B96FA2B5B495*
G04*
G04*
G04 #@! TF.FilePolarity,Positive*
G04*
G01*
G75*
%ADD59C,0.127*%
D59*
X6675Y9075D02*
X7675D01*
X7175Y8575D02*
Y9575D01*
X6675Y11575D02*
X7675D01*
X7175Y11075D02*
Y12075D01*
X6550Y18000D02*
X7450D01*
X7000Y17550D02*
Y18450D01*
X6550Y20500D02*
X7450D01*
X7000Y20050D02*
Y20950D01*
X6550Y23000D02*
X7450D01*
X7000Y22550D02*
Y23450D01*
X6550Y25500D02*
X7450D01*
X7000Y25050D02*
Y25950D01*
X6550Y28000D02*
X7450D01*
X7000Y27550D02*
Y28450D01*
X6550Y30500D02*
X7450D01*
X7000Y30050D02*
Y30950D01*
X6550Y33000D02*
X7450D01*
X7000Y32550D02*
Y33450D01*
X6550Y35500D02*
X7450D01*
X7000Y35050D02*
Y35950D01*
X6550Y38000D02*
X7450D01*
X7000Y37550D02*
Y38450D01*
X6550Y40500D02*
X7450D01*
X7000Y40050D02*
Y40950D01*
X45100Y50700D02*
X46100D01*
X45600Y50200D02*
Y51200D01*
X45100Y53200D02*
X46100D01*
X45600Y52700D02*
Y53700D01*
X45125Y40625D02*
X46125D01*
X45625Y40125D02*
Y41125D01*
X45125Y43125D02*
X46125D01*
X45625Y42625D02*
Y43625D01*
X44325Y34175D02*
X45225D01*
X44775Y33725D02*
Y34625D01*
X44325Y31675D02*
X45225D01*
X44775Y31225D02*
Y32125D01*
X44325Y29175D02*
X45225D01*
X44775Y28725D02*
Y29625D01*
X44325Y26675D02*
X45225D01*
X44775Y26225D02*
Y27125D01*
X44325Y24175D02*
X45225D01*
X44775Y23725D02*
Y24625D01*
X44325Y21675D02*
X45225D01*
X44775Y21225D02*
Y22125D01*
X44325Y19175D02*
X45225D01*
X44775Y18725D02*
Y19625D01*
X44325Y16675D02*
X45225D01*
X44775Y16225D02*
Y17125D01*
X47005Y11950D02*
X47995D01*
X47500Y11455D02*
Y12445D01*
X42505Y11950D02*
X43495D01*
X43000Y11455D02*
Y12445D01*
X42505Y5450D02*
X43495D01*
X43000Y4955D02*
Y5945D01*
X47005Y5450D02*
X47995D01*
X47500Y4955D02*
Y5945D01*
X26525Y8425D02*
X27525D01*
X27025Y7925D02*
Y8925D01*
X24025Y8425D02*
X25025D01*
X24525Y7925D02*
Y8925D01*
X37025Y8275D02*
X38025D01*
X37525Y7775D02*
Y8775D01*
X34525Y8275D02*
X35525D01*
X35025Y7775D02*
Y8775D01*
X3905Y47150D02*
X4895D01*
X4400Y46655D02*
Y47645D01*
X8405Y47150D02*
X9395D01*
X8900Y46655D02*
Y47645D01*
X8405Y53650D02*
X9395D01*
X8900Y53155D02*
Y54145D01*
X3905Y53650D02*
X4895D01*
X4400Y53155D02*
Y54145D01*
X16075Y8175D02*
X17075D01*
X16575Y7675D02*
Y8675D01*
X13575Y8175D02*
X14575D01*
X14075Y7675D02*
Y8675D01*
X39092Y57575D02*
X39728D01*
X39410Y57257D02*
Y57893D01*
X41632Y57575D02*
X42268D01*
X41950Y57257D02*
Y57893D01*
X44173Y57575D02*
X44807D01*
X44490Y57257D02*
Y57893D01*
X46713Y57575D02*
X47347D01*
X47030Y57257D02*
Y57893D01*
X1250Y61250D02*
X4250D01*
X2750Y59750D02*
Y62750D01*
X47500Y61500D02*
X50500D01*
X49000Y60000D02*
Y63000D01*
X750Y2250D02*
X3750D01*
X2250Y750D02*
Y3750D01*
X48250Y2250D02*
X51250D01*
X49750Y750D02*
Y3750D01*
X44894Y8450D02*
X45606D01*
X45250Y8094D02*
Y8806D01*
X19894Y20500D02*
X20606D01*
X20250Y20144D02*
Y20856D01*
X19144Y15500D02*
X19856D01*
X19500Y15144D02*
Y15856D01*
X11144Y17500D02*
X11856D01*
X11500Y17144D02*
Y17856D01*
X23894Y40000D02*
X24606D01*
X24250Y39644D02*
Y40356D01*
X20394Y52750D02*
X21106D01*
X20750Y52394D02*
Y53106D01*
X29894Y38000D02*
X30606D01*
X30250Y37644D02*
Y38356D01*
X34144Y16325D02*
X34856D01*
X34500Y15969D02*
Y16681D01*
X32144Y40039D02*
X32856D01*
X32500Y39683D02*
Y40395D01*
X40894Y39000D02*
X41606D01*
X41250Y38644D02*
Y39356D01*
X36644Y17250D02*
X37356D01*
X37000Y16894D02*
Y17606D01*
X29894Y56500D02*
X30606D01*
X30250Y56144D02*
Y56856D01*
X4144Y58250D02*
X4856D01*
X4500Y57894D02*
Y58606D01*
X10394Y54211D02*
X11106D01*
X10750Y53855D02*
Y54567D01*
M02*
