G04*
G04 #@! TF.GenerationSoftware,Altium Limited,Altium Designer,24.2.2 (26)*
G04*
G04 Layer_Color=32768*
%FSLAX43Y43*%
%MOMM*%
G71*
G04*
G04 #@! TF.SameCoordinates,78AD72C9-59E1-4A50-B3D3-B96FA2B5B495*
G04*
G04*
G04 #@! TF.FilePolarity,Positive*
G04*
G01*
G75*
%ADD55C,0.050*%
%ADD56C,0.100*%
D55*
X42150Y4600D02*
Y12800D01*
X48350D01*
Y4600D02*
Y12800D01*
X42150Y4600D02*
X48350D01*
X13350Y17250D02*
Y22050D01*
Y17250D02*
X17150D01*
Y22050D01*
X13350D02*
X17150D01*
X11888Y56012D02*
X16188D01*
X11888Y53412D02*
X16188D01*
X11888D02*
Y56012D01*
X16188Y53412D02*
Y56012D01*
X32700Y14550D02*
Y17050D01*
X28300Y14550D02*
Y17050D01*
Y14550D02*
X32700D01*
X28300Y17050D02*
X32700D01*
X9750Y46300D02*
Y54500D01*
X3550Y46300D02*
X9750D01*
X3550D02*
Y54500D01*
X9750D01*
X37890Y56055D02*
Y59095D01*
X48550D01*
Y56055D02*
Y59095D01*
X37890Y56055D02*
X48550D01*
D56*
X45250Y8200D02*
Y9200D01*
X44750Y8700D02*
X45750D01*
X15250Y19250D02*
Y20250D01*
X14750Y19750D02*
X15750D01*
X14038Y54212D02*
Y55212D01*
X13538Y54712D02*
X14538D01*
X30000Y15800D02*
X31000D01*
X30500Y15300D02*
Y16300D01*
X6650Y49900D02*
Y50900D01*
X6150Y50400D02*
X7150D01*
M02*
