G04*
G04 #@! TF.GenerationSoftware,Altium Limited,Altium Designer,24.2.2 (26)*
G04*
G04 Layer_Color=255*
%FSLAX43Y43*%
%MOMM*%
G71*
G04*
G04 #@! TF.SameCoordinates,78AD72C9-59E1-4A50-B3D3-B96FA2B5B495*
G04*
G04*
G04 #@! TF.FilePolarity,Positive*
G04*
G01*
G75*
%ADD37C,1.550*%
%ADD38R,1.550X1.550*%
%ADD39C,1.400*%
%ADD40R,1.400X1.400*%
%ADD43R,1.550X1.550*%
%ADD49R,1.500X1.500*%
%ADD50C,1.500*%
%ADD51R,0.985X0.985*%
%ADD52C,0.985*%
%ADD53C,3.500*%
D37*
X7175Y9075D02*
D03*
X45600Y50700D02*
D03*
X45625Y40625D02*
D03*
X27025Y8425D02*
D03*
X37525Y8275D02*
D03*
X16575Y8175D02*
D03*
D38*
X7175Y11575D02*
D03*
X45600Y53200D02*
D03*
X45625Y43125D02*
D03*
D39*
X7000Y18000D02*
D03*
Y20500D02*
D03*
Y23000D02*
D03*
Y25500D02*
D03*
Y28000D02*
D03*
Y30500D02*
D03*
Y33000D02*
D03*
Y35500D02*
D03*
Y38000D02*
D03*
X44775Y34175D02*
D03*
Y31675D02*
D03*
Y29175D02*
D03*
Y26675D02*
D03*
Y24175D02*
D03*
Y21675D02*
D03*
Y19175D02*
D03*
D40*
X7000Y40500D02*
D03*
X44775Y16675D02*
D03*
D43*
X24525Y8425D02*
D03*
X35025Y8275D02*
D03*
X14075Y8175D02*
D03*
D49*
X47500Y11950D02*
D03*
X4400Y47150D02*
D03*
D50*
X43000Y11950D02*
D03*
Y5450D02*
D03*
X47500D02*
D03*
X8900Y47150D02*
D03*
Y53650D02*
D03*
X4400D02*
D03*
D51*
X39410Y57575D02*
D03*
D52*
X41950D02*
D03*
X44490D02*
D03*
X47030D02*
D03*
D53*
X2750Y61250D02*
D03*
X49000Y61500D02*
D03*
X2250Y2250D02*
D03*
X49750D02*
D03*
M02*
