G04*
G04 #@! TF.GenerationSoftware,Altium Limited,Altium Designer,24.2.2 (26)*
G04*
G04 Layer_Color=0*
%FSLAX43Y43*%
%MOMM*%
G71*
G04*
G04 #@! TF.SameCoordinates,78AD72C9-59E1-4A50-B3D3-B96FA2B5B495*
G04*
G04*
G04 #@! TF.FilePolarity,Positive*
G04*
G01*
G75*
%ADD56C,0.100*%
D56*
X6150Y10325D02*
X7150D01*
X6650Y9825D02*
Y10825D01*
X5975Y29250D02*
X6975D01*
X6475Y28750D02*
Y29750D01*
X8275Y58525D02*
X9275D01*
X8775Y58025D02*
Y59025D01*
X10712Y51987D02*
X11712D01*
X11212Y51487D02*
Y52487D01*
X13225Y51975D02*
X14225D01*
X13725Y51475D02*
Y52475D01*
X21300Y38700D02*
X22300D01*
X21800Y38200D02*
Y39200D01*
X44575Y51950D02*
X45575D01*
X45075Y51450D02*
Y52450D01*
X44600Y41875D02*
X45600D01*
X45100Y41375D02*
Y42375D01*
X44800Y25425D02*
X45800D01*
X45300Y24925D02*
Y25925D01*
X25775Y7400D02*
Y8400D01*
X25275Y7900D02*
X26275D01*
X15300Y14775D02*
X16300D01*
X15800Y14275D02*
Y15275D01*
X11975Y58650D02*
X12975D01*
X12475Y58150D02*
Y59150D01*
X11250Y49175D02*
X12250D01*
X11750Y48675D02*
Y49675D01*
X22050Y13350D02*
Y14350D01*
X21550Y13850D02*
X22550D01*
X26000Y13650D02*
X27000D01*
X26500Y13150D02*
Y14150D01*
X36275Y7250D02*
Y8250D01*
X35775Y7750D02*
X36775D01*
X36225Y14025D02*
Y15025D01*
X35725Y14525D02*
X36725D01*
X40225Y13950D02*
Y14950D01*
X39725Y14450D02*
X40725D01*
X26450Y24225D02*
X27450D01*
X26950Y23725D02*
Y24725D01*
X33125Y20125D02*
X34125D01*
X33625Y19625D02*
Y20625D01*
X26575Y54645D02*
Y55645D01*
X26075Y55145D02*
X27075D01*
X39550Y16950D02*
X40550D01*
X40050Y16450D02*
Y17450D01*
X15325Y7150D02*
Y8150D01*
X14825Y7650D02*
X15825D01*
M02*
