G04*
G04 #@! TF.GenerationSoftware,Altium Limited,Altium Designer,24.2.2 (26)*
G04*
G04 Layer_Color=8421504*
%FSLAX43Y43*%
%MOMM*%
G71*
G04*
G04 #@! TF.SameCoordinates,78AD72C9-59E1-4A50-B3D3-B96FA2B5B495*
G04*
G04*
G04 #@! TF.FilePolarity,Positive*
G04*
G01*
G75*
%ADD15R,1.307X0.906*%
%ADD16R,0.500X0.400*%
%ADD17R,1.200X1.200*%
%ADD18R,1.600X1.500*%
%ADD19R,1.012X1.208*%
%ADD20R,1.500X1.550*%
%ADD21R,1.208X1.012*%
%ADD22R,1.100X1.300*%
%ADD23R,0.906X1.307*%
%ADD24R,1.250X1.500*%
G04:AMPARAMS|DCode=25|XSize=1.004mm|YSize=3.182mm|CornerRadius=0.437mm|HoleSize=0mm|Usage=FLASHONLY|Rotation=90.000|XOffset=0mm|YOffset=0mm|HoleType=Round|Shape=RoundedRectangle|*
%AMROUNDEDRECTD25*
21,1,1.004,2.308,0,0,90.0*
21,1,0.131,3.182,0,0,90.0*
1,1,0.874,1.154,0.065*
1,1,0.874,1.154,-0.065*
1,1,0.874,-1.154,-0.065*
1,1,0.874,-1.154,0.065*
%
%ADD25ROUNDEDRECTD25*%
G04:AMPARAMS|DCode=26|XSize=1.004mm|YSize=0.872mm|CornerRadius=0.436mm|HoleSize=0mm|Usage=FLASHONLY|Rotation=90.000|XOffset=0mm|YOffset=0mm|HoleType=Round|Shape=RoundedRectangle|*
%AMROUNDEDRECTD26*
21,1,1.004,0.000,0,0,90.0*
21,1,0.132,0.872,0,0,90.0*
1,1,0.872,0.000,0.066*
1,1,0.872,0.000,-0.066*
1,1,0.872,0.000,-0.066*
1,1,0.872,0.000,0.066*
%
%ADD26ROUNDEDRECTD26*%
%ADD27R,0.872X1.004*%
%ADD28R,2.800X1.400*%
%ADD29R,1.330X1.330*%
%ADD30R,0.900X2.000*%
%ADD31R,2.000X0.900*%
D15*
X8775Y59301D02*
D03*
Y57749D02*
D03*
X21800Y37924D02*
D03*
Y39476D02*
D03*
X15800Y15551D02*
D03*
Y13999D02*
D03*
X11750Y49951D02*
D03*
Y48399D02*
D03*
D16*
X11212Y51587D02*
D03*
Y52387D02*
D03*
X13725Y52375D02*
D03*
Y51575D02*
D03*
X26500Y14050D02*
D03*
Y13250D02*
D03*
X40050Y17350D02*
D03*
Y16550D02*
D03*
D17*
X14250Y17950D02*
D03*
X16250D02*
D03*
D18*
X15250Y21200D02*
D03*
D19*
X12475Y57848D02*
D03*
Y59452D02*
D03*
D20*
X13138Y54712D02*
D03*
X14938D02*
D03*
D21*
X21248Y13850D02*
D03*
X22852D02*
D03*
D22*
X31550Y13175D02*
D03*
X29450D02*
D03*
D23*
X37001Y14525D02*
D03*
X35449D02*
D03*
X39449Y14450D02*
D03*
X41001D02*
D03*
D24*
X31550Y15800D02*
D03*
X29450D02*
D03*
D25*
X26950Y27520D02*
D03*
D26*
X29240Y20930D02*
D03*
X26950D02*
D03*
D27*
X24660D02*
D03*
D28*
X33625Y21425D02*
D03*
Y18825D02*
D03*
D29*
X27410Y51070D02*
D03*
X25575D02*
D03*
X23740D02*
D03*
X27410Y52905D02*
D03*
X25575D02*
D03*
X23740D02*
D03*
X27410Y54740D02*
D03*
X25575D02*
D03*
X23740D02*
D03*
D30*
X32290Y42895D02*
D03*
X31020D02*
D03*
X29750D02*
D03*
X28480D02*
D03*
X27210D02*
D03*
X25940D02*
D03*
X24670D02*
D03*
X23400D02*
D03*
X22130D02*
D03*
X20860D02*
D03*
D31*
X35075Y60405D02*
D03*
Y59135D02*
D03*
Y57865D02*
D03*
Y56595D02*
D03*
Y55325D02*
D03*
Y54055D02*
D03*
Y52785D02*
D03*
Y51515D02*
D03*
Y50245D02*
D03*
Y48975D02*
D03*
Y47705D02*
D03*
Y46435D02*
D03*
Y45165D02*
D03*
Y43895D02*
D03*
X18075D02*
D03*
Y45165D02*
D03*
Y46435D02*
D03*
Y47705D02*
D03*
Y48975D02*
D03*
Y50245D02*
D03*
Y51515D02*
D03*
Y52785D02*
D03*
Y54055D02*
D03*
Y55325D02*
D03*
Y56595D02*
D03*
Y57865D02*
D03*
Y59135D02*
D03*
Y60405D02*
D03*
M02*
