G04*
G04 #@! TF.GenerationSoftware,Altium Limited,Altium Designer,24.2.2 (26)*
G04*
G04 Layer_Color=16711935*
%FSLAX43Y43*%
%MOMM*%
G71*
G04*
G04 #@! TF.SameCoordinates,78AD72C9-59E1-4A50-B3D3-B96FA2B5B495*
G04*
G04*
G04 #@! TF.FilePolarity,Positive*
G04*
G01*
G75*
%ADD11C,0.200*%
G36*
X6852Y10248D02*
X6852D01*
X6850D01*
X6846D01*
X6840Y10247D01*
X6835Y10246D01*
X6828D01*
X6813Y10244D01*
X6796Y10241D01*
X6779Y10235D01*
X6765Y10230D01*
X6758Y10226D01*
X6753Y10221D01*
X6752Y10221D01*
X6749Y10217D01*
X6744Y10211D01*
X6740Y10204D01*
X6734Y10194D01*
X6730Y10183D01*
X6727Y10169D01*
X6726Y10154D01*
Y10148D01*
X6727Y10143D01*
X6728Y10135D01*
X6729Y10126D01*
X6731Y10117D01*
X6735Y10108D01*
X6740Y10098D01*
X6741Y10098D01*
X6742Y10095D01*
X6746Y10091D01*
X6750Y10086D01*
X6756Y10081D01*
X6763Y10075D01*
X6770Y10071D01*
X6779Y10067D01*
X6780D01*
X6784Y10065D01*
X6791Y10064D01*
X6799Y10062D01*
X6810Y10061D01*
X6824Y10060D01*
X6840Y10058D01*
X6860D01*
X7301D01*
Y9973D01*
X6864D01*
X6864D01*
X6861D01*
X6857D01*
X6852D01*
X6844Y9974D01*
X6837D01*
X6819Y9976D01*
X6799Y9977D01*
X6778Y9981D01*
X6758Y9987D01*
X6740Y9993D01*
X6739D01*
X6738Y9994D01*
X6732Y9997D01*
X6725Y10001D01*
X6715Y10008D01*
X6705Y10017D01*
X6693Y10027D01*
X6682Y10040D01*
X6673Y10055D01*
X6672Y10057D01*
X6669Y10062D01*
X6666Y10071D01*
X6662Y10083D01*
X6657Y10098D01*
X6654Y10114D01*
X6651Y10133D01*
X6650Y10153D01*
Y10161D01*
X6651Y10167D01*
X6652Y10174D01*
X6653Y10182D01*
X6656Y10201D01*
X6662Y10221D01*
X6670Y10243D01*
X6676Y10254D01*
X6682Y10264D01*
X6690Y10273D01*
X6698Y10282D01*
X6699Y10283D01*
X6700Y10284D01*
X6704Y10286D01*
X6707Y10289D01*
X6712Y10293D01*
X6718Y10296D01*
X6726Y10300D01*
X6734Y10305D01*
X6743Y10308D01*
X6754Y10312D01*
X6766Y10316D01*
X6779Y10319D01*
X6792Y10321D01*
X6808Y10324D01*
X6824Y10325D01*
X6841D01*
X6852Y10248D01*
D02*
G37*
G36*
X6977Y9869D02*
X6990D01*
X7005Y9868D01*
X7023Y9866D01*
X7042Y9865D01*
X7063Y9862D01*
X7085Y9858D01*
X7108Y9853D01*
X7130Y9848D01*
X7152Y9841D01*
X7173Y9833D01*
X7194Y9824D01*
X7213Y9814D01*
X7230Y9802D01*
X7231Y9801D01*
X7232Y9799D01*
X7236Y9795D01*
X7242Y9791D01*
X7247Y9785D01*
X7253Y9778D01*
X7260Y9768D01*
X7267Y9759D01*
X7273Y9748D01*
X7281Y9736D01*
X7286Y9722D01*
X7293Y9708D01*
X7297Y9693D01*
X7301Y9676D01*
X7303Y9658D01*
X7304Y9640D01*
Y9633D01*
X7303Y9627D01*
Y9620D01*
X7302Y9613D01*
X7298Y9596D01*
X7293Y9576D01*
X7286Y9556D01*
X7275Y9535D01*
X7269Y9525D01*
X7261Y9516D01*
X7260Y9515D01*
X7259Y9514D01*
X7256Y9511D01*
X7254Y9509D01*
X7249Y9504D01*
X7244Y9500D01*
X7231Y9490D01*
X7214Y9480D01*
X7194Y9471D01*
X7171Y9462D01*
X7145Y9457D01*
X7138Y9535D01*
X7139D01*
X7140Y9536D01*
X7146Y9537D01*
X7154Y9540D01*
X7164Y9544D01*
X7175Y9547D01*
X7186Y9553D01*
X7196Y9559D01*
X7205Y9566D01*
X7207Y9568D01*
X7210Y9571D01*
X7216Y9578D01*
X7222Y9587D01*
X7228Y9599D01*
X7233Y9612D01*
X7237Y9628D01*
X7239Y9645D01*
Y9651D01*
X7238Y9658D01*
X7236Y9667D01*
X7233Y9678D01*
X7230Y9689D01*
X7225Y9700D01*
X7218Y9711D01*
X7217Y9713D01*
X7213Y9718D01*
X7207Y9724D01*
X7197Y9732D01*
X7186Y9742D01*
X7173Y9752D01*
X7157Y9761D01*
X7138Y9770D01*
X7137D01*
X7135Y9771D01*
X7133Y9772D01*
X7129Y9774D01*
X7123Y9775D01*
X7117Y9777D01*
X7109Y9779D01*
X7100Y9780D01*
X7090Y9783D01*
X7079Y9785D01*
X7067Y9787D01*
X7054Y9788D01*
X7039Y9790D01*
X7024Y9791D01*
X7008Y9792D01*
X6991D01*
X6992Y9791D01*
X6998Y9787D01*
X7005Y9780D01*
X7014Y9772D01*
X7025Y9763D01*
X7036Y9751D01*
X7046Y9738D01*
X7055Y9723D01*
Y9722D01*
X7056Y9721D01*
X7059Y9716D01*
X7061Y9707D01*
X7066Y9696D01*
X7070Y9683D01*
X7073Y9669D01*
X7075Y9653D01*
X7076Y9636D01*
Y9629D01*
X7075Y9623D01*
X7074Y9616D01*
X7073Y9608D01*
X7072Y9599D01*
X7069Y9590D01*
X7062Y9569D01*
X7058Y9558D01*
X7051Y9547D01*
X7045Y9535D01*
X7037Y9523D01*
X7028Y9512D01*
X7018Y9502D01*
X7017Y9501D01*
X7015Y9499D01*
X7012Y9497D01*
X7008Y9494D01*
X7001Y9489D01*
X6995Y9485D01*
X6987Y9480D01*
X6977Y9474D01*
X6967Y9469D01*
X6956Y9464D01*
X6943Y9460D01*
X6930Y9455D01*
X6916Y9452D01*
X6901Y9449D01*
X6885Y9448D01*
X6868Y9447D01*
X6867D01*
X6865D01*
X6863D01*
X6858D01*
X6852Y9448D01*
X6847D01*
X6832Y9450D01*
X6815Y9453D01*
X6796Y9458D01*
X6776Y9464D01*
X6756Y9473D01*
X6755D01*
X6754Y9474D01*
X6752Y9476D01*
X6748Y9478D01*
X6739Y9484D01*
X6727Y9492D01*
X6714Y9502D01*
X6701Y9514D01*
X6688Y9529D01*
X6677Y9545D01*
Y9546D01*
X6676Y9547D01*
X6674Y9549D01*
X6673Y9553D01*
X6668Y9562D01*
X6664Y9574D01*
X6658Y9590D01*
X6655Y9608D01*
X6651Y9627D01*
X6650Y9648D01*
Y9653D01*
X6651Y9657D01*
Y9665D01*
X6652Y9673D01*
X6654Y9682D01*
X6656Y9694D01*
X6659Y9705D01*
X6663Y9718D01*
X6668Y9731D01*
X6673Y9743D01*
X6681Y9757D01*
X6689Y9770D01*
X6698Y9783D01*
X6709Y9796D01*
X6722Y9808D01*
X6723Y9809D01*
X6726Y9811D01*
X6729Y9814D01*
X6736Y9817D01*
X6744Y9823D01*
X6754Y9828D01*
X6766Y9833D01*
X6779Y9839D01*
X6794Y9845D01*
X6812Y9851D01*
X6831Y9855D01*
X6852Y9860D01*
X6877Y9865D01*
X6902Y9867D01*
X6930Y9869D01*
X6960Y9870D01*
X6961D01*
X6962D01*
X6964D01*
X6968D01*
X6977Y9869D01*
D02*
G37*
G36*
X6162Y30128D02*
X6174D01*
X6187Y30127D01*
X6201Y30126D01*
X6233Y30123D01*
X6266Y30118D01*
X6298Y30112D01*
X6313Y30107D01*
X6327Y30102D01*
X6328D01*
X6330Y30102D01*
X6334Y30100D01*
X6339Y30098D01*
X6345Y30095D01*
X6352Y30091D01*
X6368Y30082D01*
X6385Y30071D01*
X6404Y30058D01*
X6421Y30041D01*
X6437Y30023D01*
Y30022D01*
X6439Y30020D01*
X6441Y30017D01*
X6443Y30014D01*
X6445Y30008D01*
X6449Y30003D01*
X6453Y29995D01*
X6456Y29988D01*
X6463Y29970D01*
X6469Y29949D01*
X6473Y29926D01*
X6475Y29900D01*
Y29893D01*
X6474Y29888D01*
Y29881D01*
X6473Y29874D01*
X6469Y29857D01*
X6465Y29837D01*
X6457Y29817D01*
X6447Y29796D01*
X6441Y29786D01*
X6433Y29777D01*
X6432Y29776D01*
X6432Y29775D01*
X6429Y29772D01*
X6426Y29770D01*
X6421Y29766D01*
X6416Y29761D01*
X6403Y29752D01*
X6386Y29743D01*
X6366Y29734D01*
X6343Y29726D01*
X6316Y29721D01*
X6310Y29796D01*
X6310D01*
X6312Y29797D01*
X6314D01*
X6318Y29798D01*
X6328Y29801D01*
X6339Y29805D01*
X6352Y29809D01*
X6365Y29816D01*
X6377Y29823D01*
X6387Y29832D01*
X6388Y29833D01*
X6391Y29837D01*
X6395Y29844D01*
X6398Y29851D01*
X6403Y29861D01*
X6407Y29873D01*
X6409Y29887D01*
X6410Y29902D01*
Y29908D01*
X6409Y29915D01*
X6408Y29923D01*
X6407Y29933D01*
X6404Y29943D01*
X6400Y29955D01*
X6395Y29965D01*
X6394Y29966D01*
X6392Y29969D01*
X6388Y29975D01*
X6383Y29980D01*
X6376Y29988D01*
X6369Y29995D01*
X6360Y30003D01*
X6350Y30010D01*
X6349Y30011D01*
X6345Y30013D01*
X6338Y30016D01*
X6330Y30020D01*
X6319Y30025D01*
X6306Y30029D01*
X6291Y30034D01*
X6274Y30039D01*
X6273D01*
X6273Y30040D01*
X6270D01*
X6266Y30040D01*
X6257Y30042D01*
X6245Y30045D01*
X6230Y30047D01*
X6214Y30049D01*
X6197Y30050D01*
X6178Y30051D01*
X6177D01*
X6175D01*
X6170D01*
X6163D01*
X6164Y30050D01*
X6169Y30046D01*
X6175Y30040D01*
X6185Y30034D01*
X6194Y30025D01*
X6204Y30014D01*
X6214Y30001D01*
X6224Y29986D01*
X6224Y29984D01*
X6227Y29979D01*
X6231Y29970D01*
X6235Y29960D01*
X6239Y29946D01*
X6243Y29931D01*
X6246Y29915D01*
X6247Y29897D01*
Y29890D01*
X6246Y29884D01*
X6245Y29877D01*
X6244Y29869D01*
X6242Y29860D01*
X6239Y29851D01*
X6233Y29830D01*
X6228Y29819D01*
X6223Y29808D01*
X6216Y29795D01*
X6208Y29784D01*
X6199Y29773D01*
X6189Y29763D01*
X6188Y29762D01*
X6187Y29760D01*
X6184Y29758D01*
X6179Y29755D01*
X6173Y29750D01*
X6166Y29746D01*
X6158Y29741D01*
X6149Y29736D01*
X6138Y29731D01*
X6127Y29726D01*
X6114Y29722D01*
X6101Y29717D01*
X6087Y29713D01*
X6071Y29711D01*
X6055Y29709D01*
X6038Y29709D01*
X6037D01*
X6033D01*
X6028D01*
X6022Y29709D01*
X6014Y29710D01*
X6003Y29711D01*
X5993Y29713D01*
X5981Y29716D01*
X5957Y29722D01*
X5944Y29727D01*
X5930Y29733D01*
X5918Y29739D01*
X5905Y29747D01*
X5893Y29756D01*
X5881Y29766D01*
X5881Y29767D01*
X5879Y29769D01*
X5876Y29771D01*
X5872Y29776D01*
X5868Y29782D01*
X5862Y29789D01*
X5857Y29796D01*
X5851Y29806D01*
X5845Y29815D01*
X5841Y29826D01*
X5831Y29851D01*
X5827Y29864D01*
X5824Y29879D01*
X5822Y29893D01*
X5821Y29909D01*
Y29916D01*
X5822Y29920D01*
Y29925D01*
X5823Y29931D01*
X5826Y29947D01*
X5830Y29965D01*
X5836Y29984D01*
X5844Y30004D01*
X5856Y30023D01*
Y30024D01*
X5857Y30025D01*
X5859Y30028D01*
X5862Y30031D01*
X5869Y30040D01*
X5880Y30053D01*
X5893Y30065D01*
X5910Y30078D01*
X5930Y30090D01*
X5952Y30102D01*
X5953D01*
X5954Y30102D01*
X5958Y30104D01*
X5963Y30106D01*
X5969Y30108D01*
X5978Y30111D01*
X5987Y30113D01*
X5997Y30115D01*
X6009Y30118D01*
X6023Y30121D01*
X6038Y30123D01*
X6053Y30125D01*
X6071Y30126D01*
X6089Y30128D01*
X6110Y30129D01*
X6131D01*
X6132D01*
X6137D01*
X6143D01*
X6151D01*
X6162Y30128D01*
D02*
G37*
G36*
X6281Y29601D02*
X6288D01*
X6306Y29599D01*
X6326Y29598D01*
X6347Y29594D01*
X6367Y29588D01*
X6385Y29582D01*
X6386D01*
X6387Y29581D01*
X6393Y29578D01*
X6400Y29574D01*
X6410Y29567D01*
X6420Y29558D01*
X6432Y29548D01*
X6443Y29535D01*
X6452Y29520D01*
X6453Y29518D01*
X6456Y29513D01*
X6459Y29504D01*
X6463Y29492D01*
X6468Y29477D01*
X6471Y29461D01*
X6474Y29442D01*
X6475Y29422D01*
Y29414D01*
X6474Y29408D01*
X6473Y29401D01*
X6472Y29393D01*
X6469Y29374D01*
X6463Y29354D01*
X6455Y29332D01*
X6449Y29321D01*
X6443Y29311D01*
X6435Y29302D01*
X6427Y29293D01*
X6426Y29292D01*
X6425Y29291D01*
X6421Y29289D01*
X6418Y29286D01*
X6413Y29282D01*
X6407Y29279D01*
X6399Y29275D01*
X6391Y29270D01*
X6382Y29267D01*
X6371Y29263D01*
X6359Y29259D01*
X6346Y29256D01*
X6333Y29254D01*
X6317Y29251D01*
X6301Y29250D01*
X6284D01*
X6273Y29327D01*
X6273D01*
X6275D01*
X6279D01*
X6285Y29328D01*
X6290Y29329D01*
X6297D01*
X6312Y29331D01*
X6329Y29334D01*
X6346Y29340D01*
X6360Y29345D01*
X6367Y29349D01*
X6372Y29354D01*
X6373Y29354D01*
X6376Y29358D01*
X6381Y29364D01*
X6385Y29371D01*
X6391Y29381D01*
X6395Y29392D01*
X6398Y29406D01*
X6399Y29421D01*
Y29427D01*
X6398Y29432D01*
X6397Y29440D01*
X6396Y29449D01*
X6394Y29458D01*
X6390Y29467D01*
X6385Y29477D01*
X6384Y29477D01*
X6383Y29480D01*
X6379Y29484D01*
X6375Y29489D01*
X6369Y29494D01*
X6362Y29500D01*
X6355Y29504D01*
X6346Y29508D01*
X6345D01*
X6341Y29510D01*
X6334Y29511D01*
X6326Y29513D01*
X6315Y29514D01*
X6301Y29515D01*
X6285Y29517D01*
X6265D01*
X5824D01*
Y29602D01*
X6261D01*
X6261D01*
X6264D01*
X6268D01*
X6273D01*
X6281Y29601D01*
D02*
G37*
G36*
X8775Y59126D02*
X8774D01*
X8770D01*
X8765D01*
X8757Y59127D01*
X8749Y59128D01*
X8740Y59130D01*
X8731Y59132D01*
X8720Y59135D01*
X8720D01*
X8719Y59136D01*
X8713Y59138D01*
X8705Y59142D01*
X8694Y59147D01*
X8681Y59155D01*
X8666Y59164D01*
X8651Y59174D01*
X8635Y59187D01*
X8634D01*
X8634Y59189D01*
X8628Y59193D01*
X8620Y59202D01*
X8608Y59214D01*
X8594Y59228D01*
X8577Y59245D01*
X8559Y59266D01*
X8539Y59290D01*
X8538Y59291D01*
X8536Y59294D01*
X8531Y59300D01*
X8525Y59306D01*
X8518Y59315D01*
X8510Y59325D01*
X8500Y59335D01*
X8490Y59347D01*
X8468Y59370D01*
X8446Y59393D01*
X8435Y59404D01*
X8424Y59414D01*
X8414Y59424D01*
X8403Y59431D01*
X8402D01*
X8401Y59433D01*
X8399Y59435D01*
X8395Y59437D01*
X8385Y59443D01*
X8373Y59450D01*
X8358Y59457D01*
X8342Y59463D01*
X8325Y59467D01*
X8308Y59469D01*
X8307D01*
X8306D01*
X8301Y59468D01*
X8291Y59467D01*
X8281Y59464D01*
X8268Y59461D01*
X8255Y59454D01*
X8242Y59446D01*
X8230Y59435D01*
X8228Y59433D01*
X8224Y59428D01*
X8219Y59422D01*
X8213Y59412D01*
X8207Y59399D01*
X8202Y59384D01*
X8198Y59366D01*
X8197Y59347D01*
Y59341D01*
X8198Y59338D01*
X8199Y59327D01*
X8202Y59314D01*
X8205Y59300D01*
X8212Y59284D01*
X8220Y59269D01*
X8231Y59255D01*
X8233Y59254D01*
X8238Y59250D01*
X8245Y59244D01*
X8256Y59239D01*
X8269Y59232D01*
X8286Y59227D01*
X8304Y59223D01*
X8326Y59221D01*
X8317Y59141D01*
X8316D01*
X8314Y59142D01*
X8309D01*
X8303Y59143D01*
X8295Y59144D01*
X8287Y59146D01*
X8277Y59149D01*
X8267Y59152D01*
X8244Y59159D01*
X8222Y59170D01*
X8211Y59177D01*
X8200Y59185D01*
X8190Y59193D01*
X8181Y59203D01*
X8180Y59204D01*
X8179Y59205D01*
X8176Y59208D01*
X8173Y59213D01*
X8169Y59218D01*
X8166Y59225D01*
X8161Y59232D01*
X8156Y59242D01*
X8152Y59252D01*
X8147Y59263D01*
X8144Y59275D01*
X8140Y59288D01*
X8137Y59302D01*
X8134Y59316D01*
X8133Y59332D01*
X8132Y59349D01*
Y59358D01*
X8133Y59364D01*
X8134Y59372D01*
X8135Y59381D01*
X8137Y59391D01*
X8139Y59401D01*
X8145Y59426D01*
X8155Y59450D01*
X8160Y59462D01*
X8167Y59474D01*
X8175Y59485D01*
X8184Y59495D01*
X8185Y59496D01*
X8186Y59498D01*
X8190Y59499D01*
X8193Y59503D01*
X8198Y59508D01*
X8205Y59512D01*
X8211Y59517D01*
X8219Y59523D01*
X8237Y59532D01*
X8259Y59541D01*
X8270Y59545D01*
X8283Y59547D01*
X8296Y59548D01*
X8310Y59549D01*
X8312D01*
X8316D01*
X8324Y59548D01*
X8334Y59548D01*
X8345Y59546D01*
X8358Y59542D01*
X8372Y59538D01*
X8386Y59533D01*
X8388Y59532D01*
X8392Y59530D01*
X8400Y59526D01*
X8410Y59521D01*
X8421Y59513D01*
X8435Y59504D01*
X8449Y59493D01*
X8464Y59480D01*
X8466Y59478D01*
X8472Y59474D01*
X8476Y59469D01*
X8481Y59464D01*
X8487Y59459D01*
X8494Y59451D01*
X8501Y59444D01*
X8510Y59435D01*
X8519Y59426D01*
X8529Y59414D01*
X8539Y59402D01*
X8551Y59389D01*
X8563Y59375D01*
X8576Y59360D01*
X8577Y59359D01*
X8579Y59357D01*
X8582Y59353D01*
X8585Y59349D01*
X8591Y59343D01*
X8597Y59337D01*
X8609Y59322D01*
X8622Y59306D01*
X8636Y59291D01*
X8648Y59278D01*
X8653Y59273D01*
X8658Y59268D01*
X8659Y59267D01*
X8661Y59265D01*
X8665Y59261D01*
X8671Y59256D01*
X8677Y59252D01*
X8683Y59246D01*
X8699Y59235D01*
Y59550D01*
X8775D01*
Y59126D01*
D02*
G37*
G36*
Y58982D02*
X8642Y58898D01*
X8641D01*
X8639Y58896D01*
X8636Y58894D01*
X8633Y58891D01*
X8622Y58885D01*
X8610Y58876D01*
X8596Y58866D01*
X8581Y58856D01*
X8567Y58846D01*
X8554Y58837D01*
X8553Y58836D01*
X8549Y58833D01*
X8544Y58828D01*
X8537Y58822D01*
X8524Y58808D01*
X8517Y58800D01*
X8512Y58793D01*
X8511Y58792D01*
X8510Y58790D01*
X8508Y58787D01*
X8505Y58781D01*
X8502Y58776D01*
X8499Y58769D01*
X8495Y58754D01*
Y58753D01*
X8494Y58751D01*
Y58748D01*
X8493Y58743D01*
X8492Y58737D01*
Y58729D01*
X8491Y58719D01*
Y58610D01*
X8775D01*
Y58525D01*
X8135D01*
Y58822D01*
X8136Y58829D01*
Y58837D01*
X8137Y58857D01*
X8140Y58877D01*
X8143Y58899D01*
X8147Y58920D01*
X8150Y58930D01*
X8153Y58938D01*
Y58939D01*
X8154Y58940D01*
X8156Y58946D01*
X8160Y58954D01*
X8167Y58964D01*
X8175Y58975D01*
X8186Y58987D01*
X8199Y58998D01*
X8214Y59009D01*
X8215D01*
X8216Y59010D01*
X8221Y59014D01*
X8230Y59018D01*
X8242Y59023D01*
X8256Y59028D01*
X8273Y59033D01*
X8291Y59035D01*
X8310Y59036D01*
X8311D01*
X8313D01*
X8316D01*
X8321Y59035D01*
X8328D01*
X8334Y59034D01*
X8350Y59031D01*
X8368Y59025D01*
X8388Y59018D01*
X8407Y59007D01*
X8416Y58999D01*
X8426Y58992D01*
X8426Y58991D01*
X8427Y58990D01*
X8430Y58987D01*
X8433Y58984D01*
X8437Y58979D01*
X8440Y58973D01*
X8445Y58966D01*
X8450Y58959D01*
X8455Y58949D01*
X8460Y58939D01*
X8465Y58928D01*
X8470Y58916D01*
X8474Y58902D01*
X8478Y58888D01*
X8481Y58873D01*
X8484Y58856D01*
X8485Y58858D01*
X8487Y58862D01*
X8490Y58867D01*
X8494Y58874D01*
X8504Y58891D01*
X8511Y58899D01*
X8516Y58907D01*
X8518Y58909D01*
X8523Y58913D01*
X8530Y58921D01*
X8539Y58930D01*
X8552Y58940D01*
X8566Y58952D01*
X8583Y58964D01*
X8601Y58977D01*
X8775Y59087D01*
Y58982D01*
D02*
G37*
G36*
X11564Y51986D02*
X11574D01*
X11583Y51985D01*
X11595Y51984D01*
X11607Y51982D01*
X11634Y51978D01*
X11663Y51971D01*
X11693Y51962D01*
X11722Y51949D01*
X11722Y51948D01*
X11725Y51947D01*
X11729Y51945D01*
X11734Y51942D01*
X11740Y51938D01*
X11747Y51933D01*
X11764Y51921D01*
X11783Y51906D01*
X11801Y51887D01*
X11820Y51866D01*
X11835Y51841D01*
X11836Y51840D01*
X11837Y51837D01*
X11839Y51834D01*
X11842Y51829D01*
X11844Y51822D01*
X11847Y51814D01*
X11851Y51805D01*
X11855Y51795D01*
X11858Y51784D01*
X11862Y51772D01*
X11868Y51746D01*
X11872Y51716D01*
X11874Y51686D01*
Y51676D01*
X11873Y51670D01*
X11872Y51662D01*
X11871Y51651D01*
X11870Y51641D01*
X11868Y51629D01*
X11862Y51604D01*
X11854Y51577D01*
X11848Y51563D01*
X11842Y51550D01*
X11833Y51537D01*
X11825Y51524D01*
X11824Y51523D01*
X11823Y51521D01*
X11820Y51517D01*
X11816Y51513D01*
X11811Y51508D01*
X11805Y51502D01*
X11797Y51495D01*
X11790Y51488D01*
X11781Y51480D01*
X11770Y51473D01*
X11758Y51465D01*
X11746Y51457D01*
X11733Y51451D01*
X11719Y51443D01*
X11704Y51438D01*
X11687Y51432D01*
X11668Y51515D01*
X11669D01*
X11671Y51516D01*
X11674Y51518D01*
X11679Y51520D01*
X11685Y51522D01*
X11692Y51525D01*
X11707Y51532D01*
X11723Y51541D01*
X11740Y51552D01*
X11756Y51566D01*
X11770Y51581D01*
X11771Y51583D01*
X11775Y51589D01*
X11780Y51598D01*
X11786Y51610D01*
X11792Y51626D01*
X11797Y51643D01*
X11801Y51664D01*
X11802Y51687D01*
Y51695D01*
X11801Y51699D01*
Y51706D01*
X11800Y51713D01*
X11797Y51731D01*
X11794Y51750D01*
X11787Y51771D01*
X11778Y51792D01*
X11766Y51811D01*
Y51812D01*
X11764Y51813D01*
X11759Y51820D01*
X11752Y51828D01*
X11741Y51838D01*
X11727Y51850D01*
X11711Y51861D01*
X11692Y51871D01*
X11671Y51881D01*
X11670D01*
X11668Y51882D01*
X11665Y51883D01*
X11660Y51883D01*
X11655Y51885D01*
X11648Y51887D01*
X11633Y51890D01*
X11614Y51894D01*
X11594Y51897D01*
X11572Y51899D01*
X11548Y51900D01*
X11547D01*
X11544D01*
X11539D01*
X11534D01*
X11527Y51899D01*
X11519D01*
X11510Y51898D01*
X11500Y51897D01*
X11477Y51895D01*
X11453Y51890D01*
X11429Y51884D01*
X11405Y51877D01*
X11404D01*
X11403Y51876D01*
X11400Y51874D01*
X11395Y51872D01*
X11384Y51867D01*
X11371Y51859D01*
X11356Y51848D01*
X11341Y51835D01*
X11327Y51821D01*
X11314Y51803D01*
Y51802D01*
X11313Y51800D01*
X11311Y51797D01*
X11309Y51794D01*
X11307Y51789D01*
X11305Y51784D01*
X11299Y51771D01*
X11293Y51754D01*
X11289Y51736D01*
X11285Y51715D01*
X11284Y51694D01*
Y51687D01*
X11285Y51682D01*
Y51675D01*
X11286Y51669D01*
X11290Y51652D01*
X11294Y51633D01*
X11302Y51613D01*
X11312Y51593D01*
X11317Y51583D01*
X11325Y51574D01*
X11326Y51573D01*
X11327Y51572D01*
X11329Y51569D01*
X11332Y51565D01*
X11337Y51562D01*
X11342Y51557D01*
X11348Y51552D01*
X11355Y51547D01*
X11364Y51541D01*
X11373Y51535D01*
X11382Y51529D01*
X11393Y51524D01*
X11405Y51519D01*
X11418Y51515D01*
X11432Y51510D01*
X11447Y51506D01*
X11426Y51421D01*
X11425D01*
X11421Y51422D01*
X11415Y51424D01*
X11408Y51427D01*
X11400Y51430D01*
X11390Y51433D01*
X11378Y51438D01*
X11366Y51443D01*
X11341Y51456D01*
X11315Y51473D01*
X11302Y51483D01*
X11289Y51493D01*
X11278Y51504D01*
X11267Y51517D01*
X11266Y51518D01*
X11264Y51520D01*
X11262Y51525D01*
X11258Y51529D01*
X11254Y51537D01*
X11249Y51544D01*
X11244Y51554D01*
X11240Y51564D01*
X11234Y51577D01*
X11230Y51589D01*
X11225Y51603D01*
X11220Y51618D01*
X11217Y51634D01*
X11215Y51650D01*
X11213Y51668D01*
X11212Y51687D01*
Y51697D01*
X11213Y51704D01*
Y51712D01*
X11214Y51723D01*
X11216Y51734D01*
X11218Y51747D01*
X11222Y51773D01*
X11230Y51801D01*
X11240Y51829D01*
X11246Y51842D01*
X11254Y51855D01*
X11255Y51856D01*
X11256Y51858D01*
X11258Y51861D01*
X11262Y51865D01*
X11266Y51871D01*
X11271Y51877D01*
X11278Y51884D01*
X11285Y51892D01*
X11293Y51899D01*
X11302Y51908D01*
X11323Y51924D01*
X11348Y51940D01*
X11376Y51954D01*
X11377D01*
X11379Y51956D01*
X11384Y51957D01*
X11390Y51959D01*
X11397Y51961D01*
X11406Y51964D01*
X11416Y51968D01*
X11427Y51970D01*
X11440Y51973D01*
X11453Y51977D01*
X11482Y51981D01*
X11514Y51985D01*
X11548Y51987D01*
X11549D01*
X11552D01*
X11558D01*
X11564Y51986D01*
D02*
G37*
G36*
X11665Y51348D02*
X11673Y51347D01*
X11684Y51346D01*
X11694Y51344D01*
X11706Y51342D01*
X11730Y51335D01*
X11743Y51331D01*
X11757Y51325D01*
X11770Y51319D01*
X11782Y51310D01*
X11795Y51302D01*
X11806Y51292D01*
X11807Y51291D01*
X11808Y51289D01*
X11811Y51286D01*
X11815Y51282D01*
X11820Y51276D01*
X11825Y51269D01*
X11830Y51261D01*
X11836Y51252D01*
X11842Y51243D01*
X11846Y51232D01*
X11856Y51207D01*
X11860Y51194D01*
X11863Y51179D01*
X11865Y51164D01*
X11866Y51148D01*
Y51142D01*
X11865Y51137D01*
Y51133D01*
X11864Y51126D01*
X11861Y51111D01*
X11857Y51093D01*
X11851Y51074D01*
X11843Y51054D01*
X11832Y51035D01*
Y51034D01*
X11830Y51033D01*
X11828Y51030D01*
X11825Y51026D01*
X11818Y51017D01*
X11807Y51005D01*
X11794Y50993D01*
X11777Y50979D01*
X11758Y50967D01*
X11735Y50956D01*
X11734D01*
X11733Y50955D01*
X11729Y50953D01*
X11724Y50951D01*
X11718Y50950D01*
X11709Y50947D01*
X11700Y50945D01*
X11690Y50942D01*
X11678Y50939D01*
X11664Y50937D01*
X11649Y50935D01*
X11634Y50933D01*
X11616Y50931D01*
X11598Y50929D01*
X11577Y50928D01*
X11556D01*
X11555D01*
X11550D01*
X11544D01*
X11536D01*
X11526Y50929D01*
X11513D01*
X11500Y50930D01*
X11486Y50932D01*
X11454Y50935D01*
X11421Y50939D01*
X11390Y50946D01*
X11374Y50951D01*
X11360Y50955D01*
X11359D01*
X11357Y50956D01*
X11354Y50958D01*
X11348Y50960D01*
X11342Y50963D01*
X11335Y50966D01*
X11319Y50976D01*
X11302Y50987D01*
X11283Y51000D01*
X11266Y51016D01*
X11250Y51035D01*
Y51036D01*
X11248Y51037D01*
X11246Y51040D01*
X11244Y51044D01*
X11242Y51050D01*
X11238Y51055D01*
X11234Y51062D01*
X11231Y51070D01*
X11224Y51087D01*
X11218Y51109D01*
X11214Y51132D01*
X11212Y51158D01*
Y51165D01*
X11213Y51170D01*
Y51176D01*
X11214Y51184D01*
X11218Y51201D01*
X11222Y51221D01*
X11230Y51241D01*
X11240Y51261D01*
X11246Y51271D01*
X11254Y51281D01*
X11255Y51282D01*
X11256Y51283D01*
X11258Y51285D01*
X11261Y51288D01*
X11266Y51292D01*
X11271Y51296D01*
X11284Y51306D01*
X11301Y51315D01*
X11321Y51324D01*
X11344Y51332D01*
X11371Y51337D01*
X11378Y51261D01*
X11377D01*
X11375Y51260D01*
X11373D01*
X11369Y51259D01*
X11359Y51257D01*
X11348Y51253D01*
X11335Y51248D01*
X11322Y51242D01*
X11310Y51234D01*
X11300Y51225D01*
X11299Y51224D01*
X11296Y51221D01*
X11293Y51214D01*
X11289Y51207D01*
X11284Y51197D01*
X11280Y51184D01*
X11278Y51171D01*
X11277Y51156D01*
Y51149D01*
X11278Y51143D01*
X11279Y51135D01*
X11280Y51124D01*
X11283Y51114D01*
X11287Y51103D01*
X11293Y51093D01*
X11293Y51092D01*
X11295Y51088D01*
X11299Y51083D01*
X11305Y51077D01*
X11311Y51070D01*
X11318Y51062D01*
X11327Y51055D01*
X11337Y51048D01*
X11338Y51047D01*
X11342Y51045D01*
X11349Y51041D01*
X11357Y51037D01*
X11368Y51033D01*
X11381Y51028D01*
X11396Y51024D01*
X11413Y51019D01*
X11414D01*
X11415Y51018D01*
X11417D01*
X11421Y51017D01*
X11430Y51015D01*
X11442Y51013D01*
X11457Y51011D01*
X11473Y51009D01*
X11490Y51008D01*
X11509Y51007D01*
X11510D01*
X11513D01*
X11517D01*
X11525D01*
X11523Y51008D01*
X11518Y51012D01*
X11512Y51017D01*
X11502Y51024D01*
X11493Y51033D01*
X11483Y51044D01*
X11473Y51057D01*
X11464Y51072D01*
X11463Y51074D01*
X11460Y51079D01*
X11456Y51087D01*
X11452Y51098D01*
X11448Y51111D01*
X11444Y51126D01*
X11441Y51143D01*
X11440Y51160D01*
Y51168D01*
X11441Y51173D01*
X11442Y51181D01*
X11443Y51188D01*
X11445Y51197D01*
X11448Y51207D01*
X11454Y51228D01*
X11459Y51239D01*
X11464Y51250D01*
X11471Y51262D01*
X11479Y51273D01*
X11488Y51284D01*
X11498Y51295D01*
X11499Y51295D01*
X11501Y51297D01*
X11503Y51299D01*
X11508Y51303D01*
X11514Y51307D01*
X11521Y51312D01*
X11529Y51317D01*
X11538Y51321D01*
X11549Y51327D01*
X11560Y51332D01*
X11573Y51336D01*
X11586Y51341D01*
X11600Y51344D01*
X11616Y51346D01*
X11632Y51348D01*
X11649Y51349D01*
X11650D01*
X11654D01*
X11659D01*
X11665Y51348D01*
D02*
G37*
G36*
X13714Y52830D02*
X13214D01*
X13215Y52829D01*
X13218Y52825D01*
X13224Y52819D01*
X13230Y52810D01*
X13239Y52800D01*
X13248Y52787D01*
X13258Y52772D01*
X13268Y52755D01*
Y52754D01*
X13269Y52753D01*
X13273Y52748D01*
X13278Y52739D01*
X13283Y52728D01*
X13290Y52715D01*
X13296Y52701D01*
X13302Y52687D01*
X13308Y52673D01*
X13232D01*
Y52674D01*
X13230Y52676D01*
X13229Y52680D01*
X13227Y52684D01*
X13224Y52690D01*
X13220Y52696D01*
X13211Y52712D01*
X13201Y52730D01*
X13188Y52749D01*
X13173Y52768D01*
X13157Y52788D01*
X13156Y52789D01*
X13155Y52790D01*
X13153Y52792D01*
X13150Y52796D01*
X13141Y52804D01*
X13130Y52815D01*
X13117Y52827D01*
X13102Y52839D01*
X13087Y52849D01*
X13071Y52858D01*
Y52909D01*
X13714D01*
Y52830D01*
D02*
G37*
G36*
X13516Y52540D02*
X13522Y52538D01*
X13529Y52535D01*
X13537Y52533D01*
X13547Y52529D01*
X13559Y52524D01*
X13571Y52519D01*
X13597Y52506D01*
X13622Y52489D01*
X13635Y52479D01*
X13648Y52469D01*
X13659Y52458D01*
X13670Y52445D01*
X13671Y52444D01*
X13673Y52442D01*
X13675Y52437D01*
X13679Y52433D01*
X13683Y52425D01*
X13688Y52418D01*
X13693Y52408D01*
X13697Y52398D01*
X13703Y52385D01*
X13707Y52373D01*
X13712Y52359D01*
X13717Y52344D01*
X13720Y52328D01*
X13722Y52312D01*
X13724Y52294D01*
X13725Y52275D01*
Y52265D01*
X13724Y52258D01*
Y52250D01*
X13723Y52239D01*
X13721Y52228D01*
X13719Y52215D01*
X13715Y52189D01*
X13707Y52161D01*
X13697Y52133D01*
X13691Y52120D01*
X13683Y52107D01*
X13682Y52106D01*
X13682Y52104D01*
X13679Y52101D01*
X13675Y52097D01*
X13671Y52091D01*
X13666Y52085D01*
X13659Y52078D01*
X13652Y52070D01*
X13644Y52063D01*
X13635Y52055D01*
X13614Y52038D01*
X13589Y52022D01*
X13561Y52008D01*
X13560D01*
X13558Y52006D01*
X13553Y52006D01*
X13547Y52003D01*
X13540Y52001D01*
X13531Y51998D01*
X13521Y51994D01*
X13510Y51992D01*
X13498Y51989D01*
X13484Y51985D01*
X13455Y51981D01*
X13423Y51977D01*
X13389Y51975D01*
X13388D01*
X13385D01*
X13379D01*
X13373Y51976D01*
X13364D01*
X13354Y51977D01*
X13342Y51978D01*
X13330Y51980D01*
X13303Y51984D01*
X13274Y51991D01*
X13244Y52000D01*
X13216Y52013D01*
X13215Y52014D01*
X13212Y52015D01*
X13208Y52017D01*
X13204Y52020D01*
X13197Y52024D01*
X13190Y52029D01*
X13173Y52041D01*
X13155Y52056D01*
X13136Y52075D01*
X13118Y52096D01*
X13102Y52121D01*
X13101Y52122D01*
X13100Y52125D01*
X13098Y52128D01*
X13095Y52133D01*
X13093Y52140D01*
X13090Y52148D01*
X13086Y52157D01*
X13082Y52167D01*
X13079Y52178D01*
X13075Y52190D01*
X13069Y52216D01*
X13065Y52246D01*
X13063Y52276D01*
Y52286D01*
X13064Y52292D01*
X13065Y52300D01*
X13066Y52311D01*
X13067Y52321D01*
X13069Y52333D01*
X13075Y52358D01*
X13083Y52385D01*
X13089Y52399D01*
X13095Y52412D01*
X13104Y52425D01*
X13112Y52438D01*
X13113Y52439D01*
X13114Y52441D01*
X13117Y52445D01*
X13121Y52449D01*
X13126Y52454D01*
X13132Y52460D01*
X13140Y52467D01*
X13147Y52474D01*
X13156Y52482D01*
X13167Y52489D01*
X13179Y52497D01*
X13191Y52505D01*
X13204Y52511D01*
X13218Y52519D01*
X13233Y52524D01*
X13250Y52530D01*
X13269Y52447D01*
X13268D01*
X13266Y52446D01*
X13263Y52444D01*
X13258Y52442D01*
X13253Y52440D01*
X13245Y52437D01*
X13230Y52430D01*
X13214Y52421D01*
X13197Y52410D01*
X13181Y52396D01*
X13167Y52381D01*
X13166Y52379D01*
X13162Y52373D01*
X13157Y52364D01*
X13151Y52352D01*
X13145Y52336D01*
X13140Y52319D01*
X13136Y52298D01*
X13135Y52275D01*
Y52267D01*
X13136Y52263D01*
Y52256D01*
X13137Y52249D01*
X13140Y52231D01*
X13143Y52212D01*
X13150Y52191D01*
X13159Y52170D01*
X13171Y52151D01*
Y52150D01*
X13173Y52149D01*
X13178Y52142D01*
X13185Y52134D01*
X13196Y52124D01*
X13210Y52112D01*
X13226Y52101D01*
X13245Y52091D01*
X13266Y52081D01*
X13267D01*
X13269Y52080D01*
X13272Y52079D01*
X13277Y52079D01*
X13282Y52077D01*
X13289Y52075D01*
X13304Y52072D01*
X13323Y52068D01*
X13343Y52065D01*
X13365Y52063D01*
X13389Y52062D01*
X13390D01*
X13393D01*
X13398D01*
X13403D01*
X13410Y52063D01*
X13418D01*
X13427Y52064D01*
X13437Y52065D01*
X13460Y52067D01*
X13484Y52072D01*
X13508Y52078D01*
X13532Y52085D01*
X13533D01*
X13535Y52086D01*
X13537Y52088D01*
X13542Y52090D01*
X13553Y52095D01*
X13566Y52104D01*
X13581Y52114D01*
X13597Y52127D01*
X13610Y52141D01*
X13623Y52159D01*
Y52160D01*
X13624Y52162D01*
X13626Y52165D01*
X13628Y52168D01*
X13630Y52173D01*
X13633Y52178D01*
X13638Y52191D01*
X13644Y52208D01*
X13648Y52226D01*
X13652Y52247D01*
X13653Y52268D01*
Y52275D01*
X13652Y52280D01*
Y52287D01*
X13651Y52293D01*
X13647Y52310D01*
X13643Y52329D01*
X13635Y52349D01*
X13625Y52369D01*
X13620Y52379D01*
X13612Y52388D01*
X13611Y52389D01*
X13610Y52390D01*
X13608Y52393D01*
X13605Y52397D01*
X13600Y52400D01*
X13595Y52405D01*
X13589Y52410D01*
X13582Y52415D01*
X13573Y52421D01*
X13564Y52427D01*
X13555Y52433D01*
X13544Y52438D01*
X13532Y52443D01*
X13519Y52447D01*
X13505Y52452D01*
X13490Y52456D01*
X13511Y52541D01*
X13512D01*
X13516Y52540D01*
D02*
G37*
G36*
X22440Y38403D02*
X22439Y38396D01*
Y38388D01*
X22438Y38368D01*
X22435Y38348D01*
X22432Y38326D01*
X22428Y38305D01*
X22425Y38295D01*
X22422Y38287D01*
Y38286D01*
X22421Y38285D01*
X22419Y38279D01*
X22415Y38271D01*
X22408Y38261D01*
X22400Y38250D01*
X22389Y38238D01*
X22376Y38227D01*
X22361Y38216D01*
X22360D01*
X22359Y38215D01*
X22354Y38211D01*
X22345Y38207D01*
X22333Y38202D01*
X22319Y38197D01*
X22302Y38192D01*
X22284Y38190D01*
X22265Y38189D01*
X22264D01*
X22262D01*
X22259D01*
X22254Y38190D01*
X22247D01*
X22241Y38191D01*
X22225Y38194D01*
X22207Y38200D01*
X22187Y38207D01*
X22168Y38218D01*
X22159Y38226D01*
X22149Y38233D01*
X22149Y38234D01*
X22148Y38235D01*
X22145Y38238D01*
X22142Y38241D01*
X22138Y38246D01*
X22135Y38252D01*
X22130Y38259D01*
X22125Y38266D01*
X22120Y38276D01*
X22115Y38286D01*
X22110Y38297D01*
X22105Y38309D01*
X22101Y38323D01*
X22097Y38337D01*
X22094Y38352D01*
X22091Y38369D01*
X22090Y38367D01*
X22088Y38363D01*
X22085Y38358D01*
X22081Y38351D01*
X22071Y38334D01*
X22064Y38326D01*
X22059Y38318D01*
X22057Y38316D01*
X22052Y38312D01*
X22045Y38304D01*
X22036Y38295D01*
X22023Y38285D01*
X22009Y38273D01*
X21992Y38261D01*
X21974Y38248D01*
X21800Y38138D01*
Y38243D01*
X21933Y38327D01*
X21934D01*
X21936Y38329D01*
X21939Y38331D01*
X21942Y38334D01*
X21953Y38340D01*
X21965Y38349D01*
X21979Y38359D01*
X21994Y38369D01*
X22008Y38379D01*
X22021Y38388D01*
X22022Y38389D01*
X22026Y38392D01*
X22031Y38397D01*
X22038Y38403D01*
X22051Y38417D01*
X22058Y38424D01*
X22063Y38432D01*
X22064Y38433D01*
X22065Y38435D01*
X22067Y38438D01*
X22070Y38444D01*
X22073Y38449D01*
X22076Y38456D01*
X22080Y38471D01*
Y38472D01*
X22081Y38473D01*
Y38477D01*
X22082Y38482D01*
X22083Y38488D01*
Y38496D01*
X22084Y38506D01*
Y38615D01*
X21800D01*
Y38700D01*
X22440D01*
Y38403D01*
D02*
G37*
G36*
X22431Y37668D02*
X22370D01*
X22369Y37669D01*
X22367Y37671D01*
X22363Y37675D01*
X22357Y37678D01*
X22351Y37684D01*
X22344Y37691D01*
X22334Y37699D01*
X22323Y37707D01*
X22312Y37715D01*
X22299Y37726D01*
X22284Y37736D01*
X22270Y37746D01*
X22253Y37757D01*
X22235Y37768D01*
X22216Y37779D01*
X22197Y37790D01*
X22196Y37791D01*
X22192Y37793D01*
X22186Y37796D01*
X22178Y37800D01*
X22168Y37805D01*
X22157Y37811D01*
X22144Y37817D01*
X22129Y37824D01*
X22112Y37831D01*
X22096Y37839D01*
X22077Y37847D01*
X22058Y37854D01*
X22018Y37869D01*
X21976Y37883D01*
X21975D01*
X21972Y37884D01*
X21967Y37885D01*
X21962Y37886D01*
X21954Y37888D01*
X21945Y37890D01*
X21935Y37893D01*
X21924Y37895D01*
X21911Y37897D01*
X21897Y37900D01*
X21867Y37905D01*
X21835Y37910D01*
X21800Y37912D01*
Y37993D01*
X21801D01*
X21804D01*
X21807D01*
X21813Y37992D01*
X21820D01*
X21830Y37991D01*
X21840Y37990D01*
X21851Y37989D01*
X21864Y37987D01*
X21877Y37985D01*
X21892Y37983D01*
X21908Y37980D01*
X21925Y37977D01*
X21943Y37973D01*
X21981Y37964D01*
X21982D01*
X21986Y37963D01*
X21991Y37961D01*
X22000Y37959D01*
X22009Y37956D01*
X22020Y37952D01*
X22033Y37948D01*
X22047Y37943D01*
X22063Y37937D01*
X22078Y37932D01*
X22113Y37918D01*
X22150Y37901D01*
X22187Y37883D01*
X22188Y37882D01*
X22192Y37880D01*
X22197Y37877D01*
X22204Y37873D01*
X22212Y37869D01*
X22223Y37862D01*
X22234Y37856D01*
X22246Y37848D01*
X22272Y37831D01*
X22300Y37812D01*
X22329Y37791D01*
X22356Y37769D01*
Y38082D01*
X22431D01*
Y37668D01*
D02*
G37*
G36*
X45277Y51873D02*
X45277D01*
X45275D01*
X45271D01*
X45265Y51872D01*
X45260Y51871D01*
X45253D01*
X45238Y51869D01*
X45221Y51866D01*
X45204Y51860D01*
X45190Y51855D01*
X45183Y51851D01*
X45178Y51846D01*
X45177Y51846D01*
X45174Y51842D01*
X45169Y51836D01*
X45165Y51829D01*
X45159Y51819D01*
X45155Y51808D01*
X45152Y51794D01*
X45151Y51779D01*
Y51773D01*
X45152Y51768D01*
X45153Y51760D01*
X45154Y51751D01*
X45156Y51742D01*
X45160Y51733D01*
X45165Y51723D01*
X45166Y51723D01*
X45167Y51720D01*
X45171Y51716D01*
X45175Y51711D01*
X45181Y51706D01*
X45188Y51700D01*
X45195Y51696D01*
X45204Y51692D01*
X45205D01*
X45209Y51690D01*
X45216Y51689D01*
X45224Y51687D01*
X45235Y51686D01*
X45249Y51685D01*
X45265Y51683D01*
X45285D01*
X45726D01*
Y51598D01*
X45289D01*
X45289D01*
X45286D01*
X45282D01*
X45277D01*
X45269Y51599D01*
X45262D01*
X45244Y51601D01*
X45224Y51602D01*
X45203Y51606D01*
X45183Y51612D01*
X45165Y51618D01*
X45164D01*
X45163Y51619D01*
X45157Y51622D01*
X45150Y51626D01*
X45140Y51633D01*
X45130Y51642D01*
X45118Y51652D01*
X45107Y51665D01*
X45098Y51680D01*
X45097Y51682D01*
X45094Y51687D01*
X45091Y51696D01*
X45087Y51708D01*
X45082Y51723D01*
X45079Y51739D01*
X45076Y51758D01*
X45075Y51778D01*
Y51786D01*
X45076Y51792D01*
X45077Y51799D01*
X45078Y51807D01*
X45081Y51826D01*
X45087Y51846D01*
X45095Y51868D01*
X45101Y51879D01*
X45107Y51889D01*
X45115Y51898D01*
X45123Y51907D01*
X45124Y51908D01*
X45125Y51909D01*
X45129Y51911D01*
X45132Y51914D01*
X45137Y51918D01*
X45143Y51921D01*
X45151Y51925D01*
X45159Y51930D01*
X45168Y51933D01*
X45179Y51937D01*
X45191Y51941D01*
X45203Y51944D01*
X45217Y51946D01*
X45233Y51949D01*
X45249Y51950D01*
X45266D01*
X45277Y51873D01*
D02*
G37*
G36*
X45260Y51409D02*
X45259D01*
X45257D01*
X45254Y51408D01*
X45250Y51407D01*
X45240Y51405D01*
X45226Y51401D01*
X45212Y51395D01*
X45196Y51388D01*
X45182Y51379D01*
X45169Y51368D01*
X45168Y51366D01*
X45165Y51362D01*
X45160Y51355D01*
X45154Y51344D01*
X45149Y51333D01*
X45144Y51319D01*
X45141Y51304D01*
X45140Y51286D01*
Y51281D01*
X45141Y51277D01*
X45142Y51266D01*
X45145Y51253D01*
X45150Y51237D01*
X45157Y51221D01*
X45168Y51205D01*
X45175Y51197D01*
X45182Y51190D01*
X45183Y51189D01*
X45184Y51188D01*
X45187Y51186D01*
X45190Y51184D01*
X45200Y51177D01*
X45213Y51170D01*
X45228Y51163D01*
X45248Y51157D01*
X45271Y51152D01*
X45283Y51150D01*
X45296D01*
X45297D01*
X45299D01*
X45302D01*
X45307Y51151D01*
X45313D01*
X45319Y51152D01*
X45334Y51155D01*
X45351Y51160D01*
X45369Y51166D01*
X45386Y51175D01*
X45401Y51188D01*
X45402D01*
X45403Y51190D01*
X45408Y51195D01*
X45414Y51203D01*
X45422Y51214D01*
X45428Y51229D01*
X45435Y51245D01*
X45439Y51265D01*
X45441Y51276D01*
Y51294D01*
X45440Y51301D01*
X45439Y51310D01*
X45436Y51321D01*
X45434Y51332D01*
X45429Y51344D01*
X45424Y51356D01*
X45423Y51357D01*
X45421Y51361D01*
X45416Y51367D01*
X45412Y51374D01*
X45405Y51381D01*
X45397Y51389D01*
X45388Y51397D01*
X45378Y51404D01*
X45388Y51478D01*
X45718Y51416D01*
Y51098D01*
X45643D01*
Y51354D01*
X45470Y51388D01*
X45471Y51387D01*
X45472Y51385D01*
X45473Y51382D01*
X45476Y51378D01*
X45479Y51372D01*
X45483Y51366D01*
X45490Y51351D01*
X45498Y51332D01*
X45504Y51312D01*
X45509Y51290D01*
X45510Y51279D01*
Y51258D01*
X45510Y51253D01*
X45509Y51245D01*
X45508Y51237D01*
X45506Y51228D01*
X45503Y51218D01*
X45497Y51196D01*
X45492Y51184D01*
X45485Y51172D01*
X45479Y51160D01*
X45472Y51147D01*
X45462Y51136D01*
X45452Y51125D01*
X45451Y51124D01*
X45449Y51123D01*
X45447Y51120D01*
X45442Y51116D01*
X45436Y51111D01*
X45429Y51107D01*
X45421Y51101D01*
X45412Y51096D01*
X45401Y51091D01*
X45390Y51086D01*
X45377Y51081D01*
X45364Y51076D01*
X45350Y51073D01*
X45335Y51070D01*
X45319Y51068D01*
X45302Y51067D01*
X45301D01*
X45299D01*
X45294D01*
X45288Y51068D01*
X45280Y51069D01*
X45272Y51070D01*
X45262Y51072D01*
X45252Y51074D01*
X45228Y51079D01*
X45203Y51088D01*
X45190Y51094D01*
X45178Y51101D01*
X45165Y51109D01*
X45153Y51118D01*
X45152Y51119D01*
X45149Y51121D01*
X45145Y51124D01*
X45141Y51129D01*
X45135Y51135D01*
X45128Y51143D01*
X45121Y51152D01*
X45114Y51162D01*
X45106Y51173D01*
X45100Y51186D01*
X45093Y51200D01*
X45087Y51215D01*
X45082Y51231D01*
X45079Y51248D01*
X45076Y51267D01*
X45075Y51286D01*
Y51294D01*
X45076Y51301D01*
X45077Y51308D01*
X45078Y51317D01*
X45079Y51327D01*
X45081Y51337D01*
X45087Y51360D01*
X45095Y51383D01*
X45101Y51395D01*
X45107Y51407D01*
X45115Y51418D01*
X45123Y51429D01*
X45124Y51430D01*
X45125Y51432D01*
X45129Y51434D01*
X45132Y51438D01*
X45137Y51442D01*
X45142Y51447D01*
X45150Y51453D01*
X45158Y51457D01*
X45167Y51463D01*
X45177Y51468D01*
X45199Y51478D01*
X45225Y51487D01*
X45239Y51490D01*
X45253Y51491D01*
X45260Y51409D01*
D02*
G37*
G36*
X45302Y41798D02*
X45302D01*
X45300D01*
X45296D01*
X45290Y41797D01*
X45285Y41796D01*
X45278D01*
X45263Y41794D01*
X45246Y41791D01*
X45229Y41785D01*
X45215Y41780D01*
X45208Y41776D01*
X45203Y41771D01*
X45202Y41771D01*
X45199Y41767D01*
X45194Y41761D01*
X45190Y41754D01*
X45184Y41744D01*
X45180Y41733D01*
X45177Y41719D01*
X45176Y41704D01*
Y41698D01*
X45177Y41693D01*
X45178Y41685D01*
X45180Y41676D01*
X45181Y41667D01*
X45185Y41658D01*
X45190Y41648D01*
X45191Y41648D01*
X45192Y41645D01*
X45196Y41641D01*
X45200Y41636D01*
X45206Y41631D01*
X45213Y41625D01*
X45220Y41621D01*
X45229Y41617D01*
X45230D01*
X45234Y41615D01*
X45241Y41614D01*
X45249Y41612D01*
X45260Y41611D01*
X45274Y41610D01*
X45290Y41608D01*
X45310D01*
X45751D01*
Y41523D01*
X45314D01*
X45314D01*
X45311D01*
X45307D01*
X45302D01*
X45294Y41524D01*
X45287D01*
X45269Y41526D01*
X45249Y41527D01*
X45228Y41531D01*
X45208Y41537D01*
X45190Y41543D01*
X45189D01*
X45188Y41544D01*
X45182Y41547D01*
X45175Y41551D01*
X45165Y41558D01*
X45155Y41567D01*
X45143Y41577D01*
X45132Y41590D01*
X45123Y41605D01*
X45122Y41607D01*
X45119Y41612D01*
X45116Y41621D01*
X45112Y41633D01*
X45107Y41648D01*
X45104Y41664D01*
X45101Y41683D01*
X45100Y41703D01*
Y41711D01*
X45101Y41717D01*
X45102Y41724D01*
X45103Y41732D01*
X45106Y41751D01*
X45112Y41771D01*
X45120Y41793D01*
X45126Y41804D01*
X45132Y41814D01*
X45140Y41823D01*
X45148Y41832D01*
X45149Y41833D01*
X45150Y41834D01*
X45154Y41836D01*
X45157Y41839D01*
X45162Y41843D01*
X45168Y41846D01*
X45176Y41850D01*
X45184Y41855D01*
X45193Y41858D01*
X45204Y41862D01*
X45216Y41866D01*
X45229Y41869D01*
X45242Y41871D01*
X45258Y41874D01*
X45274Y41875D01*
X45291D01*
X45302Y41798D01*
D02*
G37*
G36*
X45129Y41427D02*
X45137Y41426D01*
X45146Y41424D01*
X45155Y41422D01*
X45166Y41418D01*
X45167D01*
X45167Y41417D01*
X45173Y41416D01*
X45181Y41412D01*
X45192Y41406D01*
X45205Y41399D01*
X45220Y41390D01*
X45235Y41379D01*
X45251Y41367D01*
X45252D01*
X45253Y41365D01*
X45258Y41360D01*
X45266Y41352D01*
X45278Y41340D01*
X45292Y41326D01*
X45309Y41308D01*
X45327Y41287D01*
X45347Y41264D01*
X45348Y41263D01*
X45351Y41259D01*
X45355Y41254D01*
X45361Y41247D01*
X45368Y41239D01*
X45376Y41229D01*
X45386Y41219D01*
X45396Y41207D01*
X45418Y41183D01*
X45440Y41160D01*
X45451Y41149D01*
X45462Y41139D01*
X45473Y41130D01*
X45483Y41122D01*
X45484D01*
X45485Y41121D01*
X45487Y41119D01*
X45491Y41117D01*
X45501Y41110D01*
X45513Y41103D01*
X45528Y41097D01*
X45544Y41090D01*
X45561Y41086D01*
X45578Y41085D01*
X45579D01*
X45580D01*
X45585Y41085D01*
X45595Y41086D01*
X45605Y41089D01*
X45618Y41093D01*
X45631Y41099D01*
X45644Y41108D01*
X45657Y41119D01*
X45658Y41121D01*
X45662Y41125D01*
X45667Y41132D01*
X45673Y41142D01*
X45679Y41155D01*
X45684Y41170D01*
X45688Y41187D01*
X45689Y41207D01*
Y41212D01*
X45688Y41216D01*
X45687Y41227D01*
X45684Y41240D01*
X45681Y41254D01*
X45674Y41269D01*
X45666Y41284D01*
X45655Y41298D01*
X45653Y41300D01*
X45648Y41304D01*
X45641Y41309D01*
X45630Y41315D01*
X45617Y41321D01*
X45600Y41327D01*
X45582Y41330D01*
X45560Y41332D01*
X45569Y41413D01*
X45570D01*
X45572Y41412D01*
X45577D01*
X45584Y41411D01*
X45591Y41409D01*
X45599Y41407D01*
X45609Y41404D01*
X45620Y41402D01*
X45642Y41394D01*
X45664Y41383D01*
X45675Y41377D01*
X45686Y41368D01*
X45696Y41360D01*
X45706Y41351D01*
X45707Y41350D01*
X45707Y41348D01*
X45710Y41345D01*
X45713Y41341D01*
X45717Y41335D01*
X45720Y41329D01*
X45725Y41321D01*
X45730Y41312D01*
X45734Y41302D01*
X45739Y41291D01*
X45743Y41279D01*
X45746Y41266D01*
X45749Y41252D01*
X45752Y41237D01*
X45753Y41221D01*
X45754Y41205D01*
Y41195D01*
X45753Y41189D01*
X45752Y41182D01*
X45751Y41172D01*
X45749Y41162D01*
X45747Y41152D01*
X45741Y41128D01*
X45731Y41104D01*
X45726Y41092D01*
X45719Y41080D01*
X45711Y41069D01*
X45702Y41059D01*
X45701Y41058D01*
X45700Y41056D01*
X45696Y41054D01*
X45693Y41050D01*
X45688Y41046D01*
X45682Y41041D01*
X45675Y41036D01*
X45667Y41031D01*
X45649Y41022D01*
X45627Y41012D01*
X45616Y41009D01*
X45603Y41007D01*
X45590Y41005D01*
X45576Y41004D01*
X45574D01*
X45570D01*
X45562Y41005D01*
X45552Y41006D01*
X45541Y41008D01*
X45528Y41011D01*
X45514Y41015D01*
X45500Y41021D01*
X45498Y41022D01*
X45494Y41023D01*
X45486Y41027D01*
X45476Y41033D01*
X45465Y41040D01*
X45451Y41049D01*
X45437Y41060D01*
X45422Y41073D01*
X45420Y41075D01*
X45414Y41080D01*
X45410Y41085D01*
X45405Y41089D01*
X45400Y41095D01*
X45392Y41102D01*
X45385Y41109D01*
X45376Y41119D01*
X45367Y41128D01*
X45357Y41139D01*
X45347Y41151D01*
X45335Y41164D01*
X45323Y41179D01*
X45310Y41194D01*
X45309Y41195D01*
X45307Y41196D01*
X45304Y41200D01*
X45301Y41205D01*
X45295Y41210D01*
X45290Y41217D01*
X45278Y41232D01*
X45264Y41247D01*
X45250Y41262D01*
X45238Y41275D01*
X45233Y41281D01*
X45229Y41285D01*
X45228Y41286D01*
X45225Y41289D01*
X45221Y41293D01*
X45216Y41297D01*
X45209Y41302D01*
X45203Y41307D01*
X45187Y41318D01*
Y41003D01*
X45111D01*
Y41428D01*
X45112D01*
X45116D01*
X45121D01*
X45129Y41427D01*
D02*
G37*
G36*
X45502Y25348D02*
X45502D01*
X45500D01*
X45496D01*
X45490Y25347D01*
X45485Y25346D01*
X45478D01*
X45463Y25344D01*
X45446Y25341D01*
X45429Y25335D01*
X45415Y25330D01*
X45408Y25326D01*
X45403Y25321D01*
X45402Y25321D01*
X45399Y25317D01*
X45394Y25311D01*
X45390Y25304D01*
X45384Y25294D01*
X45380Y25283D01*
X45377Y25269D01*
X45376Y25254D01*
Y25248D01*
X45377Y25243D01*
X45378Y25235D01*
X45380Y25226D01*
X45381Y25217D01*
X45385Y25208D01*
X45390Y25198D01*
X45391Y25198D01*
X45392Y25195D01*
X45396Y25191D01*
X45400Y25186D01*
X45406Y25181D01*
X45413Y25175D01*
X45420Y25171D01*
X45429Y25167D01*
X45430D01*
X45434Y25165D01*
X45441Y25164D01*
X45449Y25162D01*
X45460Y25161D01*
X45474Y25160D01*
X45490Y25158D01*
X45510D01*
X45951D01*
Y25073D01*
X45514D01*
X45514D01*
X45511D01*
X45507D01*
X45502D01*
X45494Y25074D01*
X45487D01*
X45469Y25076D01*
X45449Y25077D01*
X45428Y25081D01*
X45408Y25087D01*
X45390Y25093D01*
X45389D01*
X45388Y25094D01*
X45382Y25097D01*
X45375Y25101D01*
X45365Y25108D01*
X45355Y25117D01*
X45343Y25127D01*
X45332Y25140D01*
X45323Y25155D01*
X45322Y25157D01*
X45319Y25162D01*
X45316Y25171D01*
X45312Y25183D01*
X45307Y25198D01*
X45304Y25214D01*
X45301Y25233D01*
X45300Y25253D01*
Y25261D01*
X45301Y25267D01*
X45302Y25274D01*
X45303Y25282D01*
X45306Y25301D01*
X45312Y25321D01*
X45320Y25343D01*
X45326Y25354D01*
X45332Y25364D01*
X45340Y25373D01*
X45348Y25382D01*
X45349Y25383D01*
X45350Y25384D01*
X45354Y25386D01*
X45357Y25389D01*
X45362Y25393D01*
X45368Y25396D01*
X45376Y25400D01*
X45384Y25405D01*
X45393Y25408D01*
X45404Y25412D01*
X45416Y25416D01*
X45429Y25419D01*
X45442Y25421D01*
X45458Y25424D01*
X45474Y25425D01*
X45491D01*
X45502Y25348D01*
D02*
G37*
G36*
X45951Y24700D02*
Y24636D01*
X45537D01*
Y24549D01*
X45465D01*
Y24636D01*
X45311D01*
Y24715D01*
X45465D01*
Y24993D01*
X45537D01*
X45951Y24700D01*
D02*
G37*
G36*
X26127Y8114D02*
Y8114D01*
Y8111D01*
Y8107D01*
Y8102D01*
X26126Y8094D01*
Y8087D01*
X26124Y8069D01*
X26123Y8049D01*
X26119Y8028D01*
X26113Y8008D01*
X26107Y7990D01*
Y7989D01*
X26106Y7988D01*
X26103Y7982D01*
X26099Y7975D01*
X26092Y7965D01*
X26083Y7955D01*
X26073Y7943D01*
X26060Y7932D01*
X26045Y7923D01*
X26043Y7922D01*
X26038Y7919D01*
X26029Y7916D01*
X26017Y7912D01*
X26002Y7907D01*
X25986Y7904D01*
X25967Y7901D01*
X25947Y7900D01*
X25939D01*
X25933Y7901D01*
X25926Y7902D01*
X25918Y7903D01*
X25899Y7906D01*
X25879Y7912D01*
X25857Y7920D01*
X25846Y7926D01*
X25836Y7932D01*
X25827Y7940D01*
X25818Y7948D01*
X25817Y7949D01*
X25816Y7950D01*
X25814Y7954D01*
X25811Y7957D01*
X25807Y7962D01*
X25804Y7968D01*
X25800Y7976D01*
X25795Y7984D01*
X25792Y7993D01*
X25788Y8004D01*
X25784Y8016D01*
X25781Y8028D01*
X25779Y8042D01*
X25776Y8058D01*
X25775Y8074D01*
Y8091D01*
X25852Y8102D01*
Y8102D01*
Y8100D01*
Y8096D01*
X25853Y8090D01*
X25854Y8085D01*
Y8078D01*
X25856Y8063D01*
X25859Y8046D01*
X25865Y8029D01*
X25870Y8015D01*
X25874Y8008D01*
X25879Y8003D01*
X25879Y8002D01*
X25883Y7999D01*
X25889Y7994D01*
X25896Y7990D01*
X25906Y7984D01*
X25917Y7980D01*
X25931Y7977D01*
X25946Y7976D01*
X25952D01*
X25957Y7977D01*
X25965Y7978D01*
X25974Y7979D01*
X25983Y7981D01*
X25992Y7985D01*
X26002Y7990D01*
X26002Y7991D01*
X26005Y7992D01*
X26009Y7996D01*
X26014Y8000D01*
X26019Y8006D01*
X26025Y8013D01*
X26029Y8020D01*
X26033Y8029D01*
Y8030D01*
X26035Y8034D01*
X26036Y8041D01*
X26038Y8049D01*
X26039Y8060D01*
X26040Y8074D01*
X26042Y8090D01*
Y8110D01*
Y8551D01*
X26127D01*
Y8114D01*
D02*
G37*
G36*
X26529Y7911D02*
X26451D01*
Y8411D01*
X26450Y8410D01*
X26445Y8407D01*
X26440Y8401D01*
X26431Y8395D01*
X26420Y8386D01*
X26407Y8377D01*
X26393Y8367D01*
X26376Y8357D01*
X26375D01*
X26374Y8356D01*
X26369Y8352D01*
X26359Y8347D01*
X26348Y8342D01*
X26335Y8335D01*
X26321Y8329D01*
X26308Y8323D01*
X26294Y8317D01*
Y8393D01*
X26295D01*
X26296Y8395D01*
X26300Y8396D01*
X26305Y8398D01*
X26310Y8401D01*
X26317Y8405D01*
X26333Y8414D01*
X26351Y8424D01*
X26369Y8437D01*
X26389Y8452D01*
X26408Y8468D01*
X26409Y8469D01*
X26410Y8470D01*
X26413Y8472D01*
X26417Y8475D01*
X26425Y8484D01*
X26436Y8495D01*
X26447Y8508D01*
X26459Y8523D01*
X26469Y8538D01*
X26479Y8554D01*
X26529D01*
Y7911D01*
D02*
G37*
G36*
X15598Y15806D02*
X15603D01*
X15618Y15803D01*
X15635Y15800D01*
X15654Y15796D01*
X15674Y15789D01*
X15694Y15780D01*
X15695D01*
X15696Y15779D01*
X15698Y15777D01*
X15702Y15775D01*
X15711Y15770D01*
X15723Y15761D01*
X15736Y15751D01*
X15749Y15739D01*
X15762Y15725D01*
X15773Y15709D01*
Y15708D01*
X15774Y15707D01*
X15776Y15704D01*
X15777Y15700D01*
X15782Y15691D01*
X15786Y15679D01*
X15792Y15663D01*
X15795Y15646D01*
X15799Y15627D01*
X15800Y15605D01*
Y15601D01*
X15799Y15596D01*
Y15589D01*
X15798Y15580D01*
X15796Y15571D01*
X15794Y15560D01*
X15791Y15549D01*
X15787Y15536D01*
X15782Y15523D01*
X15777Y15510D01*
X15769Y15496D01*
X15761Y15483D01*
X15752Y15470D01*
X15741Y15457D01*
X15728Y15445D01*
X15727Y15444D01*
X15724Y15443D01*
X15720Y15440D01*
X15714Y15436D01*
X15706Y15431D01*
X15696Y15426D01*
X15684Y15420D01*
X15672Y15415D01*
X15656Y15408D01*
X15638Y15403D01*
X15619Y15398D01*
X15598Y15394D01*
X15573Y15389D01*
X15548Y15386D01*
X15520Y15384D01*
X15490Y15383D01*
X15489D01*
X15488D01*
X15486D01*
X15482D01*
X15473Y15384D01*
X15460D01*
X15445Y15385D01*
X15427Y15387D01*
X15408Y15389D01*
X15387Y15392D01*
X15365Y15395D01*
X15342Y15400D01*
X15320Y15406D01*
X15298Y15412D01*
X15277Y15420D01*
X15256Y15430D01*
X15237Y15440D01*
X15220Y15452D01*
X15219Y15453D01*
X15218Y15455D01*
X15214Y15458D01*
X15208Y15463D01*
X15203Y15468D01*
X15197Y15476D01*
X15190Y15485D01*
X15183Y15494D01*
X15177Y15505D01*
X15169Y15517D01*
X15164Y15531D01*
X15157Y15545D01*
X15153Y15561D01*
X15149Y15578D01*
X15147Y15595D01*
X15146Y15614D01*
Y15621D01*
X15147Y15627D01*
Y15633D01*
X15148Y15640D01*
X15152Y15658D01*
X15157Y15677D01*
X15164Y15698D01*
X15175Y15718D01*
X15181Y15728D01*
X15189Y15737D01*
X15190Y15738D01*
X15191Y15739D01*
X15193Y15742D01*
X15196Y15745D01*
X15201Y15749D01*
X15206Y15753D01*
X15219Y15763D01*
X15236Y15774D01*
X15256Y15783D01*
X15279Y15791D01*
X15305Y15797D01*
X15312Y15718D01*
X15311D01*
X15310Y15717D01*
X15304Y15716D01*
X15296Y15713D01*
X15286Y15710D01*
X15275Y15706D01*
X15264Y15700D01*
X15254Y15694D01*
X15245Y15688D01*
X15243Y15686D01*
X15240Y15682D01*
X15234Y15676D01*
X15228Y15666D01*
X15222Y15654D01*
X15217Y15641D01*
X15213Y15626D01*
X15211Y15609D01*
Y15602D01*
X15212Y15595D01*
X15214Y15587D01*
X15217Y15576D01*
X15220Y15565D01*
X15225Y15553D01*
X15232Y15542D01*
X15233Y15541D01*
X15237Y15536D01*
X15243Y15529D01*
X15253Y15521D01*
X15264Y15512D01*
X15277Y15502D01*
X15293Y15492D01*
X15312Y15483D01*
X15313D01*
X15315Y15482D01*
X15317Y15481D01*
X15321Y15479D01*
X15327Y15479D01*
X15333Y15477D01*
X15340Y15475D01*
X15350Y15473D01*
X15360Y15470D01*
X15371Y15468D01*
X15383Y15467D01*
X15396Y15466D01*
X15411Y15464D01*
X15426Y15463D01*
X15442Y15462D01*
X15459D01*
X15458Y15463D01*
X15452Y15467D01*
X15445Y15473D01*
X15436Y15481D01*
X15425Y15491D01*
X15414Y15503D01*
X15404Y15516D01*
X15395Y15530D01*
Y15531D01*
X15394Y15532D01*
X15391Y15538D01*
X15389Y15546D01*
X15384Y15557D01*
X15380Y15570D01*
X15377Y15585D01*
X15375Y15601D01*
X15374Y15617D01*
Y15625D01*
X15375Y15630D01*
X15376Y15638D01*
X15377Y15645D01*
X15378Y15654D01*
X15381Y15663D01*
X15388Y15685D01*
X15392Y15696D01*
X15399Y15707D01*
X15405Y15718D01*
X15413Y15730D01*
X15422Y15741D01*
X15432Y15751D01*
X15433Y15752D01*
X15435Y15754D01*
X15438Y15757D01*
X15442Y15760D01*
X15449Y15764D01*
X15455Y15769D01*
X15463Y15774D01*
X15473Y15779D01*
X15483Y15785D01*
X15494Y15789D01*
X15507Y15794D01*
X15520Y15798D01*
X15534Y15801D01*
X15549Y15804D01*
X15565Y15806D01*
X15582Y15807D01*
X15583D01*
X15585D01*
X15587D01*
X15592D01*
X15598Y15806D01*
D02*
G37*
G36*
X15789Y15232D02*
X15656Y15148D01*
X15655D01*
X15653Y15146D01*
X15650Y15144D01*
X15647Y15141D01*
X15636Y15135D01*
X15623Y15126D01*
X15610Y15116D01*
X15595Y15106D01*
X15581Y15096D01*
X15568Y15087D01*
X15567Y15086D01*
X15563Y15083D01*
X15558Y15078D01*
X15551Y15072D01*
X15537Y15058D01*
X15531Y15050D01*
X15525Y15043D01*
X15524Y15042D01*
X15524Y15040D01*
X15522Y15037D01*
X15519Y15031D01*
X15516Y15026D01*
X15513Y15019D01*
X15509Y15004D01*
Y15003D01*
X15508Y15002D01*
Y14998D01*
X15507Y14993D01*
X15506Y14987D01*
Y14979D01*
X15505Y14969D01*
Y14860D01*
X15789D01*
Y14775D01*
X15149D01*
Y15072D01*
X15150Y15079D01*
Y15087D01*
X15151Y15107D01*
X15154Y15127D01*
X15157Y15149D01*
X15161Y15170D01*
X15164Y15180D01*
X15167Y15188D01*
Y15189D01*
X15168Y15190D01*
X15170Y15196D01*
X15174Y15204D01*
X15181Y15214D01*
X15189Y15225D01*
X15200Y15237D01*
X15213Y15248D01*
X15228Y15259D01*
X15229D01*
X15230Y15260D01*
X15235Y15264D01*
X15244Y15268D01*
X15256Y15273D01*
X15270Y15278D01*
X15287Y15283D01*
X15304Y15285D01*
X15324Y15286D01*
X15325D01*
X15327D01*
X15330D01*
X15335Y15285D01*
X15341D01*
X15348Y15284D01*
X15364Y15281D01*
X15382Y15275D01*
X15402Y15268D01*
X15421Y15257D01*
X15430Y15249D01*
X15439Y15242D01*
X15440Y15241D01*
X15441Y15240D01*
X15444Y15237D01*
X15447Y15234D01*
X15451Y15229D01*
X15454Y15223D01*
X15459Y15216D01*
X15464Y15209D01*
X15469Y15199D01*
X15474Y15189D01*
X15479Y15178D01*
X15484Y15166D01*
X15488Y15152D01*
X15492Y15138D01*
X15495Y15123D01*
X15498Y15106D01*
X15499Y15108D01*
X15500Y15112D01*
X15504Y15117D01*
X15508Y15124D01*
X15518Y15141D01*
X15524Y15149D01*
X15530Y15157D01*
X15532Y15159D01*
X15537Y15163D01*
X15544Y15171D01*
X15553Y15180D01*
X15566Y15190D01*
X15580Y15202D01*
X15597Y15214D01*
X15615Y15227D01*
X15789Y15337D01*
Y15232D01*
D02*
G37*
G36*
X12827Y58649D02*
X12836D01*
X12846Y58648D01*
X12858Y58647D01*
X12870Y58645D01*
X12897Y58641D01*
X12926Y58634D01*
X12956Y58625D01*
X12984Y58612D01*
X12985Y58611D01*
X12988Y58610D01*
X12992Y58608D01*
X12996Y58605D01*
X13003Y58601D01*
X13010Y58596D01*
X13027Y58584D01*
X13045Y58569D01*
X13064Y58550D01*
X13082Y58529D01*
X13098Y58504D01*
X13099Y58503D01*
X13100Y58500D01*
X13102Y58497D01*
X13105Y58492D01*
X13107Y58485D01*
X13110Y58477D01*
X13114Y58468D01*
X13118Y58458D01*
X13121Y58447D01*
X13125Y58435D01*
X13130Y58409D01*
X13135Y58379D01*
X13137Y58349D01*
Y58339D01*
X13136Y58333D01*
X13135Y58325D01*
X13134Y58314D01*
X13133Y58304D01*
X13130Y58292D01*
X13125Y58267D01*
X13117Y58240D01*
X13111Y58226D01*
X13105Y58213D01*
X13096Y58200D01*
X13088Y58187D01*
X13087Y58186D01*
X13086Y58184D01*
X13083Y58180D01*
X13079Y58176D01*
X13074Y58171D01*
X13068Y58165D01*
X13060Y58158D01*
X13053Y58151D01*
X13044Y58143D01*
X13033Y58136D01*
X13021Y58128D01*
X13009Y58120D01*
X12996Y58114D01*
X12982Y58106D01*
X12967Y58101D01*
X12950Y58095D01*
X12931Y58178D01*
X12932D01*
X12934Y58179D01*
X12937Y58181D01*
X12942Y58183D01*
X12947Y58185D01*
X12955Y58188D01*
X12970Y58195D01*
X12986Y58204D01*
X13003Y58215D01*
X13019Y58229D01*
X13033Y58244D01*
X13034Y58246D01*
X13038Y58252D01*
X13043Y58261D01*
X13049Y58273D01*
X13055Y58289D01*
X13060Y58306D01*
X13064Y58327D01*
X13065Y58350D01*
Y58358D01*
X13064Y58362D01*
Y58369D01*
X13063Y58376D01*
X13060Y58394D01*
X13057Y58413D01*
X13050Y58434D01*
X13041Y58455D01*
X13029Y58474D01*
Y58475D01*
X13027Y58476D01*
X13022Y58483D01*
X13015Y58491D01*
X13004Y58501D01*
X12990Y58513D01*
X12974Y58524D01*
X12955Y58534D01*
X12934Y58544D01*
X12933D01*
X12931Y58545D01*
X12928Y58546D01*
X12923Y58546D01*
X12918Y58548D01*
X12911Y58550D01*
X12896Y58553D01*
X12877Y58557D01*
X12857Y58560D01*
X12835Y58562D01*
X12811Y58563D01*
X12810D01*
X12807D01*
X12802D01*
X12797D01*
X12790Y58562D01*
X12782D01*
X12773Y58561D01*
X12763Y58560D01*
X12740Y58558D01*
X12716Y58553D01*
X12692Y58547D01*
X12668Y58540D01*
X12667D01*
X12665Y58539D01*
X12663Y58537D01*
X12658Y58535D01*
X12647Y58530D01*
X12634Y58521D01*
X12619Y58511D01*
X12604Y58498D01*
X12590Y58484D01*
X12577Y58466D01*
Y58465D01*
X12576Y58463D01*
X12574Y58460D01*
X12572Y58457D01*
X12570Y58452D01*
X12567Y58447D01*
X12562Y58434D01*
X12556Y58417D01*
X12552Y58399D01*
X12548Y58378D01*
X12547Y58357D01*
Y58350D01*
X12548Y58345D01*
Y58338D01*
X12549Y58332D01*
X12553Y58315D01*
X12557Y58296D01*
X12565Y58276D01*
X12575Y58256D01*
X12580Y58246D01*
X12588Y58237D01*
X12589Y58236D01*
X12590Y58235D01*
X12592Y58232D01*
X12595Y58228D01*
X12600Y58225D01*
X12605Y58220D01*
X12611Y58215D01*
X12618Y58210D01*
X12627Y58204D01*
X12636Y58198D01*
X12645Y58192D01*
X12656Y58187D01*
X12668Y58182D01*
X12681Y58178D01*
X12695Y58173D01*
X12710Y58169D01*
X12689Y58084D01*
X12688D01*
X12684Y58085D01*
X12678Y58087D01*
X12671Y58090D01*
X12663Y58092D01*
X12653Y58096D01*
X12641Y58101D01*
X12629Y58106D01*
X12604Y58119D01*
X12578Y58136D01*
X12565Y58146D01*
X12552Y58156D01*
X12541Y58167D01*
X12530Y58180D01*
X12529Y58181D01*
X12527Y58183D01*
X12525Y58188D01*
X12521Y58192D01*
X12517Y58200D01*
X12512Y58207D01*
X12507Y58217D01*
X12503Y58227D01*
X12497Y58240D01*
X12493Y58252D01*
X12488Y58266D01*
X12483Y58281D01*
X12480Y58297D01*
X12478Y58313D01*
X12476Y58331D01*
X12475Y58350D01*
Y58360D01*
X12476Y58367D01*
Y58375D01*
X12477Y58386D01*
X12479Y58397D01*
X12481Y58410D01*
X12485Y58436D01*
X12493Y58464D01*
X12503Y58492D01*
X12509Y58505D01*
X12517Y58518D01*
X12518Y58519D01*
X12518Y58521D01*
X12521Y58524D01*
X12525Y58528D01*
X12529Y58534D01*
X12534Y58540D01*
X12541Y58547D01*
X12548Y58555D01*
X12556Y58562D01*
X12565Y58570D01*
X12586Y58587D01*
X12611Y58603D01*
X12639Y58617D01*
X12640D01*
X12642Y58619D01*
X12647Y58619D01*
X12653Y58622D01*
X12660Y58624D01*
X12669Y58627D01*
X12679Y58631D01*
X12690Y58633D01*
X12702Y58636D01*
X12716Y58640D01*
X12745Y58644D01*
X12777Y58648D01*
X12811Y58650D01*
X12812D01*
X12815D01*
X12821D01*
X12827Y58649D01*
D02*
G37*
G36*
X12504Y58022D02*
X12512Y58021D01*
X12521Y58019D01*
X12530Y58018D01*
X12541Y58014D01*
X12542D01*
X12542Y58013D01*
X12548Y58011D01*
X12556Y58007D01*
X12567Y58002D01*
X12580Y57994D01*
X12595Y57985D01*
X12610Y57975D01*
X12626Y57962D01*
X12627D01*
X12628Y57960D01*
X12633Y57956D01*
X12641Y57947D01*
X12653Y57935D01*
X12667Y57921D01*
X12684Y57904D01*
X12702Y57883D01*
X12722Y57860D01*
X12723Y57859D01*
X12726Y57855D01*
X12730Y57849D01*
X12736Y57843D01*
X12743Y57835D01*
X12751Y57824D01*
X12761Y57814D01*
X12771Y57802D01*
X12793Y57779D01*
X12815Y57756D01*
X12826Y57745D01*
X12837Y57735D01*
X12848Y57725D01*
X12858Y57718D01*
X12859D01*
X12860Y57716D01*
X12862Y57714D01*
X12866Y57713D01*
X12876Y57706D01*
X12888Y57699D01*
X12903Y57692D01*
X12919Y57686D01*
X12936Y57682D01*
X12953Y57680D01*
X12954D01*
X12955D01*
X12960Y57681D01*
X12970Y57682D01*
X12980Y57685D01*
X12993Y57688D01*
X13006Y57695D01*
X13019Y57703D01*
X13032Y57714D01*
X13033Y57716D01*
X13037Y57721D01*
X13042Y57727D01*
X13048Y57737D01*
X13054Y57750D01*
X13059Y57765D01*
X13063Y57783D01*
X13064Y57802D01*
Y57808D01*
X13063Y57811D01*
X13062Y57823D01*
X13059Y57835D01*
X13056Y57849D01*
X13049Y57865D01*
X13041Y57880D01*
X13030Y57894D01*
X13028Y57896D01*
X13023Y57899D01*
X13016Y57905D01*
X13005Y57910D01*
X12992Y57917D01*
X12975Y57922D01*
X12957Y57926D01*
X12935Y57928D01*
X12944Y58008D01*
X12945D01*
X12947Y58007D01*
X12952D01*
X12959Y58007D01*
X12966Y58005D01*
X12974Y58003D01*
X12984Y58000D01*
X12995Y57997D01*
X13017Y57990D01*
X13039Y57979D01*
X13050Y57972D01*
X13061Y57964D01*
X13071Y57956D01*
X13081Y57946D01*
X13082Y57945D01*
X13082Y57944D01*
X13085Y57941D01*
X13088Y57936D01*
X13092Y57931D01*
X13095Y57924D01*
X13100Y57917D01*
X13105Y57908D01*
X13109Y57897D01*
X13114Y57886D01*
X13118Y57874D01*
X13121Y57861D01*
X13124Y57847D01*
X13127Y57833D01*
X13128Y57817D01*
X13129Y57800D01*
Y57791D01*
X13128Y57785D01*
X13127Y57777D01*
X13126Y57768D01*
X13124Y57758D01*
X13122Y57748D01*
X13116Y57724D01*
X13106Y57700D01*
X13101Y57688D01*
X13094Y57676D01*
X13086Y57664D01*
X13077Y57654D01*
X13076Y57653D01*
X13075Y57651D01*
X13071Y57650D01*
X13068Y57646D01*
X13063Y57641D01*
X13057Y57637D01*
X13050Y57632D01*
X13042Y57627D01*
X13024Y57617D01*
X13002Y57608D01*
X12991Y57604D01*
X12978Y57602D01*
X12965Y57601D01*
X12951Y57600D01*
X12949D01*
X12945D01*
X12937Y57601D01*
X12927Y57602D01*
X12916Y57603D01*
X12903Y57607D01*
X12889Y57611D01*
X12875Y57616D01*
X12873Y57617D01*
X12869Y57619D01*
X12861Y57623D01*
X12851Y57628D01*
X12840Y57636D01*
X12826Y57645D01*
X12812Y57656D01*
X12797Y57669D01*
X12795Y57671D01*
X12789Y57676D01*
X12785Y57680D01*
X12780Y57685D01*
X12775Y57690D01*
X12767Y57698D01*
X12760Y57705D01*
X12751Y57714D01*
X12742Y57724D01*
X12732Y57735D01*
X12722Y57747D01*
X12710Y57760D01*
X12698Y57774D01*
X12685Y57789D01*
X12684Y57790D01*
X12682Y57792D01*
X12679Y57796D01*
X12676Y57800D01*
X12670Y57806D01*
X12665Y57812D01*
X12653Y57827D01*
X12639Y57843D01*
X12625Y57858D01*
X12613Y57871D01*
X12608Y57876D01*
X12604Y57881D01*
X12603Y57882D01*
X12600Y57884D01*
X12596Y57888D01*
X12591Y57893D01*
X12584Y57897D01*
X12578Y57903D01*
X12562Y57914D01*
Y57599D01*
X12486D01*
Y58023D01*
X12487D01*
X12491D01*
X12496D01*
X12504Y58022D01*
D02*
G37*
G36*
X11597Y50117D02*
X11750D01*
Y50039D01*
X11597D01*
Y49760D01*
X11524D01*
X11110Y50053D01*
Y50117D01*
X11524D01*
Y50204D01*
X11597D01*
Y50117D01*
D02*
G37*
G36*
X11750Y49632D02*
X11617Y49548D01*
X11616D01*
X11614Y49546D01*
X11611Y49544D01*
X11608Y49541D01*
X11597Y49535D01*
X11585Y49526D01*
X11571Y49516D01*
X11556Y49506D01*
X11542Y49496D01*
X11529Y49487D01*
X11528Y49486D01*
X11524Y49483D01*
X11519Y49478D01*
X11512Y49472D01*
X11499Y49458D01*
X11492Y49451D01*
X11487Y49443D01*
X11486Y49442D01*
X11485Y49440D01*
X11483Y49437D01*
X11480Y49431D01*
X11477Y49426D01*
X11474Y49419D01*
X11470Y49404D01*
Y49403D01*
X11469Y49402D01*
Y49398D01*
X11468Y49393D01*
X11467Y49387D01*
Y49379D01*
X11466Y49369D01*
Y49260D01*
X11750D01*
Y49175D01*
X11110D01*
Y49472D01*
X11111Y49479D01*
Y49487D01*
X11112Y49507D01*
X11115Y49527D01*
X11118Y49549D01*
X11122Y49570D01*
X11125Y49580D01*
X11128Y49588D01*
Y49589D01*
X11129Y49590D01*
X11131Y49596D01*
X11135Y49604D01*
X11142Y49614D01*
X11150Y49625D01*
X11161Y49637D01*
X11174Y49648D01*
X11189Y49659D01*
X11190D01*
X11191Y49660D01*
X11196Y49664D01*
X11205Y49668D01*
X11217Y49673D01*
X11231Y49678D01*
X11248Y49683D01*
X11266Y49685D01*
X11285Y49686D01*
X11286D01*
X11288D01*
X11291D01*
X11296Y49685D01*
X11303D01*
X11309Y49684D01*
X11325Y49681D01*
X11343Y49675D01*
X11363Y49668D01*
X11382Y49657D01*
X11391Y49649D01*
X11401Y49642D01*
X11401Y49641D01*
X11402Y49640D01*
X11405Y49637D01*
X11408Y49634D01*
X11412Y49629D01*
X11415Y49623D01*
X11420Y49616D01*
X11425Y49609D01*
X11430Y49599D01*
X11435Y49589D01*
X11440Y49578D01*
X11445Y49566D01*
X11449Y49552D01*
X11453Y49538D01*
X11456Y49523D01*
X11459Y49506D01*
X11460Y49508D01*
X11462Y49512D01*
X11465Y49517D01*
X11469Y49524D01*
X11479Y49541D01*
X11486Y49549D01*
X11491Y49557D01*
X11493Y49559D01*
X11498Y49563D01*
X11505Y49571D01*
X11514Y49580D01*
X11527Y49590D01*
X11541Y49602D01*
X11558Y49614D01*
X11576Y49627D01*
X11750Y49737D01*
Y49632D01*
D02*
G37*
G36*
X21767Y13849D02*
X21775D01*
X21786Y13848D01*
X21797Y13846D01*
X21810Y13844D01*
X21836Y13840D01*
X21864Y13832D01*
X21892Y13822D01*
X21905Y13816D01*
X21918Y13808D01*
X21919Y13807D01*
X21921Y13807D01*
X21924Y13804D01*
X21928Y13800D01*
X21934Y13796D01*
X21940Y13791D01*
X21947Y13784D01*
X21955Y13777D01*
X21962Y13769D01*
X21970Y13760D01*
X21987Y13739D01*
X22003Y13714D01*
X22017Y13686D01*
Y13685D01*
X22019Y13683D01*
X22020Y13678D01*
X22022Y13672D01*
X22024Y13665D01*
X22027Y13656D01*
X22031Y13646D01*
X22033Y13635D01*
X22036Y13623D01*
X22040Y13609D01*
X22044Y13580D01*
X22048Y13548D01*
X22050Y13514D01*
Y13513D01*
Y13510D01*
Y13504D01*
X22049Y13498D01*
Y13488D01*
X22048Y13479D01*
X22047Y13467D01*
X22045Y13455D01*
X22041Y13428D01*
X22034Y13399D01*
X22025Y13369D01*
X22012Y13341D01*
X22011Y13340D01*
X22010Y13337D01*
X22008Y13333D01*
X22005Y13329D01*
X22001Y13322D01*
X21996Y13315D01*
X21984Y13298D01*
X21969Y13280D01*
X21950Y13261D01*
X21929Y13243D01*
X21904Y13227D01*
X21903Y13226D01*
X21900Y13225D01*
X21897Y13223D01*
X21892Y13220D01*
X21885Y13218D01*
X21877Y13215D01*
X21868Y13211D01*
X21858Y13207D01*
X21847Y13204D01*
X21835Y13200D01*
X21809Y13194D01*
X21779Y13190D01*
X21749Y13188D01*
X21739D01*
X21733Y13189D01*
X21725Y13190D01*
X21714Y13191D01*
X21704Y13192D01*
X21692Y13194D01*
X21667Y13200D01*
X21639Y13208D01*
X21626Y13214D01*
X21613Y13220D01*
X21600Y13229D01*
X21587Y13237D01*
X21586Y13238D01*
X21584Y13239D01*
X21580Y13242D01*
X21576Y13246D01*
X21571Y13251D01*
X21565Y13257D01*
X21558Y13265D01*
X21551Y13272D01*
X21543Y13281D01*
X21536Y13292D01*
X21528Y13304D01*
X21520Y13316D01*
X21514Y13329D01*
X21506Y13343D01*
X21501Y13358D01*
X21495Y13375D01*
X21578Y13394D01*
Y13393D01*
X21579Y13391D01*
X21581Y13388D01*
X21583Y13383D01*
X21585Y13378D01*
X21588Y13370D01*
X21595Y13355D01*
X21604Y13339D01*
X21615Y13322D01*
X21629Y13306D01*
X21644Y13292D01*
X21646Y13291D01*
X21652Y13287D01*
X21661Y13282D01*
X21673Y13276D01*
X21688Y13270D01*
X21706Y13265D01*
X21727Y13261D01*
X21750Y13260D01*
X21758D01*
X21762Y13261D01*
X21769D01*
X21776Y13262D01*
X21794Y13265D01*
X21813Y13268D01*
X21834Y13275D01*
X21855Y13284D01*
X21874Y13296D01*
X21875D01*
X21876Y13298D01*
X21883Y13303D01*
X21891Y13310D01*
X21901Y13321D01*
X21913Y13335D01*
X21924Y13351D01*
X21934Y13370D01*
X21944Y13391D01*
Y13392D01*
X21945Y13394D01*
X21946Y13397D01*
X21946Y13402D01*
X21948Y13407D01*
X21950Y13414D01*
X21953Y13429D01*
X21957Y13448D01*
X21960Y13468D01*
X21962Y13490D01*
X21963Y13514D01*
Y13515D01*
Y13518D01*
Y13523D01*
Y13528D01*
X21962Y13535D01*
Y13543D01*
X21961Y13552D01*
X21960Y13562D01*
X21958Y13585D01*
X21953Y13609D01*
X21947Y13633D01*
X21940Y13657D01*
Y13658D01*
X21939Y13660D01*
X21937Y13662D01*
X21935Y13667D01*
X21930Y13678D01*
X21921Y13691D01*
X21911Y13706D01*
X21898Y13721D01*
X21884Y13735D01*
X21866Y13748D01*
X21865D01*
X21863Y13749D01*
X21860Y13751D01*
X21857Y13753D01*
X21852Y13755D01*
X21847Y13758D01*
X21834Y13763D01*
X21817Y13769D01*
X21799Y13773D01*
X21778Y13777D01*
X21757Y13778D01*
X21750D01*
X21745Y13777D01*
X21738D01*
X21732Y13776D01*
X21715Y13772D01*
X21696Y13768D01*
X21676Y13760D01*
X21656Y13750D01*
X21646Y13745D01*
X21637Y13737D01*
X21636Y13736D01*
X21635Y13735D01*
X21632Y13733D01*
X21628Y13730D01*
X21625Y13725D01*
X21620Y13720D01*
X21615Y13714D01*
X21610Y13707D01*
X21604Y13698D01*
X21598Y13689D01*
X21592Y13680D01*
X21587Y13669D01*
X21582Y13657D01*
X21578Y13644D01*
X21573Y13630D01*
X21569Y13615D01*
X21484Y13636D01*
Y13637D01*
X21485Y13641D01*
X21487Y13647D01*
X21490Y13654D01*
X21493Y13662D01*
X21496Y13672D01*
X21501Y13684D01*
X21506Y13696D01*
X21519Y13721D01*
X21536Y13747D01*
X21546Y13760D01*
X21556Y13773D01*
X21567Y13784D01*
X21580Y13795D01*
X21581Y13796D01*
X21583Y13798D01*
X21588Y13800D01*
X21592Y13804D01*
X21600Y13808D01*
X21607Y13813D01*
X21617Y13818D01*
X21627Y13822D01*
X21639Y13828D01*
X21652Y13832D01*
X21666Y13837D01*
X21681Y13842D01*
X21697Y13845D01*
X21713Y13847D01*
X21731Y13849D01*
X21750Y13850D01*
X21760D01*
X21767Y13849D01*
D02*
G37*
G36*
X21161Y13685D02*
X21439D01*
Y13613D01*
X21146Y13199D01*
X21082D01*
Y13613D01*
X20995D01*
Y13685D01*
X21082D01*
Y13839D01*
X21161D01*
Y13685D01*
D02*
G37*
G36*
X26314Y14707D02*
X26322Y14706D01*
X26330Y14704D01*
X26339Y14702D01*
X26349Y14700D01*
X26372Y14693D01*
X26384Y14687D01*
X26395Y14682D01*
X26407Y14674D01*
X26419Y14666D01*
X26431Y14657D01*
X26442Y14646D01*
X26443Y14645D01*
X26445Y14643D01*
X26447Y14639D01*
X26451Y14635D01*
X26456Y14629D01*
X26460Y14622D01*
X26466Y14613D01*
X26470Y14603D01*
X26476Y14593D01*
X26482Y14581D01*
X26486Y14569D01*
X26491Y14555D01*
X26494Y14540D01*
X26497Y14525D01*
X26499Y14509D01*
X26500Y14491D01*
Y14483D01*
X26499Y14477D01*
X26498Y14470D01*
X26497Y14462D01*
X26495Y14453D01*
X26494Y14442D01*
X26488Y14420D01*
X26479Y14397D01*
X26473Y14385D01*
X26467Y14374D01*
X26458Y14363D01*
X26450Y14352D01*
X26449Y14351D01*
X26447Y14349D01*
X26445Y14346D01*
X26441Y14343D01*
X26436Y14339D01*
X26430Y14334D01*
X26423Y14329D01*
X26415Y14323D01*
X26406Y14318D01*
X26396Y14312D01*
X26374Y14302D01*
X26348Y14293D01*
X26335Y14291D01*
X26320Y14289D01*
X26310Y14367D01*
X26310D01*
X26312Y14368D01*
X26316Y14369D01*
X26321Y14370D01*
X26326Y14371D01*
X26333Y14373D01*
X26347Y14378D01*
X26363Y14384D01*
X26379Y14392D01*
X26394Y14402D01*
X26407Y14413D01*
X26408Y14415D01*
X26411Y14418D01*
X26416Y14426D01*
X26420Y14435D01*
X26426Y14446D01*
X26431Y14460D01*
X26434Y14476D01*
X26435Y14492D01*
Y14498D01*
X26434Y14502D01*
X26433Y14512D01*
X26431Y14525D01*
X26426Y14539D01*
X26420Y14555D01*
X26410Y14571D01*
X26397Y14586D01*
X26396Y14587D01*
X26390Y14592D01*
X26382Y14598D01*
X26371Y14605D01*
X26357Y14612D01*
X26341Y14618D01*
X26322Y14623D01*
X26302Y14624D01*
X26301D01*
X26299D01*
X26297D01*
X26293Y14624D01*
X26283Y14623D01*
X26271Y14620D01*
X26256Y14616D01*
X26241Y14610D01*
X26226Y14600D01*
X26212Y14588D01*
X26211Y14587D01*
X26207Y14582D01*
X26201Y14575D01*
X26195Y14564D01*
X26188Y14551D01*
X26183Y14536D01*
X26179Y14518D01*
X26177Y14499D01*
Y14490D01*
X26178Y14484D01*
X26179Y14476D01*
X26181Y14466D01*
X26183Y14455D01*
X26186Y14443D01*
X26116Y14453D01*
Y14457D01*
X26117Y14461D01*
Y14473D01*
X26115Y14483D01*
X26114Y14495D01*
X26111Y14509D01*
X26106Y14525D01*
X26100Y14539D01*
X26091Y14555D01*
Y14556D01*
X26090Y14557D01*
X26087Y14562D01*
X26080Y14568D01*
X26072Y14575D01*
X26060Y14583D01*
X26046Y14589D01*
X26030Y14594D01*
X26021Y14596D01*
X26011D01*
X26010D01*
X26009D01*
X26004D01*
X25996Y14594D01*
X25986Y14592D01*
X25975Y14588D01*
X25963Y14584D01*
X25951Y14576D01*
X25940Y14566D01*
X25939Y14565D01*
X25935Y14561D01*
X25930Y14554D01*
X25925Y14546D01*
X25920Y14535D01*
X25916Y14522D01*
X25912Y14507D01*
X25911Y14490D01*
Y14483D01*
X25913Y14475D01*
X25915Y14464D01*
X25918Y14452D01*
X25923Y14440D01*
X25930Y14427D01*
X25940Y14415D01*
X25941Y14414D01*
X25945Y14410D01*
X25952Y14404D01*
X25961Y14398D01*
X25973Y14391D01*
X25988Y14385D01*
X26005Y14379D01*
X26026Y14376D01*
X26012Y14297D01*
X26011D01*
X26008Y14298D01*
X26004Y14299D01*
X25999Y14300D01*
X25992Y14302D01*
X25985Y14305D01*
X25967Y14310D01*
X25947Y14319D01*
X25927Y14330D01*
X25907Y14344D01*
X25890Y14362D01*
X25889Y14363D01*
X25888Y14365D01*
X25886Y14367D01*
X25883Y14371D01*
X25880Y14376D01*
X25876Y14382D01*
X25872Y14389D01*
X25868Y14397D01*
X25860Y14416D01*
X25853Y14437D01*
X25848Y14462D01*
X25846Y14475D01*
Y14498D01*
X25847Y14508D01*
X25849Y14520D01*
X25852Y14535D01*
X25857Y14551D01*
X25862Y14568D01*
X25869Y14585D01*
Y14586D01*
X25870Y14587D01*
X25873Y14592D01*
X25879Y14600D01*
X25885Y14610D01*
X25894Y14621D01*
X25905Y14632D01*
X25917Y14643D01*
X25930Y14652D01*
X25932Y14653D01*
X25937Y14656D01*
X25945Y14660D01*
X25955Y14664D01*
X25967Y14669D01*
X25981Y14673D01*
X25997Y14675D01*
X26013Y14676D01*
X26015D01*
X26020D01*
X26028Y14675D01*
X26038Y14673D01*
X26050Y14671D01*
X26063Y14666D01*
X26076Y14661D01*
X26089Y14653D01*
X26090Y14652D01*
X26094Y14649D01*
X26101Y14644D01*
X26108Y14637D01*
X26116Y14627D01*
X26126Y14616D01*
X26134Y14603D01*
X26142Y14587D01*
Y14588D01*
X26143Y14590D01*
X26144Y14593D01*
X26145Y14597D01*
X26149Y14607D01*
X26154Y14620D01*
X26162Y14635D01*
X26171Y14649D01*
X26183Y14663D01*
X26197Y14676D01*
X26199Y14677D01*
X26204Y14681D01*
X26213Y14686D01*
X26225Y14692D01*
X26240Y14698D01*
X26258Y14703D01*
X26278Y14707D01*
X26300Y14708D01*
X26301D01*
X26304D01*
X26309D01*
X26314Y14707D01*
D02*
G37*
G36*
X26291Y14215D02*
X26297Y14213D01*
X26304Y14210D01*
X26312Y14208D01*
X26322Y14204D01*
X26334Y14199D01*
X26346Y14194D01*
X26372Y14181D01*
X26397Y14164D01*
X26410Y14154D01*
X26423Y14144D01*
X26434Y14133D01*
X26445Y14120D01*
X26446Y14119D01*
X26448Y14117D01*
X26450Y14112D01*
X26454Y14108D01*
X26458Y14100D01*
X26463Y14093D01*
X26468Y14083D01*
X26472Y14073D01*
X26478Y14061D01*
X26482Y14048D01*
X26487Y14034D01*
X26492Y14019D01*
X26495Y14003D01*
X26497Y13987D01*
X26499Y13969D01*
X26500Y13950D01*
Y13940D01*
X26499Y13933D01*
Y13925D01*
X26498Y13914D01*
X26496Y13903D01*
X26494Y13890D01*
X26490Y13864D01*
X26482Y13836D01*
X26472Y13808D01*
X26466Y13795D01*
X26458Y13782D01*
X26457Y13781D01*
X26457Y13779D01*
X26454Y13776D01*
X26450Y13772D01*
X26446Y13766D01*
X26441Y13760D01*
X26434Y13753D01*
X26427Y13745D01*
X26419Y13738D01*
X26410Y13729D01*
X26389Y13713D01*
X26364Y13697D01*
X26336Y13683D01*
X26335D01*
X26333Y13681D01*
X26328Y13681D01*
X26322Y13678D01*
X26315Y13676D01*
X26306Y13673D01*
X26296Y13669D01*
X26285Y13667D01*
X26273Y13664D01*
X26259Y13660D01*
X26230Y13656D01*
X26198Y13652D01*
X26164Y13650D01*
X26163D01*
X26160D01*
X26154D01*
X26148Y13651D01*
X26139D01*
X26129Y13652D01*
X26117Y13653D01*
X26105Y13655D01*
X26078Y13659D01*
X26049Y13666D01*
X26019Y13675D01*
X25991Y13688D01*
X25990Y13689D01*
X25987Y13690D01*
X25983Y13692D01*
X25979Y13695D01*
X25972Y13699D01*
X25965Y13704D01*
X25948Y13716D01*
X25930Y13731D01*
X25911Y13750D01*
X25893Y13771D01*
X25877Y13796D01*
X25876Y13797D01*
X25875Y13800D01*
X25873Y13803D01*
X25870Y13808D01*
X25868Y13815D01*
X25865Y13823D01*
X25861Y13832D01*
X25857Y13842D01*
X25854Y13853D01*
X25850Y13865D01*
X25844Y13891D01*
X25840Y13921D01*
X25838Y13951D01*
Y13961D01*
X25839Y13967D01*
X25840Y13975D01*
X25841Y13986D01*
X25842Y13996D01*
X25844Y14008D01*
X25850Y14033D01*
X25858Y14061D01*
X25864Y14074D01*
X25870Y14087D01*
X25879Y14100D01*
X25887Y14113D01*
X25888Y14114D01*
X25889Y14116D01*
X25892Y14120D01*
X25896Y14124D01*
X25901Y14129D01*
X25907Y14135D01*
X25915Y14142D01*
X25922Y14149D01*
X25931Y14157D01*
X25942Y14164D01*
X25954Y14172D01*
X25966Y14180D01*
X25979Y14186D01*
X25993Y14194D01*
X26008Y14199D01*
X26025Y14205D01*
X26044Y14122D01*
X26043D01*
X26041Y14121D01*
X26038Y14119D01*
X26033Y14117D01*
X26028Y14115D01*
X26020Y14112D01*
X26005Y14105D01*
X25989Y14096D01*
X25972Y14085D01*
X25956Y14071D01*
X25942Y14056D01*
X25941Y14054D01*
X25937Y14048D01*
X25932Y14039D01*
X25926Y14027D01*
X25920Y14011D01*
X25915Y13994D01*
X25911Y13973D01*
X25910Y13950D01*
Y13942D01*
X25911Y13938D01*
Y13931D01*
X25912Y13924D01*
X25915Y13906D01*
X25918Y13887D01*
X25925Y13866D01*
X25934Y13845D01*
X25946Y13826D01*
Y13825D01*
X25948Y13824D01*
X25953Y13817D01*
X25960Y13809D01*
X25971Y13799D01*
X25985Y13787D01*
X26001Y13776D01*
X26020Y13766D01*
X26041Y13756D01*
X26042D01*
X26044Y13755D01*
X26047Y13754D01*
X26052Y13754D01*
X26057Y13752D01*
X26064Y13750D01*
X26079Y13747D01*
X26098Y13743D01*
X26118Y13740D01*
X26140Y13738D01*
X26164Y13737D01*
X26165D01*
X26168D01*
X26173D01*
X26178D01*
X26185Y13738D01*
X26193D01*
X26202Y13739D01*
X26212Y13740D01*
X26235Y13742D01*
X26259Y13747D01*
X26283Y13753D01*
X26307Y13760D01*
X26308D01*
X26310Y13761D01*
X26312Y13763D01*
X26317Y13765D01*
X26328Y13770D01*
X26341Y13778D01*
X26356Y13789D01*
X26372Y13802D01*
X26385Y13816D01*
X26398Y13834D01*
Y13835D01*
X26399Y13837D01*
X26401Y13840D01*
X26403Y13843D01*
X26405Y13848D01*
X26408Y13853D01*
X26413Y13866D01*
X26419Y13883D01*
X26423Y13901D01*
X26427Y13922D01*
X26428Y13943D01*
Y13950D01*
X26427Y13955D01*
Y13962D01*
X26426Y13968D01*
X26422Y13985D01*
X26418Y14004D01*
X26410Y14024D01*
X26400Y14044D01*
X26395Y14054D01*
X26387Y14063D01*
X26386Y14064D01*
X26385Y14065D01*
X26383Y14068D01*
X26380Y14072D01*
X26375Y14075D01*
X26370Y14080D01*
X26364Y14085D01*
X26357Y14090D01*
X26348Y14096D01*
X26339Y14102D01*
X26330Y14108D01*
X26319Y14113D01*
X26307Y14118D01*
X26294Y14122D01*
X26280Y14127D01*
X26265Y14131D01*
X26286Y14216D01*
X26287D01*
X26291Y14215D01*
D02*
G37*
G36*
X36954Y8403D02*
X36966Y8401D01*
X36980Y8398D01*
X36997Y8393D01*
X37014Y8388D01*
X37030Y8381D01*
X37031D01*
X37032Y8380D01*
X37038Y8377D01*
X37046Y8371D01*
X37055Y8365D01*
X37066Y8356D01*
X37078Y8345D01*
X37089Y8333D01*
X37098Y8320D01*
X37099Y8318D01*
X37102Y8313D01*
X37105Y8305D01*
X37110Y8295D01*
X37114Y8283D01*
X37118Y8269D01*
X37121Y8253D01*
X37122Y8237D01*
Y8235D01*
Y8230D01*
X37121Y8222D01*
X37119Y8212D01*
X37116Y8200D01*
X37112Y8187D01*
X37106Y8174D01*
X37099Y8161D01*
X37098Y8160D01*
X37095Y8156D01*
X37090Y8149D01*
X37082Y8142D01*
X37073Y8134D01*
X37062Y8124D01*
X37049Y8116D01*
X37033Y8108D01*
X37034D01*
X37036Y8107D01*
X37039Y8106D01*
X37042Y8105D01*
X37053Y8101D01*
X37065Y8096D01*
X37080Y8088D01*
X37095Y8079D01*
X37109Y8067D01*
X37122Y8053D01*
X37123Y8051D01*
X37127Y8046D01*
X37132Y8037D01*
X37138Y8025D01*
X37143Y8010D01*
X37149Y7992D01*
X37152Y7972D01*
X37153Y7950D01*
Y7949D01*
Y7946D01*
Y7941D01*
X37152Y7936D01*
X37151Y7928D01*
X37150Y7920D01*
X37148Y7911D01*
X37146Y7901D01*
X37139Y7878D01*
X37133Y7866D01*
X37127Y7855D01*
X37120Y7843D01*
X37112Y7831D01*
X37102Y7819D01*
X37091Y7808D01*
X37090Y7807D01*
X37089Y7805D01*
X37085Y7803D01*
X37080Y7799D01*
X37075Y7794D01*
X37067Y7790D01*
X37059Y7784D01*
X37049Y7780D01*
X37039Y7774D01*
X37027Y7768D01*
X37015Y7764D01*
X37001Y7759D01*
X36986Y7756D01*
X36970Y7753D01*
X36955Y7751D01*
X36937Y7750D01*
X36929D01*
X36923Y7751D01*
X36916Y7752D01*
X36907Y7753D01*
X36898Y7755D01*
X36888Y7756D01*
X36866Y7762D01*
X36843Y7771D01*
X36831Y7777D01*
X36820Y7783D01*
X36808Y7792D01*
X36797Y7800D01*
X36796Y7801D01*
X36795Y7803D01*
X36792Y7805D01*
X36789Y7809D01*
X36784Y7814D01*
X36780Y7820D01*
X36774Y7827D01*
X36769Y7835D01*
X36763Y7844D01*
X36758Y7854D01*
X36747Y7876D01*
X36739Y7902D01*
X36736Y7915D01*
X36734Y7930D01*
X36813Y7940D01*
Y7940D01*
X36814Y7938D01*
X36815Y7934D01*
X36816Y7929D01*
X36817Y7924D01*
X36819Y7917D01*
X36823Y7903D01*
X36830Y7887D01*
X36838Y7871D01*
X36847Y7856D01*
X36858Y7843D01*
X36860Y7842D01*
X36864Y7839D01*
X36871Y7834D01*
X36881Y7830D01*
X36892Y7824D01*
X36906Y7819D01*
X36921Y7816D01*
X36938Y7815D01*
X36943D01*
X36947Y7816D01*
X36957Y7817D01*
X36970Y7819D01*
X36985Y7824D01*
X37001Y7830D01*
X37016Y7840D01*
X37031Y7853D01*
X37033Y7854D01*
X37038Y7860D01*
X37043Y7868D01*
X37051Y7879D01*
X37058Y7893D01*
X37064Y7909D01*
X37068Y7927D01*
X37070Y7948D01*
Y7949D01*
Y7951D01*
Y7953D01*
X37069Y7957D01*
X37068Y7967D01*
X37065Y7979D01*
X37062Y7994D01*
X37055Y8009D01*
X37046Y8024D01*
X37034Y8038D01*
X37032Y8039D01*
X37028Y8043D01*
X37020Y8049D01*
X37010Y8055D01*
X36997Y8062D01*
X36981Y8067D01*
X36964Y8071D01*
X36944Y8073D01*
X36936D01*
X36930Y8072D01*
X36921Y8071D01*
X36912Y8069D01*
X36901Y8067D01*
X36889Y8064D01*
X36898Y8134D01*
X36903D01*
X36906Y8133D01*
X36918D01*
X36929Y8135D01*
X36941Y8136D01*
X36955Y8139D01*
X36970Y8144D01*
X36985Y8150D01*
X37001Y8159D01*
X37002D01*
X37003Y8160D01*
X37007Y8163D01*
X37014Y8170D01*
X37021Y8178D01*
X37028Y8190D01*
X37035Y8204D01*
X37040Y8220D01*
X37041Y8229D01*
Y8239D01*
Y8240D01*
Y8241D01*
Y8246D01*
X37040Y8254D01*
X37038Y8264D01*
X37034Y8275D01*
X37029Y8287D01*
X37022Y8299D01*
X37012Y8310D01*
X37011Y8311D01*
X37006Y8315D01*
X37000Y8320D01*
X36992Y8325D01*
X36980Y8330D01*
X36967Y8334D01*
X36953Y8338D01*
X36936Y8339D01*
X36929D01*
X36920Y8337D01*
X36909Y8335D01*
X36897Y8332D01*
X36885Y8327D01*
X36872Y8320D01*
X36860Y8310D01*
X36859Y8309D01*
X36856Y8305D01*
X36850Y8298D01*
X36844Y8289D01*
X36837Y8277D01*
X36831Y8262D01*
X36825Y8245D01*
X36821Y8224D01*
X36743Y8238D01*
Y8239D01*
X36744Y8242D01*
X36745Y8246D01*
X36746Y8251D01*
X36747Y8258D01*
X36750Y8265D01*
X36756Y8283D01*
X36765Y8303D01*
X36776Y8323D01*
X36790Y8343D01*
X36808Y8360D01*
X36808Y8361D01*
X36810Y8362D01*
X36813Y8364D01*
X36817Y8367D01*
X36821Y8370D01*
X36828Y8374D01*
X36834Y8378D01*
X36843Y8382D01*
X36861Y8390D01*
X36882Y8397D01*
X36907Y8402D01*
X36920Y8404D01*
X36943D01*
X36954Y8403D01*
D02*
G37*
G36*
X36627Y7964D02*
Y7964D01*
Y7961D01*
Y7957D01*
Y7952D01*
X36626Y7944D01*
Y7937D01*
X36624Y7919D01*
X36623Y7899D01*
X36619Y7878D01*
X36613Y7858D01*
X36607Y7840D01*
Y7839D01*
X36606Y7838D01*
X36603Y7832D01*
X36599Y7825D01*
X36592Y7815D01*
X36583Y7805D01*
X36573Y7793D01*
X36560Y7782D01*
X36545Y7773D01*
X36543Y7772D01*
X36538Y7769D01*
X36529Y7766D01*
X36517Y7762D01*
X36502Y7757D01*
X36486Y7754D01*
X36467Y7751D01*
X36447Y7750D01*
X36439D01*
X36433Y7751D01*
X36426Y7752D01*
X36418Y7753D01*
X36399Y7756D01*
X36379Y7762D01*
X36357Y7770D01*
X36346Y7776D01*
X36336Y7782D01*
X36327Y7790D01*
X36318Y7798D01*
X36317Y7799D01*
X36316Y7800D01*
X36314Y7804D01*
X36311Y7807D01*
X36307Y7812D01*
X36304Y7818D01*
X36300Y7826D01*
X36295Y7834D01*
X36292Y7843D01*
X36288Y7854D01*
X36284Y7866D01*
X36281Y7878D01*
X36279Y7892D01*
X36276Y7908D01*
X36275Y7924D01*
Y7941D01*
X36352Y7952D01*
Y7952D01*
Y7950D01*
Y7946D01*
X36353Y7940D01*
X36354Y7935D01*
Y7928D01*
X36356Y7913D01*
X36359Y7896D01*
X36365Y7879D01*
X36370Y7865D01*
X36374Y7858D01*
X36379Y7853D01*
X36379Y7852D01*
X36383Y7849D01*
X36389Y7844D01*
X36396Y7840D01*
X36406Y7834D01*
X36417Y7830D01*
X36431Y7827D01*
X36446Y7826D01*
X36452D01*
X36457Y7827D01*
X36465Y7828D01*
X36474Y7830D01*
X36483Y7831D01*
X36492Y7835D01*
X36501Y7840D01*
X36502Y7841D01*
X36505Y7842D01*
X36509Y7846D01*
X36514Y7850D01*
X36519Y7856D01*
X36525Y7863D01*
X36529Y7870D01*
X36533Y7879D01*
Y7880D01*
X36535Y7884D01*
X36536Y7891D01*
X36538Y7899D01*
X36539Y7910D01*
X36540Y7924D01*
X36542Y7940D01*
Y7960D01*
Y8401D01*
X36627D01*
Y7964D01*
D02*
G37*
G36*
X36529Y15175D02*
X36537D01*
X36557Y15174D01*
X36577Y15171D01*
X36599Y15168D01*
X36620Y15164D01*
X36630Y15161D01*
X36638Y15158D01*
X36639D01*
X36640Y15157D01*
X36646Y15155D01*
X36654Y15151D01*
X36664Y15144D01*
X36675Y15136D01*
X36687Y15125D01*
X36698Y15112D01*
X36709Y15097D01*
Y15096D01*
X36710Y15095D01*
X36714Y15090D01*
X36718Y15081D01*
X36723Y15069D01*
X36728Y15055D01*
X36733Y15038D01*
X36735Y15021D01*
X36736Y15001D01*
Y15000D01*
Y14998D01*
Y14995D01*
X36735Y14990D01*
Y14984D01*
X36734Y14977D01*
X36731Y14961D01*
X36725Y14943D01*
X36718Y14923D01*
X36707Y14904D01*
X36699Y14895D01*
X36692Y14886D01*
X36691Y14885D01*
X36690Y14884D01*
X36687Y14881D01*
X36684Y14878D01*
X36679Y14874D01*
X36673Y14871D01*
X36666Y14866D01*
X36659Y14861D01*
X36649Y14856D01*
X36639Y14851D01*
X36628Y14846D01*
X36616Y14841D01*
X36602Y14837D01*
X36588Y14833D01*
X36573Y14830D01*
X36556Y14827D01*
X36558Y14826D01*
X36562Y14825D01*
X36567Y14821D01*
X36574Y14817D01*
X36591Y14807D01*
X36599Y14801D01*
X36607Y14795D01*
X36609Y14793D01*
X36613Y14788D01*
X36621Y14781D01*
X36630Y14772D01*
X36640Y14759D01*
X36652Y14745D01*
X36664Y14728D01*
X36677Y14710D01*
X36787Y14536D01*
X36682D01*
X36598Y14669D01*
Y14670D01*
X36596Y14672D01*
X36594Y14675D01*
X36591Y14678D01*
X36585Y14689D01*
X36576Y14702D01*
X36566Y14715D01*
X36556Y14730D01*
X36546Y14744D01*
X36537Y14757D01*
X36536Y14758D01*
X36533Y14762D01*
X36528Y14767D01*
X36522Y14774D01*
X36508Y14788D01*
X36501Y14794D01*
X36493Y14800D01*
X36492Y14801D01*
X36490Y14801D01*
X36487Y14803D01*
X36481Y14806D01*
X36476Y14809D01*
X36469Y14812D01*
X36454Y14816D01*
X36453D01*
X36451Y14817D01*
X36448D01*
X36443Y14818D01*
X36437Y14819D01*
X36429D01*
X36419Y14820D01*
X36310D01*
Y14536D01*
X36225D01*
Y15176D01*
X36522D01*
X36529Y15175D01*
D02*
G37*
G36*
X37059Y15178D02*
X37066Y15177D01*
X37075Y15176D01*
X37084Y15175D01*
X37093Y15172D01*
X37115Y15167D01*
X37138Y15158D01*
X37149Y15153D01*
X37160Y15146D01*
X37170Y15138D01*
X37180Y15130D01*
X37181Y15129D01*
X37182Y15128D01*
X37185Y15125D01*
X37188Y15121D01*
X37192Y15116D01*
X37197Y15110D01*
X37206Y15096D01*
X37215Y15079D01*
X37224Y15058D01*
X37230Y15035D01*
X37231Y15023D01*
X37232Y15010D01*
Y15009D01*
Y15009D01*
Y15003D01*
X37231Y14995D01*
X37229Y14984D01*
X37226Y14972D01*
X37222Y14959D01*
X37216Y14946D01*
X37208Y14933D01*
X37207Y14931D01*
X37203Y14927D01*
X37198Y14922D01*
X37190Y14914D01*
X37180Y14906D01*
X37168Y14898D01*
X37154Y14889D01*
X37138Y14882D01*
X37138D01*
X37140Y14881D01*
X37143Y14880D01*
X37147Y14878D01*
X37158Y14874D01*
X37171Y14867D01*
X37185Y14858D01*
X37199Y14848D01*
X37213Y14835D01*
X37226Y14820D01*
Y14819D01*
X37227Y14818D01*
X37231Y14813D01*
X37236Y14803D01*
X37242Y14791D01*
X37248Y14776D01*
X37253Y14759D01*
X37257Y14739D01*
X37258Y14718D01*
Y14717D01*
Y14715D01*
Y14710D01*
X37257Y14704D01*
X37256Y14698D01*
X37255Y14690D01*
X37253Y14680D01*
X37250Y14670D01*
X37244Y14649D01*
X37239Y14637D01*
X37233Y14626D01*
X37226Y14614D01*
X37219Y14603D01*
X37210Y14592D01*
X37199Y14580D01*
X37199Y14580D01*
X37197Y14578D01*
X37194Y14575D01*
X37189Y14572D01*
X37183Y14568D01*
X37176Y14563D01*
X37168Y14558D01*
X37159Y14553D01*
X37149Y14547D01*
X37137Y14543D01*
X37124Y14538D01*
X37111Y14533D01*
X37096Y14531D01*
X37080Y14528D01*
X37064Y14526D01*
X37047Y14525D01*
X37038D01*
X37031Y14526D01*
X37023Y14527D01*
X37014Y14528D01*
X37003Y14530D01*
X36992Y14532D01*
X36967Y14539D01*
X36954Y14543D01*
X36942Y14548D01*
X36930Y14555D01*
X36917Y14562D01*
X36905Y14570D01*
X36893Y14580D01*
X36893Y14581D01*
X36891Y14583D01*
X36888Y14586D01*
X36884Y14591D01*
X36881Y14596D01*
X36875Y14603D01*
X36870Y14610D01*
X36865Y14619D01*
X36859Y14629D01*
X36855Y14640D01*
X36845Y14663D01*
X36842Y14677D01*
X36839Y14690D01*
X36837Y14705D01*
X36836Y14720D01*
Y14721D01*
Y14723D01*
Y14727D01*
X36837Y14730D01*
Y14736D01*
X36838Y14742D01*
X36840Y14757D01*
X36844Y14774D01*
X36849Y14790D01*
X36857Y14808D01*
X36868Y14825D01*
Y14825D01*
X36869Y14826D01*
X36873Y14831D01*
X36881Y14838D01*
X36891Y14848D01*
X36904Y14857D01*
X36919Y14867D01*
X36937Y14875D01*
X36958Y14882D01*
X36957D01*
X36956Y14883D01*
X36954Y14884D01*
X36950Y14886D01*
X36942Y14889D01*
X36930Y14895D01*
X36918Y14902D01*
X36906Y14911D01*
X36895Y14922D01*
X36885Y14933D01*
X36884Y14935D01*
X36881Y14938D01*
X36878Y14946D01*
X36874Y14955D01*
X36869Y14967D01*
X36866Y14981D01*
X36863Y14997D01*
X36862Y15013D01*
Y15014D01*
Y15016D01*
Y15020D01*
X36863Y15025D01*
X36864Y15031D01*
X36865Y15038D01*
X36868Y15054D01*
X36874Y15072D01*
X36883Y15092D01*
X36889Y15102D01*
X36895Y15112D01*
X36904Y15121D01*
X36912Y15131D01*
X36913Y15132D01*
X36915Y15132D01*
X36917Y15135D01*
X36921Y15138D01*
X36926Y15142D01*
X36932Y15145D01*
X36940Y15150D01*
X36947Y15155D01*
X36956Y15159D01*
X36966Y15164D01*
X36978Y15168D01*
X36990Y15171D01*
X37015Y15177D01*
X37030Y15178D01*
X37045Y15179D01*
X37053D01*
X37059Y15178D01*
D02*
G37*
G36*
X39423Y14449D02*
X39431Y14448D01*
X39439Y14447D01*
X39448Y14445D01*
X39459Y14444D01*
X39481Y14438D01*
X39504Y14429D01*
X39516Y14423D01*
X39527Y14417D01*
X39538Y14408D01*
X39549Y14400D01*
X39550Y14399D01*
X39552Y14397D01*
X39555Y14395D01*
X39557Y14391D01*
X39562Y14386D01*
X39567Y14380D01*
X39572Y14373D01*
X39578Y14365D01*
X39583Y14356D01*
X39589Y14346D01*
X39599Y14324D01*
X39607Y14298D01*
X39610Y14285D01*
X39612Y14270D01*
X39533Y14260D01*
Y14260D01*
X39533Y14262D01*
X39532Y14266D01*
X39531Y14271D01*
X39530Y14276D01*
X39528Y14283D01*
X39523Y14297D01*
X39517Y14313D01*
X39508Y14329D01*
X39499Y14344D01*
X39488Y14357D01*
X39486Y14358D01*
X39483Y14361D01*
X39475Y14366D01*
X39466Y14370D01*
X39455Y14376D01*
X39441Y14381D01*
X39425Y14384D01*
X39409Y14385D01*
X39403D01*
X39399Y14384D01*
X39389Y14383D01*
X39376Y14381D01*
X39361Y14376D01*
X39346Y14370D01*
X39330Y14360D01*
X39315Y14347D01*
X39313Y14346D01*
X39309Y14340D01*
X39303Y14332D01*
X39296Y14321D01*
X39288Y14307D01*
X39283Y14291D01*
X39278Y14272D01*
X39276Y14252D01*
Y14251D01*
Y14249D01*
Y14247D01*
X39277Y14243D01*
X39278Y14233D01*
X39281Y14221D01*
X39285Y14206D01*
X39291Y14191D01*
X39300Y14176D01*
X39312Y14162D01*
X39314Y14161D01*
X39319Y14157D01*
X39326Y14151D01*
X39337Y14145D01*
X39349Y14138D01*
X39365Y14133D01*
X39383Y14129D01*
X39402Y14127D01*
X39410D01*
X39417Y14128D01*
X39425Y14129D01*
X39435Y14131D01*
X39446Y14133D01*
X39458Y14136D01*
X39448Y14066D01*
X39444D01*
X39440Y14067D01*
X39428D01*
X39418Y14065D01*
X39406Y14064D01*
X39392Y14061D01*
X39376Y14056D01*
X39361Y14050D01*
X39346Y14041D01*
X39345D01*
X39344Y14040D01*
X39339Y14037D01*
X39333Y14030D01*
X39325Y14022D01*
X39318Y14010D01*
X39312Y13996D01*
X39307Y13980D01*
X39305Y13971D01*
Y13961D01*
Y13960D01*
Y13959D01*
Y13954D01*
X39307Y13946D01*
X39309Y13936D01*
X39312Y13925D01*
X39317Y13913D01*
X39324Y13901D01*
X39335Y13890D01*
X39336Y13889D01*
X39340Y13885D01*
X39347Y13880D01*
X39355Y13875D01*
X39366Y13870D01*
X39379Y13866D01*
X39394Y13862D01*
X39410Y13861D01*
X39418D01*
X39426Y13863D01*
X39437Y13865D01*
X39449Y13868D01*
X39461Y13873D01*
X39474Y13880D01*
X39486Y13890D01*
X39487Y13891D01*
X39491Y13895D01*
X39496Y13902D01*
X39503Y13911D01*
X39509Y13923D01*
X39516Y13938D01*
X39521Y13955D01*
X39525Y13976D01*
X39604Y13962D01*
Y13961D01*
X39603Y13958D01*
X39602Y13954D01*
X39601Y13949D01*
X39599Y13942D01*
X39596Y13935D01*
X39591Y13917D01*
X39582Y13897D01*
X39570Y13877D01*
X39557Y13857D01*
X39539Y13840D01*
X39538Y13839D01*
X39536Y13838D01*
X39533Y13836D01*
X39530Y13833D01*
X39525Y13830D01*
X39519Y13826D01*
X39512Y13822D01*
X39504Y13818D01*
X39485Y13810D01*
X39464Y13803D01*
X39439Y13798D01*
X39426Y13796D01*
X39403D01*
X39393Y13797D01*
X39381Y13799D01*
X39366Y13802D01*
X39349Y13807D01*
X39333Y13812D01*
X39316Y13819D01*
X39315D01*
X39314Y13820D01*
X39309Y13823D01*
X39300Y13829D01*
X39291Y13835D01*
X39280Y13844D01*
X39269Y13855D01*
X39258Y13867D01*
X39249Y13880D01*
X39248Y13882D01*
X39245Y13887D01*
X39241Y13895D01*
X39237Y13905D01*
X39232Y13917D01*
X39228Y13931D01*
X39226Y13947D01*
X39225Y13963D01*
Y13965D01*
Y13970D01*
X39226Y13978D01*
X39227Y13988D01*
X39230Y14000D01*
X39235Y14013D01*
X39240Y14026D01*
X39248Y14039D01*
X39249Y14040D01*
X39251Y14044D01*
X39257Y14051D01*
X39264Y14058D01*
X39274Y14066D01*
X39285Y14076D01*
X39298Y14084D01*
X39313Y14092D01*
X39312D01*
X39311Y14093D01*
X39308Y14094D01*
X39304Y14095D01*
X39294Y14099D01*
X39281Y14104D01*
X39266Y14112D01*
X39251Y14121D01*
X39238Y14133D01*
X39225Y14147D01*
X39224Y14149D01*
X39220Y14154D01*
X39214Y14163D01*
X39209Y14175D01*
X39203Y14190D01*
X39198Y14208D01*
X39194Y14228D01*
X39193Y14250D01*
Y14251D01*
Y14254D01*
Y14259D01*
X39194Y14264D01*
X39195Y14272D01*
X39197Y14280D01*
X39199Y14289D01*
X39201Y14299D01*
X39208Y14321D01*
X39214Y14334D01*
X39219Y14345D01*
X39226Y14357D01*
X39235Y14369D01*
X39244Y14381D01*
X39255Y14392D01*
X39256Y14393D01*
X39258Y14395D01*
X39262Y14397D01*
X39266Y14401D01*
X39272Y14406D01*
X39279Y14410D01*
X39287Y14416D01*
X39298Y14420D01*
X39308Y14426D01*
X39320Y14432D01*
X39332Y14436D01*
X39346Y14441D01*
X39361Y14444D01*
X39376Y14447D01*
X39392Y14449D01*
X39410Y14450D01*
X39418D01*
X39423Y14449D01*
D02*
G37*
G36*
X40225Y13799D02*
X39928D01*
X39921Y13800D01*
X39913D01*
X39893Y13801D01*
X39873Y13804D01*
X39851Y13807D01*
X39830Y13811D01*
X39820Y13814D01*
X39812Y13817D01*
X39811D01*
X39810Y13818D01*
X39804Y13820D01*
X39796Y13824D01*
X39786Y13831D01*
X39775Y13839D01*
X39763Y13850D01*
X39752Y13863D01*
X39741Y13878D01*
Y13879D01*
X39740Y13880D01*
X39736Y13885D01*
X39732Y13894D01*
X39727Y13906D01*
X39722Y13920D01*
X39717Y13937D01*
X39715Y13954D01*
X39714Y13974D01*
Y13975D01*
Y13977D01*
Y13980D01*
X39715Y13985D01*
Y13991D01*
X39716Y13998D01*
X39719Y14014D01*
X39725Y14032D01*
X39732Y14052D01*
X39743Y14071D01*
X39751Y14080D01*
X39758Y14089D01*
X39759Y14090D01*
X39760Y14091D01*
X39763Y14094D01*
X39766Y14097D01*
X39771Y14101D01*
X39777Y14104D01*
X39784Y14109D01*
X39791Y14114D01*
X39801Y14119D01*
X39811Y14124D01*
X39822Y14129D01*
X39834Y14134D01*
X39848Y14138D01*
X39862Y14142D01*
X39877Y14145D01*
X39894Y14148D01*
X39892Y14149D01*
X39888Y14150D01*
X39883Y14154D01*
X39876Y14158D01*
X39859Y14168D01*
X39851Y14174D01*
X39843Y14180D01*
X39841Y14182D01*
X39837Y14187D01*
X39829Y14194D01*
X39820Y14203D01*
X39810Y14216D01*
X39798Y14230D01*
X39786Y14247D01*
X39773Y14265D01*
X39663Y14439D01*
X39768D01*
X39852Y14306D01*
Y14305D01*
X39854Y14303D01*
X39856Y14300D01*
X39859Y14297D01*
X39865Y14286D01*
X39874Y14273D01*
X39884Y14260D01*
X39894Y14245D01*
X39904Y14231D01*
X39913Y14218D01*
X39914Y14217D01*
X39917Y14213D01*
X39922Y14208D01*
X39928Y14201D01*
X39942Y14187D01*
X39949Y14181D01*
X39957Y14175D01*
X39958Y14174D01*
X39960Y14174D01*
X39963Y14172D01*
X39969Y14169D01*
X39974Y14166D01*
X39981Y14163D01*
X39996Y14159D01*
X39997D01*
X39998Y14158D01*
X40002D01*
X40007Y14157D01*
X40013Y14156D01*
X40021D01*
X40031Y14155D01*
X40140D01*
Y14439D01*
X40225D01*
Y13799D01*
D02*
G37*
G36*
X26939Y25054D02*
X26439D01*
X26440Y25053D01*
X26443Y25049D01*
X26449Y25043D01*
X26455Y25034D01*
X26464Y25024D01*
X26473Y25011D01*
X26483Y24996D01*
X26493Y24979D01*
Y24979D01*
X26494Y24978D01*
X26498Y24972D01*
X26503Y24963D01*
X26508Y24952D01*
X26515Y24939D01*
X26521Y24925D01*
X26527Y24911D01*
X26533Y24897D01*
X26457D01*
Y24898D01*
X26455Y24900D01*
X26454Y24904D01*
X26452Y24908D01*
X26449Y24914D01*
X26445Y24920D01*
X26436Y24936D01*
X26426Y24954D01*
X26413Y24973D01*
X26398Y24992D01*
X26382Y25012D01*
X26381Y25013D01*
X26380Y25014D01*
X26378Y25016D01*
X26375Y25020D01*
X26366Y25028D01*
X26355Y25040D01*
X26342Y25051D01*
X26327Y25063D01*
X26312Y25073D01*
X26296Y25082D01*
Y25133D01*
X26939D01*
Y25054D01*
D02*
G37*
G36*
X26693Y24727D02*
X26702D01*
X26713Y24726D01*
X26724Y24725D01*
X26749Y24722D01*
X26775Y24719D01*
X26800Y24713D01*
X26812Y24709D01*
X26823Y24706D01*
X26824D01*
X26826Y24705D01*
X26829Y24703D01*
X26833Y24701D01*
X26843Y24696D01*
X26856Y24687D01*
X26870Y24676D01*
X26885Y24663D01*
X26901Y24647D01*
X26915Y24626D01*
Y24625D01*
X26917Y24623D01*
X26918Y24621D01*
X26920Y24616D01*
X26923Y24611D01*
X26926Y24603D01*
X26929Y24596D01*
X26932Y24586D01*
X26936Y24576D01*
X26939Y24565D01*
X26942Y24553D01*
X26944Y24539D01*
X26946Y24525D01*
X26948Y24511D01*
X26950Y24477D01*
Y24469D01*
X26949Y24463D01*
Y24455D01*
X26948Y24446D01*
X26947Y24436D01*
X26946Y24426D01*
X26943Y24403D01*
X26937Y24378D01*
X26930Y24354D01*
X26920Y24330D01*
Y24329D01*
X26918Y24328D01*
X26916Y24325D01*
X26914Y24321D01*
X26907Y24311D01*
X26896Y24299D01*
X26883Y24285D01*
X26869Y24272D01*
X26850Y24259D01*
X26830Y24249D01*
X26829D01*
X26827Y24248D01*
X26823Y24247D01*
X26819Y24245D01*
X26813Y24243D01*
X26806Y24242D01*
X26797Y24239D01*
X26787Y24237D01*
X26776Y24235D01*
X26764Y24232D01*
X26751Y24231D01*
X26737Y24229D01*
X26722Y24227D01*
X26705Y24226D01*
X26687Y24225D01*
X26669D01*
X26299D01*
Y24310D01*
X26669D01*
X26670D01*
X26673D01*
X26677D01*
X26683D01*
X26689Y24311D01*
X26698D01*
X26715Y24312D01*
X26736Y24314D01*
X26756Y24317D01*
X26775Y24320D01*
X26784Y24322D01*
X26792Y24325D01*
X26794Y24326D01*
X26798Y24328D01*
X26805Y24332D01*
X26814Y24338D01*
X26823Y24344D01*
X26834Y24354D01*
X26844Y24365D01*
X26852Y24378D01*
X26853Y24379D01*
X26856Y24384D01*
X26858Y24392D01*
X26862Y24403D01*
X26867Y24416D01*
X26870Y24433D01*
X26872Y24451D01*
X26873Y24470D01*
Y24479D01*
X26872Y24485D01*
Y24493D01*
X26871Y24501D01*
X26868Y24522D01*
X26863Y24544D01*
X26856Y24565D01*
X26846Y24586D01*
X26839Y24595D01*
X26832Y24603D01*
X26831Y24604D01*
X26830Y24605D01*
X26827Y24607D01*
X26823Y24610D01*
X26818Y24612D01*
X26812Y24616D01*
X26804Y24620D01*
X26796Y24623D01*
X26785Y24627D01*
X26773Y24630D01*
X26760Y24634D01*
X26745Y24636D01*
X26728Y24639D01*
X26711Y24641D01*
X26690Y24643D01*
X26669D01*
X26299D01*
Y24728D01*
X26669D01*
X26670D01*
X26674D01*
X26678D01*
X26685D01*
X26693Y24727D01*
D02*
G37*
G36*
X33601Y21186D02*
X33608Y21185D01*
X33616Y21185D01*
X33626Y21183D01*
X33637Y21181D01*
X33661Y21175D01*
X33686Y21166D01*
X33699Y21160D01*
X33711Y21153D01*
X33724Y21146D01*
X33736Y21136D01*
X33736Y21136D01*
X33739Y21134D01*
X33743Y21130D01*
X33748Y21125D01*
X33753Y21119D01*
X33761Y21111D01*
X33767Y21102D01*
X33774Y21092D01*
X33782Y21081D01*
X33788Y21068D01*
X33795Y21054D01*
X33801Y21039D01*
X33806Y21024D01*
X33810Y21006D01*
X33812Y20988D01*
X33813Y20968D01*
Y20960D01*
X33812Y20953D01*
X33811Y20946D01*
X33810Y20938D01*
X33810Y20928D01*
X33807Y20917D01*
X33801Y20894D01*
X33793Y20871D01*
X33787Y20859D01*
X33781Y20847D01*
X33773Y20836D01*
X33765Y20825D01*
X33764Y20824D01*
X33763Y20822D01*
X33760Y20820D01*
X33756Y20817D01*
X33751Y20812D01*
X33746Y20807D01*
X33738Y20802D01*
X33730Y20797D01*
X33722Y20792D01*
X33712Y20786D01*
X33689Y20776D01*
X33663Y20768D01*
X33650Y20765D01*
X33635Y20763D01*
X33628Y20845D01*
X33629D01*
X33631D01*
X33634Y20846D01*
X33639Y20847D01*
X33649Y20850D01*
X33663Y20854D01*
X33676Y20859D01*
X33692Y20866D01*
X33706Y20876D01*
X33719Y20887D01*
X33720Y20889D01*
X33724Y20892D01*
X33728Y20900D01*
X33734Y20910D01*
X33739Y20921D01*
X33744Y20935D01*
X33748Y20951D01*
X33749Y20968D01*
Y20974D01*
X33748Y20977D01*
X33747Y20989D01*
X33743Y21001D01*
X33738Y21017D01*
X33731Y21033D01*
X33720Y21050D01*
X33713Y21057D01*
X33706Y21064D01*
X33705Y21065D01*
X33704Y21066D01*
X33701Y21068D01*
X33699Y21071D01*
X33688Y21077D01*
X33675Y21085D01*
X33660Y21091D01*
X33640Y21098D01*
X33617Y21102D01*
X33605Y21104D01*
X33592D01*
X33591D01*
X33590D01*
X33586D01*
X33581Y21103D01*
X33576D01*
X33569Y21102D01*
X33554Y21099D01*
X33537Y21095D01*
X33519Y21088D01*
X33503Y21079D01*
X33487Y21066D01*
X33486D01*
X33485Y21064D01*
X33480Y21060D01*
X33474Y21051D01*
X33467Y21040D01*
X33460Y21026D01*
X33454Y21009D01*
X33449Y20989D01*
X33447Y20978D01*
Y20961D01*
X33448Y20953D01*
X33449Y20944D01*
X33452Y20933D01*
X33455Y20922D01*
X33459Y20910D01*
X33465Y20898D01*
X33466Y20897D01*
X33467Y20893D01*
X33472Y20888D01*
X33477Y20880D01*
X33483Y20873D01*
X33492Y20866D01*
X33500Y20857D01*
X33510Y20851D01*
X33500Y20777D01*
X33171Y20839D01*
Y21157D01*
X33246D01*
Y20901D01*
X33418Y20866D01*
X33418Y20867D01*
X33417Y20869D01*
X33415Y20872D01*
X33412Y20877D01*
X33409Y20882D01*
X33406Y20889D01*
X33398Y20903D01*
X33391Y20922D01*
X33384Y20942D01*
X33380Y20965D01*
X33378Y20976D01*
Y20996D01*
X33379Y21001D01*
X33380Y21009D01*
X33381Y21017D01*
X33382Y21026D01*
X33385Y21037D01*
X33392Y21059D01*
X33396Y21071D01*
X33403Y21083D01*
X33409Y21095D01*
X33417Y21107D01*
X33426Y21118D01*
X33436Y21129D01*
X33437Y21130D01*
X33439Y21132D01*
X33442Y21135D01*
X33446Y21138D01*
X33453Y21143D01*
X33459Y21148D01*
X33467Y21153D01*
X33477Y21159D01*
X33487Y21163D01*
X33498Y21169D01*
X33511Y21173D01*
X33524Y21178D01*
X33538Y21182D01*
X33553Y21185D01*
X33569Y21186D01*
X33586Y21187D01*
X33587D01*
X33590D01*
X33594D01*
X33601Y21186D01*
D02*
G37*
G36*
X33604Y20690D02*
X33610Y20688D01*
X33617Y20685D01*
X33626Y20683D01*
X33636Y20679D01*
X33647Y20674D01*
X33659Y20669D01*
X33685Y20656D01*
X33711Y20639D01*
X33724Y20629D01*
X33736Y20619D01*
X33748Y20608D01*
X33759Y20595D01*
X33760Y20594D01*
X33761Y20592D01*
X33763Y20587D01*
X33767Y20583D01*
X33772Y20575D01*
X33776Y20568D01*
X33781Y20558D01*
X33786Y20548D01*
X33791Y20535D01*
X33796Y20523D01*
X33800Y20509D01*
X33805Y20494D01*
X33809Y20478D01*
X33810Y20462D01*
X33812Y20444D01*
X33813Y20425D01*
Y20415D01*
X33812Y20408D01*
Y20400D01*
X33811Y20389D01*
X33810Y20378D01*
X33808Y20365D01*
X33803Y20339D01*
X33796Y20311D01*
X33786Y20283D01*
X33779Y20270D01*
X33772Y20257D01*
X33771Y20256D01*
X33770Y20254D01*
X33767Y20251D01*
X33763Y20247D01*
X33760Y20241D01*
X33754Y20235D01*
X33748Y20228D01*
X33740Y20220D01*
X33732Y20213D01*
X33724Y20205D01*
X33702Y20188D01*
X33677Y20172D01*
X33650Y20158D01*
X33649D01*
X33646Y20156D01*
X33641Y20156D01*
X33636Y20153D01*
X33628Y20151D01*
X33619Y20148D01*
X33609Y20144D01*
X33598Y20142D01*
X33586Y20139D01*
X33572Y20135D01*
X33543Y20131D01*
X33511Y20127D01*
X33478Y20125D01*
X33477D01*
X33473D01*
X33467D01*
X33461Y20126D01*
X33452D01*
X33442Y20127D01*
X33430Y20128D01*
X33418Y20130D01*
X33392Y20134D01*
X33362Y20141D01*
X33332Y20150D01*
X33304Y20163D01*
X33303Y20164D01*
X33300Y20165D01*
X33296Y20167D01*
X33292Y20170D01*
X33285Y20174D01*
X33278Y20179D01*
X33261Y20191D01*
X33243Y20206D01*
X33224Y20225D01*
X33206Y20246D01*
X33190Y20271D01*
X33189Y20272D01*
X33188Y20275D01*
X33186Y20278D01*
X33184Y20283D01*
X33181Y20290D01*
X33178Y20298D01*
X33174Y20307D01*
X33171Y20317D01*
X33167Y20328D01*
X33163Y20340D01*
X33158Y20366D01*
X33153Y20396D01*
X33151Y20426D01*
Y20436D01*
X33152Y20442D01*
X33153Y20450D01*
X33154Y20461D01*
X33155Y20471D01*
X33158Y20483D01*
X33163Y20508D01*
X33172Y20535D01*
X33177Y20549D01*
X33184Y20562D01*
X33192Y20575D01*
X33200Y20588D01*
X33201Y20589D01*
X33202Y20591D01*
X33205Y20595D01*
X33209Y20599D01*
X33214Y20604D01*
X33221Y20610D01*
X33228Y20617D01*
X33235Y20624D01*
X33245Y20632D01*
X33256Y20639D01*
X33267Y20647D01*
X33279Y20655D01*
X33293Y20661D01*
X33307Y20669D01*
X33321Y20674D01*
X33338Y20680D01*
X33357Y20597D01*
X33357D01*
X33355Y20596D01*
X33351Y20594D01*
X33346Y20592D01*
X33341Y20590D01*
X33333Y20587D01*
X33319Y20580D01*
X33302Y20571D01*
X33285Y20560D01*
X33270Y20546D01*
X33256Y20531D01*
X33254Y20529D01*
X33250Y20523D01*
X33246Y20514D01*
X33239Y20502D01*
X33234Y20486D01*
X33228Y20469D01*
X33224Y20448D01*
X33223Y20425D01*
Y20417D01*
X33224Y20413D01*
Y20406D01*
X33225Y20399D01*
X33228Y20381D01*
X33232Y20362D01*
X33238Y20341D01*
X33247Y20320D01*
X33259Y20301D01*
Y20300D01*
X33261Y20299D01*
X33266Y20292D01*
X33273Y20284D01*
X33284Y20274D01*
X33298Y20262D01*
X33314Y20251D01*
X33333Y20241D01*
X33355Y20231D01*
X33356D01*
X33357Y20230D01*
X33360Y20229D01*
X33365Y20229D01*
X33370Y20227D01*
X33377Y20225D01*
X33393Y20222D01*
X33411Y20218D01*
X33431Y20215D01*
X33454Y20213D01*
X33478Y20212D01*
X33479D01*
X33481D01*
X33486D01*
X33492D01*
X33498Y20213D01*
X33506D01*
X33516Y20214D01*
X33526Y20215D01*
X33548Y20217D01*
X33572Y20222D01*
X33596Y20228D01*
X33620Y20235D01*
X33621D01*
X33623Y20236D01*
X33626Y20238D01*
X33630Y20240D01*
X33641Y20245D01*
X33654Y20254D01*
X33669Y20264D01*
X33685Y20277D01*
X33699Y20291D01*
X33712Y20309D01*
Y20310D01*
X33712Y20312D01*
X33714Y20315D01*
X33716Y20318D01*
X33718Y20323D01*
X33721Y20328D01*
X33726Y20341D01*
X33732Y20358D01*
X33736Y20376D01*
X33740Y20397D01*
X33741Y20418D01*
Y20425D01*
X33740Y20430D01*
Y20437D01*
X33739Y20443D01*
X33736Y20460D01*
X33731Y20479D01*
X33724Y20499D01*
X33713Y20519D01*
X33708Y20529D01*
X33700Y20538D01*
X33700Y20539D01*
X33699Y20540D01*
X33696Y20543D01*
X33693Y20547D01*
X33688Y20550D01*
X33683Y20555D01*
X33677Y20560D01*
X33670Y20565D01*
X33662Y20571D01*
X33652Y20577D01*
X33643Y20583D01*
X33632Y20588D01*
X33620Y20593D01*
X33607Y20597D01*
X33593Y20602D01*
X33578Y20606D01*
X33600Y20691D01*
X33601D01*
X33604Y20690D01*
D02*
G37*
G36*
X27185Y54920D02*
X27104D01*
Y55455D01*
X26917Y54920D01*
X26841D01*
X26656Y55465D01*
Y54920D01*
X26575D01*
Y55560D01*
X26702D01*
X26853Y55106D01*
Y55105D01*
X26854Y55103D01*
X26855Y55100D01*
X26857Y55096D01*
X26861Y55085D01*
X26865Y55071D01*
X26870Y55055D01*
X26875Y55039D01*
X26880Y55024D01*
X26884Y55012D01*
X26885Y55013D01*
X26886Y55018D01*
X26888Y55026D01*
X26892Y55037D01*
X26897Y55052D01*
X26903Y55070D01*
X26910Y55090D01*
X26918Y55114D01*
X27071Y55560D01*
X27185D01*
Y54920D01*
D02*
G37*
G36*
X28232D02*
X28153D01*
Y55420D01*
X28152Y55419D01*
X28148Y55416D01*
X28142Y55410D01*
X28133Y55404D01*
X28123Y55395D01*
X28110Y55386D01*
X28095Y55376D01*
X28078Y55366D01*
X28077D01*
X28076Y55365D01*
X28071Y55361D01*
X28062Y55356D01*
X28051Y55351D01*
X28038Y55344D01*
X28024Y55338D01*
X28010Y55331D01*
X27996Y55326D01*
Y55402D01*
X27997D01*
X27999Y55404D01*
X28003Y55404D01*
X28007Y55407D01*
X28013Y55410D01*
X28019Y55414D01*
X28035Y55423D01*
X28053Y55433D01*
X28072Y55446D01*
X28091Y55461D01*
X28111Y55477D01*
X28112Y55478D01*
X28113Y55478D01*
X28115Y55481D01*
X28119Y55484D01*
X28127Y55493D01*
X28138Y55504D01*
X28150Y55517D01*
X28162Y55532D01*
X28172Y55547D01*
X28181Y55563D01*
X28232D01*
Y54920D01*
D02*
G37*
G36*
X27586Y55559D02*
X27604Y55558D01*
X27623Y55556D01*
X27641Y55553D01*
X27657Y55551D01*
X27658D01*
X27660Y55550D01*
X27662D01*
X27666Y55548D01*
X27676Y55545D01*
X27689Y55540D01*
X27704Y55534D01*
X27720Y55526D01*
X27735Y55516D01*
X27750Y55504D01*
X27751Y55503D01*
X27752Y55502D01*
X27755Y55500D01*
X27758Y55497D01*
X27768Y55488D01*
X27779Y55475D01*
X27791Y55459D01*
X27804Y55441D01*
X27816Y55419D01*
X27826Y55395D01*
Y55394D01*
X27827Y55392D01*
X27829Y55389D01*
X27830Y55383D01*
X27832Y55377D01*
X27834Y55369D01*
X27836Y55361D01*
X27839Y55351D01*
X27842Y55341D01*
X27843Y55329D01*
X27848Y55303D01*
X27851Y55274D01*
X27852Y55243D01*
Y55242D01*
Y55240D01*
Y55235D01*
Y55231D01*
X27851Y55224D01*
Y55217D01*
X27850Y55199D01*
X27847Y55179D01*
X27844Y55158D01*
X27840Y55135D01*
X27834Y55113D01*
Y55112D01*
X27833Y55110D01*
X27832Y55108D01*
X27831Y55104D01*
X27828Y55094D01*
X27822Y55081D01*
X27817Y55066D01*
X27809Y55051D01*
X27800Y55036D01*
X27791Y55021D01*
X27790Y55019D01*
X27786Y55014D01*
X27781Y55008D01*
X27773Y55000D01*
X27765Y54990D01*
X27755Y54981D01*
X27745Y54971D01*
X27733Y54963D01*
X27731Y54962D01*
X27727Y54959D01*
X27721Y54955D01*
X27711Y54951D01*
X27700Y54945D01*
X27687Y54940D01*
X27672Y54935D01*
X27656Y54930D01*
X27654D01*
X27651Y54929D01*
X27648Y54928D01*
X27639Y54927D01*
X27626Y54926D01*
X27611Y54924D01*
X27594Y54922D01*
X27574Y54921D01*
X27553Y54920D01*
X27323D01*
Y55560D01*
X27569D01*
X27586Y55559D01*
D02*
G37*
G36*
X39871Y18008D02*
X39877Y18007D01*
X39885Y18006D01*
X39895Y18004D01*
X39905Y18001D01*
X39926Y17995D01*
X39938Y17990D01*
X39949Y17984D01*
X39961Y17977D01*
X39972Y17970D01*
X39983Y17961D01*
X39995Y17950D01*
X39995Y17949D01*
X39997Y17948D01*
X40000Y17945D01*
X40003Y17940D01*
X40007Y17934D01*
X40012Y17927D01*
X40017Y17919D01*
X40022Y17910D01*
X40028Y17900D01*
X40032Y17887D01*
X40037Y17875D01*
X40042Y17862D01*
X40044Y17847D01*
X40047Y17831D01*
X40049Y17815D01*
X40050Y17798D01*
Y17789D01*
X40049Y17782D01*
X40048Y17774D01*
X40047Y17765D01*
X40045Y17754D01*
X40043Y17743D01*
X40036Y17718D01*
X40032Y17705D01*
X40027Y17693D01*
X40020Y17680D01*
X40013Y17667D01*
X40005Y17655D01*
X39995Y17644D01*
X39994Y17643D01*
X39992Y17642D01*
X39989Y17639D01*
X39984Y17635D01*
X39979Y17631D01*
X39972Y17626D01*
X39965Y17621D01*
X39956Y17616D01*
X39946Y17610D01*
X39935Y17605D01*
X39912Y17596D01*
X39898Y17593D01*
X39885Y17590D01*
X39870Y17588D01*
X39855Y17587D01*
X39854D01*
X39852D01*
X39848D01*
X39845Y17588D01*
X39839D01*
X39833Y17589D01*
X39818Y17591D01*
X39801Y17594D01*
X39785Y17600D01*
X39767Y17608D01*
X39750Y17618D01*
X39750D01*
X39749Y17620D01*
X39744Y17624D01*
X39737Y17631D01*
X39727Y17642D01*
X39718Y17654D01*
X39708Y17670D01*
X39700Y17688D01*
X39693Y17709D01*
Y17708D01*
X39692Y17707D01*
X39691Y17704D01*
X39689Y17701D01*
X39686Y17692D01*
X39680Y17681D01*
X39673Y17669D01*
X39664Y17657D01*
X39653Y17646D01*
X39642Y17636D01*
X39640Y17635D01*
X39637Y17632D01*
X39629Y17629D01*
X39620Y17625D01*
X39608Y17620D01*
X39594Y17617D01*
X39578Y17614D01*
X39562Y17613D01*
X39561D01*
X39559D01*
X39555D01*
X39550Y17614D01*
X39544Y17615D01*
X39537Y17616D01*
X39521Y17619D01*
X39503Y17625D01*
X39483Y17634D01*
X39473Y17640D01*
X39463Y17646D01*
X39454Y17654D01*
X39444Y17663D01*
X39444Y17664D01*
X39443Y17666D01*
X39440Y17668D01*
X39437Y17672D01*
X39433Y17677D01*
X39430Y17683D01*
X39425Y17691D01*
X39420Y17698D01*
X39416Y17707D01*
X39411Y17717D01*
X39407Y17728D01*
X39404Y17740D01*
X39398Y17766D01*
X39397Y17781D01*
X39396Y17796D01*
Y17804D01*
X39397Y17810D01*
X39398Y17817D01*
X39399Y17826D01*
X39400Y17835D01*
X39403Y17844D01*
X39408Y17866D01*
X39417Y17888D01*
X39422Y17900D01*
X39429Y17911D01*
X39437Y17921D01*
X39445Y17931D01*
X39446Y17932D01*
X39447Y17933D01*
X39450Y17936D01*
X39454Y17939D01*
X39459Y17943D01*
X39465Y17948D01*
X39479Y17957D01*
X39496Y17966D01*
X39517Y17974D01*
X39540Y17981D01*
X39552Y17982D01*
X39565Y17983D01*
X39566D01*
X39566D01*
X39572D01*
X39580Y17982D01*
X39591Y17980D01*
X39603Y17977D01*
X39616Y17973D01*
X39629Y17967D01*
X39642Y17959D01*
X39644Y17958D01*
X39648Y17954D01*
X39653Y17949D01*
X39661Y17941D01*
X39669Y17931D01*
X39677Y17919D01*
X39686Y17905D01*
X39693Y17888D01*
Y17889D01*
X39694Y17891D01*
X39695Y17894D01*
X39697Y17898D01*
X39701Y17909D01*
X39708Y17922D01*
X39717Y17936D01*
X39727Y17950D01*
X39740Y17964D01*
X39755Y17977D01*
X39756D01*
X39757Y17978D01*
X39762Y17982D01*
X39772Y17987D01*
X39784Y17993D01*
X39799Y17998D01*
X39816Y18004D01*
X39836Y18008D01*
X39857Y18009D01*
X39858D01*
X39860D01*
X39865D01*
X39871Y18008D01*
D02*
G37*
G36*
X39841Y17515D02*
X39847Y17513D01*
X39854Y17510D01*
X39862Y17507D01*
X39873Y17504D01*
X39884Y17499D01*
X39896Y17494D01*
X39922Y17481D01*
X39947Y17464D01*
X39960Y17454D01*
X39973Y17444D01*
X39984Y17433D01*
X39995Y17420D01*
X39996Y17419D01*
X39998Y17417D01*
X40000Y17412D01*
X40004Y17408D01*
X40008Y17400D01*
X40013Y17393D01*
X40018Y17383D01*
X40022Y17373D01*
X40028Y17360D01*
X40032Y17348D01*
X40037Y17334D01*
X40042Y17319D01*
X40045Y17303D01*
X40047Y17287D01*
X40049Y17269D01*
X40050Y17250D01*
Y17240D01*
X40049Y17233D01*
Y17225D01*
X40048Y17214D01*
X40046Y17203D01*
X40044Y17190D01*
X40040Y17164D01*
X40032Y17136D01*
X40022Y17108D01*
X40016Y17095D01*
X40008Y17082D01*
X40007Y17081D01*
X40007Y17079D01*
X40004Y17076D01*
X40000Y17072D01*
X39996Y17066D01*
X39991Y17060D01*
X39984Y17053D01*
X39977Y17045D01*
X39969Y17038D01*
X39960Y17029D01*
X39939Y17013D01*
X39914Y16997D01*
X39886Y16983D01*
X39885D01*
X39883Y16981D01*
X39878Y16980D01*
X39873Y16978D01*
X39865Y16976D01*
X39856Y16973D01*
X39846Y16969D01*
X39835Y16967D01*
X39823Y16964D01*
X39809Y16960D01*
X39780Y16956D01*
X39748Y16952D01*
X39714Y16950D01*
X39713D01*
X39710D01*
X39704D01*
X39698Y16951D01*
X39689D01*
X39679Y16952D01*
X39667Y16953D01*
X39655Y16955D01*
X39628Y16959D01*
X39599Y16966D01*
X39569Y16975D01*
X39541Y16988D01*
X39540Y16989D01*
X39537Y16990D01*
X39533Y16992D01*
X39529Y16995D01*
X39522Y16999D01*
X39515Y17004D01*
X39498Y17016D01*
X39480Y17031D01*
X39461Y17050D01*
X39443Y17071D01*
X39427Y17096D01*
X39426Y17097D01*
X39425Y17100D01*
X39423Y17103D01*
X39420Y17108D01*
X39418Y17115D01*
X39415Y17123D01*
X39411Y17132D01*
X39407Y17142D01*
X39404Y17153D01*
X39400Y17165D01*
X39395Y17191D01*
X39390Y17221D01*
X39388Y17251D01*
Y17261D01*
X39389Y17267D01*
X39390Y17275D01*
X39391Y17286D01*
X39392Y17296D01*
X39395Y17308D01*
X39400Y17333D01*
X39408Y17360D01*
X39414Y17374D01*
X39420Y17387D01*
X39429Y17400D01*
X39437Y17413D01*
X39438Y17414D01*
X39439Y17416D01*
X39442Y17420D01*
X39446Y17424D01*
X39451Y17429D01*
X39457Y17435D01*
X39465Y17442D01*
X39472Y17449D01*
X39481Y17457D01*
X39493Y17464D01*
X39504Y17472D01*
X39516Y17480D01*
X39529Y17486D01*
X39543Y17494D01*
X39558Y17499D01*
X39575Y17505D01*
X39594Y17422D01*
X39593D01*
X39591Y17421D01*
X39588Y17419D01*
X39583Y17417D01*
X39578Y17415D01*
X39570Y17412D01*
X39555Y17405D01*
X39539Y17396D01*
X39522Y17385D01*
X39506Y17371D01*
X39493Y17356D01*
X39491Y17354D01*
X39487Y17348D01*
X39482Y17339D01*
X39476Y17327D01*
X39470Y17311D01*
X39465Y17294D01*
X39461Y17273D01*
X39460Y17250D01*
Y17242D01*
X39461Y17238D01*
Y17231D01*
X39462Y17224D01*
X39465Y17206D01*
X39468Y17187D01*
X39475Y17166D01*
X39484Y17145D01*
X39496Y17126D01*
Y17125D01*
X39498Y17124D01*
X39503Y17117D01*
X39510Y17109D01*
X39521Y17099D01*
X39535Y17087D01*
X39551Y17076D01*
X39570Y17066D01*
X39591Y17056D01*
X39592D01*
X39594Y17055D01*
X39597Y17054D01*
X39602Y17054D01*
X39607Y17052D01*
X39614Y17050D01*
X39629Y17047D01*
X39648Y17043D01*
X39668Y17040D01*
X39690Y17038D01*
X39714Y17037D01*
X39715D01*
X39718D01*
X39723D01*
X39728D01*
X39735Y17038D01*
X39743D01*
X39752Y17039D01*
X39762Y17040D01*
X39785Y17042D01*
X39809Y17047D01*
X39833Y17053D01*
X39857Y17060D01*
X39858D01*
X39860Y17061D01*
X39862Y17063D01*
X39867Y17065D01*
X39878Y17070D01*
X39891Y17079D01*
X39906Y17089D01*
X39922Y17102D01*
X39935Y17116D01*
X39948Y17134D01*
Y17135D01*
X39949Y17137D01*
X39951Y17140D01*
X39953Y17143D01*
X39955Y17148D01*
X39958Y17153D01*
X39963Y17166D01*
X39969Y17183D01*
X39973Y17201D01*
X39977Y17222D01*
X39978Y17243D01*
Y17250D01*
X39977Y17255D01*
Y17262D01*
X39976Y17268D01*
X39972Y17285D01*
X39968Y17304D01*
X39960Y17324D01*
X39950Y17344D01*
X39945Y17354D01*
X39937Y17363D01*
X39936Y17364D01*
X39935Y17365D01*
X39933Y17368D01*
X39930Y17372D01*
X39925Y17375D01*
X39920Y17380D01*
X39914Y17385D01*
X39907Y17390D01*
X39898Y17396D01*
X39889Y17402D01*
X39880Y17408D01*
X39869Y17413D01*
X39857Y17418D01*
X39844Y17422D01*
X39830Y17427D01*
X39815Y17431D01*
X39836Y17516D01*
X39837D01*
X39841Y17515D01*
D02*
G37*
G36*
X15677Y7864D02*
Y7864D01*
Y7861D01*
Y7857D01*
Y7852D01*
X15676Y7844D01*
Y7837D01*
X15674Y7819D01*
X15673Y7799D01*
X15669Y7778D01*
X15663Y7758D01*
X15657Y7740D01*
Y7739D01*
X15656Y7738D01*
X15653Y7732D01*
X15649Y7725D01*
X15642Y7715D01*
X15633Y7705D01*
X15623Y7693D01*
X15610Y7682D01*
X15595Y7673D01*
X15593Y7672D01*
X15588Y7669D01*
X15579Y7666D01*
X15567Y7662D01*
X15552Y7657D01*
X15536Y7654D01*
X15517Y7651D01*
X15497Y7650D01*
X15489D01*
X15483Y7651D01*
X15476Y7652D01*
X15468Y7653D01*
X15449Y7656D01*
X15429Y7662D01*
X15407Y7670D01*
X15396Y7676D01*
X15386Y7682D01*
X15377Y7690D01*
X15368Y7698D01*
X15367Y7699D01*
X15366Y7700D01*
X15364Y7704D01*
X15361Y7707D01*
X15357Y7712D01*
X15354Y7718D01*
X15350Y7726D01*
X15345Y7734D01*
X15342Y7743D01*
X15338Y7754D01*
X15334Y7766D01*
X15331Y7779D01*
X15329Y7792D01*
X15326Y7808D01*
X15325Y7824D01*
Y7841D01*
X15402Y7852D01*
Y7852D01*
Y7850D01*
Y7846D01*
X15403Y7840D01*
X15404Y7835D01*
Y7828D01*
X15406Y7813D01*
X15409Y7796D01*
X15415Y7779D01*
X15420Y7765D01*
X15424Y7758D01*
X15429Y7753D01*
X15429Y7752D01*
X15433Y7749D01*
X15439Y7744D01*
X15446Y7740D01*
X15456Y7734D01*
X15467Y7730D01*
X15481Y7727D01*
X15496Y7726D01*
X15502D01*
X15507Y7727D01*
X15515Y7728D01*
X15524Y7729D01*
X15533Y7731D01*
X15542Y7735D01*
X15552Y7740D01*
X15552Y7741D01*
X15555Y7742D01*
X15559Y7746D01*
X15564Y7750D01*
X15569Y7756D01*
X15575Y7763D01*
X15579Y7770D01*
X15583Y7779D01*
Y7780D01*
X15585Y7784D01*
X15586Y7791D01*
X15588Y7799D01*
X15589Y7810D01*
X15590Y7824D01*
X15592Y7840D01*
Y7860D01*
Y8301D01*
X15677D01*
Y7864D01*
D02*
G37*
G36*
X16203Y8231D02*
X16202Y8230D01*
X16201Y8228D01*
X16197Y8224D01*
X16193Y8219D01*
X16188Y8212D01*
X16180Y8205D01*
X16173Y8195D01*
X16164Y8184D01*
X16156Y8173D01*
X16146Y8160D01*
X16136Y8146D01*
X16126Y8131D01*
X16115Y8114D01*
X16103Y8097D01*
X16092Y8077D01*
X16081Y8058D01*
X16080Y8057D01*
X16079Y8053D01*
X16076Y8048D01*
X16071Y8039D01*
X16066Y8029D01*
X16061Y8018D01*
X16054Y8005D01*
X16048Y7990D01*
X16041Y7974D01*
X16032Y7957D01*
X16025Y7938D01*
X16017Y7919D01*
X16003Y7879D01*
X15989Y7837D01*
Y7836D01*
X15988Y7833D01*
X15987Y7828D01*
X15985Y7823D01*
X15983Y7815D01*
X15981Y7806D01*
X15979Y7796D01*
X15977Y7785D01*
X15974Y7772D01*
X15971Y7758D01*
X15967Y7729D01*
X15962Y7696D01*
X15959Y7661D01*
X15879D01*
Y7662D01*
Y7665D01*
Y7668D01*
X15880Y7674D01*
Y7681D01*
X15881Y7691D01*
X15882Y7701D01*
X15882Y7712D01*
X15884Y7725D01*
X15886Y7738D01*
X15889Y7754D01*
X15892Y7769D01*
X15895Y7786D01*
X15898Y7804D01*
X15907Y7842D01*
Y7843D01*
X15908Y7847D01*
X15910Y7852D01*
X15913Y7861D01*
X15916Y7870D01*
X15919Y7881D01*
X15923Y7894D01*
X15929Y7908D01*
X15934Y7924D01*
X15940Y7939D01*
X15954Y7975D01*
X15970Y8011D01*
X15989Y8048D01*
X15990Y8049D01*
X15992Y8053D01*
X15994Y8058D01*
X15998Y8065D01*
X16003Y8073D01*
X16009Y8084D01*
X16016Y8095D01*
X16023Y8107D01*
X16041Y8134D01*
X16059Y8161D01*
X16080Y8190D01*
X16103Y8217D01*
X15789D01*
Y8293D01*
X16203D01*
Y8231D01*
D02*
G37*
%LPC*%
G36*
X6868Y9780D02*
X6866D01*
X6862D01*
X6853Y9779D01*
X6843Y9778D01*
X6831Y9776D01*
X6818Y9772D01*
X6804Y9768D01*
X6791Y9763D01*
X6789Y9762D01*
X6784Y9759D01*
X6778Y9755D01*
X6769Y9750D01*
X6761Y9743D01*
X6751Y9735D01*
X6742Y9726D01*
X6734Y9715D01*
X6733Y9713D01*
X6731Y9709D01*
X6728Y9703D01*
X6725Y9694D01*
X6721Y9685D01*
X6717Y9674D01*
X6716Y9662D01*
X6715Y9649D01*
Y9645D01*
X6716Y9641D01*
X6717Y9632D01*
X6719Y9620D01*
X6725Y9607D01*
X6731Y9592D01*
X6742Y9577D01*
X6747Y9570D01*
X6754Y9563D01*
X6755D01*
X6756Y9561D01*
X6762Y9558D01*
X6771Y9552D01*
X6783Y9545D01*
X6799Y9538D01*
X6817Y9533D01*
X6839Y9529D01*
X6864Y9527D01*
X6864D01*
X6866D01*
X6870D01*
X6875Y9528D01*
X6880D01*
X6887Y9529D01*
X6901Y9532D01*
X6918Y9535D01*
X6936Y9542D01*
X6952Y9551D01*
X6968Y9563D01*
X6970Y9565D01*
X6975Y9570D01*
X6980Y9577D01*
X6987Y9587D01*
X6995Y9600D01*
X7000Y9615D01*
X7005Y9633D01*
X7007Y9652D01*
Y9657D01*
X7006Y9661D01*
X7005Y9670D01*
X7002Y9683D01*
X6998Y9697D01*
X6990Y9713D01*
X6981Y9728D01*
X6968Y9743D01*
X6966Y9744D01*
X6962Y9748D01*
X6953Y9755D01*
X6941Y9761D01*
X6927Y9767D01*
X6910Y9774D01*
X6890Y9778D01*
X6868Y9780D01*
D02*
G37*
G36*
X6034Y30042D02*
X6033D01*
X6031D01*
X6028D01*
X6023Y30041D01*
X6016D01*
X6010Y30040D01*
X5995Y30038D01*
X5978Y30034D01*
X5959Y30028D01*
X5942Y30018D01*
X5926Y30006D01*
X5925D01*
X5924Y30004D01*
X5919Y30000D01*
X5913Y29992D01*
X5905Y29982D01*
X5899Y29969D01*
X5893Y29955D01*
X5888Y29938D01*
X5886Y29929D01*
Y29914D01*
X5887Y29910D01*
X5888Y29900D01*
X5892Y29888D01*
X5896Y29873D01*
X5905Y29857D01*
X5915Y29842D01*
X5922Y29834D01*
X5930Y29827D01*
X5930D01*
X5931Y29825D01*
X5934Y29823D01*
X5937Y29821D01*
X5946Y29815D01*
X5959Y29808D01*
X5975Y29801D01*
X5994Y29795D01*
X6016Y29791D01*
X6040Y29789D01*
X6041D01*
X6043D01*
X6046D01*
X6051Y29790D01*
X6056D01*
X6062Y29791D01*
X6076Y29794D01*
X6091Y29798D01*
X6108Y29804D01*
X6125Y29813D01*
X6139Y29825D01*
X6141Y29827D01*
X6145Y29832D01*
X6151Y29840D01*
X6158Y29850D01*
X6165Y29864D01*
X6172Y29880D01*
X6175Y29897D01*
X6177Y29917D01*
Y29922D01*
X6176Y29926D01*
X6175Y29936D01*
X6173Y29948D01*
X6168Y29963D01*
X6162Y29978D01*
X6152Y29992D01*
X6139Y30006D01*
X6138Y30008D01*
X6132Y30012D01*
X6124Y30017D01*
X6112Y30025D01*
X6097Y30031D01*
X6079Y30037D01*
X6058Y30040D01*
X6034Y30042D01*
D02*
G37*
G36*
X8311Y58949D02*
X8310D01*
X8309D01*
X8303Y58948D01*
X8295Y58948D01*
X8284Y58946D01*
X8273Y58941D01*
X8260Y58935D01*
X8248Y58927D01*
X8236Y58916D01*
X8235Y58914D01*
X8231Y58910D01*
X8227Y58902D01*
X8221Y58890D01*
X8216Y58876D01*
X8211Y58858D01*
X8207Y58837D01*
X8206Y58812D01*
Y58610D01*
X8418D01*
Y58800D01*
X8417Y58812D01*
X8416Y58825D01*
X8415Y58839D01*
X8414Y58854D01*
X8411Y58869D01*
X8407Y58882D01*
X8406Y58884D01*
X8404Y58887D01*
X8401Y58893D01*
X8398Y58900D01*
X8392Y58909D01*
X8386Y58917D01*
X8377Y58925D01*
X8368Y58932D01*
X8367Y58933D01*
X8364Y58935D01*
X8358Y58937D01*
X8351Y58941D01*
X8342Y58944D01*
X8333Y58947D01*
X8322Y58948D01*
X8311Y58949D01*
D02*
G37*
G36*
X11647Y51269D02*
X11646D01*
X11644D01*
X11641D01*
X11636Y51268D01*
X11631D01*
X11625Y51267D01*
X11611Y51264D01*
X11596Y51259D01*
X11579Y51254D01*
X11562Y51245D01*
X11548Y51233D01*
X11546Y51231D01*
X11542Y51226D01*
X11536Y51218D01*
X11529Y51208D01*
X11522Y51194D01*
X11515Y51178D01*
X11512Y51160D01*
X11510Y51141D01*
Y51135D01*
X11511Y51132D01*
X11512Y51122D01*
X11514Y51110D01*
X11519Y51095D01*
X11526Y51080D01*
X11535Y51065D01*
X11548Y51051D01*
X11550Y51050D01*
X11555Y51046D01*
X11563Y51040D01*
X11575Y51033D01*
X11590Y51026D01*
X11608Y51021D01*
X11629Y51017D01*
X11653Y51015D01*
X11654D01*
X11656D01*
X11660D01*
X11664Y51016D01*
X11671D01*
X11677Y51017D01*
X11692Y51020D01*
X11709Y51024D01*
X11728Y51030D01*
X11746Y51039D01*
X11761Y51051D01*
X11762D01*
X11763Y51053D01*
X11768Y51058D01*
X11774Y51065D01*
X11782Y51075D01*
X11788Y51088D01*
X11795Y51103D01*
X11799Y51120D01*
X11801Y51129D01*
Y51144D01*
X11800Y51148D01*
X11799Y51158D01*
X11795Y51170D01*
X11791Y51184D01*
X11783Y51200D01*
X11772Y51216D01*
X11765Y51223D01*
X11758Y51231D01*
X11757D01*
X11756Y51233D01*
X11753Y51234D01*
X11750Y51236D01*
X11741Y51243D01*
X11728Y51249D01*
X11712Y51257D01*
X11693Y51263D01*
X11671Y51267D01*
X11647Y51269D01*
D02*
G37*
G36*
X22369Y38615D02*
X22157D01*
Y38424D01*
X22158Y38413D01*
X22159Y38400D01*
X22160Y38386D01*
X22161Y38371D01*
X22164Y38356D01*
X22168Y38343D01*
X22169Y38341D01*
X22171Y38338D01*
X22174Y38332D01*
X22177Y38325D01*
X22183Y38316D01*
X22189Y38308D01*
X22198Y38300D01*
X22207Y38293D01*
X22208Y38292D01*
X22211Y38290D01*
X22217Y38288D01*
X22224Y38284D01*
X22233Y38281D01*
X22242Y38278D01*
X22253Y38277D01*
X22264Y38276D01*
X22265D01*
X22266D01*
X22272Y38277D01*
X22280Y38277D01*
X22291Y38279D01*
X22302Y38284D01*
X22315Y38290D01*
X22327Y38298D01*
X22339Y38309D01*
X22340Y38311D01*
X22344Y38315D01*
X22348Y38323D01*
X22354Y38335D01*
X22359Y38349D01*
X22364Y38367D01*
X22368Y38388D01*
X22369Y38413D01*
Y38615D01*
D02*
G37*
G36*
X45537Y24917D02*
Y24715D01*
X45823D01*
X45537Y24917D01*
D02*
G37*
G36*
X15586Y15726D02*
X15586D01*
X15584D01*
X15580D01*
X15575Y15725D01*
X15570D01*
X15563Y15725D01*
X15549Y15722D01*
X15532Y15718D01*
X15514Y15712D01*
X15498Y15702D01*
X15482Y15690D01*
X15480Y15688D01*
X15475Y15684D01*
X15470Y15676D01*
X15463Y15666D01*
X15455Y15653D01*
X15450Y15639D01*
X15445Y15621D01*
X15443Y15602D01*
Y15596D01*
X15444Y15592D01*
X15445Y15583D01*
X15448Y15570D01*
X15452Y15556D01*
X15460Y15541D01*
X15469Y15526D01*
X15482Y15511D01*
X15484Y15509D01*
X15488Y15505D01*
X15497Y15499D01*
X15509Y15492D01*
X15523Y15486D01*
X15540Y15479D01*
X15560Y15476D01*
X15582Y15474D01*
X15584D01*
X15588D01*
X15597Y15475D01*
X15607Y15476D01*
X15619Y15478D01*
X15632Y15481D01*
X15646Y15485D01*
X15659Y15491D01*
X15661Y15492D01*
X15666Y15494D01*
X15672Y15498D01*
X15681Y15504D01*
X15689Y15510D01*
X15699Y15518D01*
X15708Y15528D01*
X15716Y15539D01*
X15717Y15541D01*
X15719Y15544D01*
X15722Y15551D01*
X15725Y15559D01*
X15729Y15568D01*
X15733Y15579D01*
X15734Y15591D01*
X15735Y15604D01*
Y15609D01*
X15734Y15613D01*
X15733Y15622D01*
X15731Y15634D01*
X15725Y15647D01*
X15719Y15662D01*
X15708Y15676D01*
X15703Y15684D01*
X15696Y15690D01*
X15695D01*
X15694Y15692D01*
X15688Y15696D01*
X15679Y15701D01*
X15667Y15709D01*
X15651Y15715D01*
X15633Y15721D01*
X15611Y15725D01*
X15586Y15726D01*
D02*
G37*
G36*
X15325Y15199D02*
X15324D01*
X15323D01*
X15317Y15198D01*
X15309Y15198D01*
X15298Y15196D01*
X15287Y15191D01*
X15274Y15185D01*
X15262Y15177D01*
X15250Y15166D01*
X15249Y15164D01*
X15245Y15160D01*
X15241Y15152D01*
X15235Y15140D01*
X15230Y15126D01*
X15225Y15108D01*
X15221Y15087D01*
X15220Y15062D01*
Y14860D01*
X15432D01*
Y15050D01*
X15431Y15062D01*
X15430Y15075D01*
X15429Y15089D01*
X15427Y15104D01*
X15425Y15119D01*
X15421Y15132D01*
X15420Y15134D01*
X15418Y15137D01*
X15415Y15143D01*
X15412Y15150D01*
X15406Y15159D01*
X15400Y15167D01*
X15391Y15175D01*
X15382Y15182D01*
X15381Y15183D01*
X15377Y15185D01*
X15372Y15187D01*
X15365Y15191D01*
X15356Y15194D01*
X15347Y15197D01*
X15336Y15198D01*
X15325Y15199D01*
D02*
G37*
G36*
X11524Y50039D02*
X11238D01*
X11524Y49837D01*
Y50039D01*
D02*
G37*
G36*
X11286Y49599D02*
X11285D01*
X11284D01*
X11278Y49598D01*
X11270Y49598D01*
X11259Y49596D01*
X11248Y49591D01*
X11235Y49585D01*
X11223Y49577D01*
X11211Y49566D01*
X11210Y49564D01*
X11206Y49560D01*
X11202Y49552D01*
X11196Y49540D01*
X11191Y49526D01*
X11186Y49508D01*
X11182Y49487D01*
X11181Y49462D01*
Y49260D01*
X11393D01*
Y49451D01*
X11392Y49462D01*
X11391Y49475D01*
X11390Y49489D01*
X11389Y49504D01*
X11386Y49519D01*
X11382Y49532D01*
X11381Y49534D01*
X11379Y49537D01*
X11376Y49543D01*
X11373Y49550D01*
X11367Y49559D01*
X11361Y49567D01*
X11352Y49575D01*
X11343Y49582D01*
X11342Y49583D01*
X11339Y49585D01*
X11333Y49587D01*
X11326Y49591D01*
X11317Y49594D01*
X11308Y49597D01*
X11297Y49598D01*
X11286Y49599D01*
D02*
G37*
G36*
X21362Y13613D02*
X21161D01*
Y13327D01*
X21362Y13613D01*
D02*
G37*
G36*
X36512Y15105D02*
X36310D01*
Y14893D01*
X36501D01*
X36512Y14894D01*
X36525Y14895D01*
X36539Y14896D01*
X36554Y14898D01*
X36569Y14900D01*
X36582Y14904D01*
X36584Y14905D01*
X36587Y14907D01*
X36593Y14910D01*
X36600Y14913D01*
X36609Y14919D01*
X36617Y14925D01*
X36625Y14934D01*
X36632Y14943D01*
X36633Y14944D01*
X36635Y14948D01*
X36637Y14953D01*
X36641Y14960D01*
X36644Y14969D01*
X36647Y14978D01*
X36648Y14989D01*
X36649Y15000D01*
Y15001D01*
Y15002D01*
X36648Y15008D01*
X36648Y15016D01*
X36646Y15027D01*
X36641Y15038D01*
X36635Y15051D01*
X36627Y15063D01*
X36616Y15075D01*
X36614Y15076D01*
X36610Y15080D01*
X36602Y15084D01*
X36590Y15090D01*
X36576Y15095D01*
X36558Y15100D01*
X36537Y15104D01*
X36512Y15105D01*
D02*
G37*
G36*
X37047Y15114D02*
X37040D01*
X37031Y15112D01*
X37020Y15110D01*
X37008Y15107D01*
X36995Y15102D01*
X36983Y15095D01*
X36971Y15084D01*
X36970Y15083D01*
X36966Y15080D01*
X36962Y15073D01*
X36957Y15065D01*
X36952Y15055D01*
X36947Y15043D01*
X36943Y15030D01*
X36942Y15015D01*
Y15014D01*
Y15013D01*
X36943Y15008D01*
X36944Y14999D01*
X36946Y14989D01*
X36950Y14977D01*
X36954Y14965D01*
X36962Y14952D01*
X36971Y14941D01*
X36972Y14940D01*
X36977Y14936D01*
X36983Y14932D01*
X36991Y14927D01*
X37003Y14922D01*
X37015Y14917D01*
X37030Y14913D01*
X37047Y14912D01*
X37049D01*
X37054Y14913D01*
X37063Y14914D01*
X37074Y14916D01*
X37086Y14920D01*
X37098Y14924D01*
X37111Y14932D01*
X37122Y14941D01*
X37123Y14942D01*
X37126Y14947D01*
X37131Y14952D01*
X37137Y14960D01*
X37142Y14971D01*
X37147Y14983D01*
X37150Y14997D01*
X37151Y15011D01*
Y15012D01*
Y15013D01*
Y15019D01*
X37150Y15027D01*
X37148Y15037D01*
X37144Y15048D01*
X37138Y15060D01*
X37131Y15072D01*
X37121Y15084D01*
X37120Y15085D01*
X37115Y15089D01*
X37109Y15094D01*
X37101Y15099D01*
X37089Y15105D01*
X37077Y15109D01*
X37063Y15113D01*
X37047Y15114D01*
D02*
G37*
G36*
X37044Y14849D02*
X37039D01*
X37035Y14848D01*
X37025Y14847D01*
X37012Y14844D01*
X36997Y14839D01*
X36982Y14833D01*
X36966Y14824D01*
X36953Y14812D01*
X36951Y14810D01*
X36947Y14805D01*
X36942Y14797D01*
X36935Y14787D01*
X36928Y14773D01*
X36922Y14757D01*
X36918Y14739D01*
X36917Y14720D01*
Y14718D01*
Y14715D01*
X36917Y14708D01*
X36918Y14700D01*
X36920Y14690D01*
X36923Y14678D01*
X36927Y14667D01*
X36931Y14655D01*
X36932Y14654D01*
X36934Y14650D01*
X36938Y14644D01*
X36943Y14638D01*
X36950Y14629D01*
X36958Y14621D01*
X36967Y14614D01*
X36979Y14606D01*
X36980Y14605D01*
X36984Y14604D01*
X36991Y14601D01*
X36999Y14598D01*
X37009Y14595D01*
X37021Y14592D01*
X37034Y14591D01*
X37047Y14590D01*
X37052D01*
X37056Y14591D01*
X37067Y14592D01*
X37080Y14594D01*
X37095Y14599D01*
X37111Y14604D01*
X37126Y14614D01*
X37140Y14626D01*
X37142Y14628D01*
X37146Y14632D01*
X37152Y14641D01*
X37159Y14651D01*
X37165Y14664D01*
X37172Y14679D01*
X37175Y14698D01*
X37177Y14717D01*
Y14718D01*
Y14720D01*
Y14723D01*
X37176Y14727D01*
X37175Y14737D01*
X37173Y14751D01*
X37168Y14764D01*
X37162Y14780D01*
X37152Y14796D01*
X37139Y14811D01*
X37138Y14813D01*
X37133Y14816D01*
X37125Y14823D01*
X37113Y14830D01*
X37100Y14837D01*
X37083Y14843D01*
X37064Y14847D01*
X37044Y14849D01*
D02*
G37*
G36*
X40140Y14082D02*
X39949D01*
X39938Y14081D01*
X39925Y14080D01*
X39911Y14079D01*
X39896Y14077D01*
X39881Y14075D01*
X39868Y14071D01*
X39866Y14070D01*
X39863Y14068D01*
X39857Y14065D01*
X39850Y14062D01*
X39841Y14056D01*
X39833Y14050D01*
X39825Y14041D01*
X39818Y14032D01*
X39817Y14031D01*
X39815Y14027D01*
X39813Y14022D01*
X39809Y14015D01*
X39806Y14006D01*
X39803Y13997D01*
X39802Y13986D01*
X39801Y13975D01*
Y13974D01*
Y13973D01*
X39802Y13967D01*
X39802Y13959D01*
X39804Y13948D01*
X39809Y13937D01*
X39814Y13924D01*
X39823Y13912D01*
X39834Y13900D01*
X39836Y13899D01*
X39840Y13895D01*
X39848Y13891D01*
X39860Y13885D01*
X39874Y13880D01*
X39892Y13875D01*
X39913Y13871D01*
X39938Y13870D01*
X40140D01*
Y14082D01*
D02*
G37*
G36*
X27556Y55484D02*
X27408D01*
Y54996D01*
X27560D01*
X27566Y54997D01*
X27580Y54998D01*
X27596Y54999D01*
X27612Y55000D01*
X27629Y55003D01*
X27643Y55007D01*
X27645Y55008D01*
X27649Y55009D01*
X27656Y55012D01*
X27664Y55015D01*
X27673Y55021D01*
X27683Y55026D01*
X27692Y55033D01*
X27701Y55040D01*
X27702Y55042D01*
X27706Y55046D01*
X27711Y55052D01*
X27718Y55061D01*
X27725Y55073D01*
X27733Y55087D01*
X27741Y55103D01*
X27747Y55121D01*
Y55122D01*
X27748Y55123D01*
X27749Y55126D01*
X27750Y55130D01*
X27751Y55134D01*
X27753Y55141D01*
X27755Y55147D01*
X27757Y55155D01*
X27759Y55173D01*
X27762Y55195D01*
X27764Y55219D01*
X27765Y55245D01*
Y55245D01*
Y55249D01*
Y55254D01*
X27764Y55261D01*
Y55269D01*
X27763Y55279D01*
X27762Y55290D01*
X27761Y55301D01*
X27757Y55326D01*
X27751Y55352D01*
X27743Y55376D01*
X27737Y55388D01*
X27732Y55398D01*
Y55399D01*
X27730Y55401D01*
X27728Y55404D01*
X27726Y55407D01*
X27719Y55416D01*
X27709Y55428D01*
X27697Y55440D01*
X27684Y55452D01*
X27668Y55462D01*
X27651Y55470D01*
X27649Y55471D01*
X27645Y55472D01*
X27636Y55475D01*
X27624Y55478D01*
X27610Y55479D01*
X27591Y55482D01*
X27580Y55483D01*
X27568D01*
X27556Y55484D01*
D02*
G37*
G36*
X39564Y17902D02*
X39563D01*
X39562D01*
X39556D01*
X39548Y17900D01*
X39538Y17899D01*
X39527Y17895D01*
X39515Y17889D01*
X39503Y17882D01*
X39491Y17872D01*
X39490Y17871D01*
X39486Y17866D01*
X39481Y17860D01*
X39476Y17851D01*
X39470Y17840D01*
X39466Y17828D01*
X39462Y17814D01*
X39461Y17798D01*
Y17790D01*
X39463Y17782D01*
X39465Y17771D01*
X39468Y17759D01*
X39473Y17746D01*
X39480Y17734D01*
X39491Y17722D01*
X39492Y17721D01*
X39495Y17717D01*
X39502Y17713D01*
X39510Y17708D01*
X39520Y17703D01*
X39532Y17698D01*
X39545Y17694D01*
X39560Y17693D01*
X39561D01*
X39562D01*
X39567Y17694D01*
X39576Y17695D01*
X39586Y17697D01*
X39598Y17701D01*
X39610Y17705D01*
X39623Y17713D01*
X39634Y17722D01*
X39635Y17723D01*
X39639Y17728D01*
X39643Y17734D01*
X39648Y17742D01*
X39653Y17753D01*
X39658Y17766D01*
X39662Y17781D01*
X39663Y17798D01*
Y17800D01*
X39662Y17805D01*
X39661Y17814D01*
X39659Y17825D01*
X39655Y17837D01*
X39651Y17849D01*
X39643Y17862D01*
X39634Y17873D01*
X39633Y17874D01*
X39628Y17877D01*
X39623Y17882D01*
X39615Y17887D01*
X39604Y17893D01*
X39592Y17898D01*
X39578Y17901D01*
X39564Y17902D01*
D02*
G37*
G36*
X39858Y17928D02*
X39857D01*
X39855D01*
X39852D01*
X39848Y17927D01*
X39838Y17926D01*
X39824Y17924D01*
X39811Y17919D01*
X39795Y17912D01*
X39779Y17903D01*
X39764Y17890D01*
X39762Y17888D01*
X39759Y17884D01*
X39752Y17875D01*
X39745Y17864D01*
X39738Y17851D01*
X39732Y17834D01*
X39728Y17815D01*
X39726Y17795D01*
Y17789D01*
X39727Y17786D01*
X39728Y17776D01*
X39731Y17763D01*
X39736Y17748D01*
X39742Y17733D01*
X39751Y17717D01*
X39763Y17704D01*
X39765Y17702D01*
X39770Y17698D01*
X39778Y17692D01*
X39788Y17686D01*
X39802Y17679D01*
X39818Y17673D01*
X39836Y17669D01*
X39855Y17667D01*
X39857D01*
X39860D01*
X39867Y17668D01*
X39875Y17669D01*
X39885Y17671D01*
X39897Y17674D01*
X39908Y17678D01*
X39920Y17682D01*
X39921Y17683D01*
X39925Y17685D01*
X39931Y17689D01*
X39937Y17694D01*
X39946Y17701D01*
X39954Y17709D01*
X39961Y17718D01*
X39969Y17729D01*
X39970Y17731D01*
X39971Y17735D01*
X39974Y17741D01*
X39977Y17750D01*
X39980Y17760D01*
X39983Y17772D01*
X39984Y17785D01*
X39985Y17798D01*
Y17803D01*
X39984Y17807D01*
X39983Y17818D01*
X39981Y17831D01*
X39976Y17846D01*
X39971Y17862D01*
X39961Y17876D01*
X39949Y17891D01*
X39947Y17893D01*
X39943Y17897D01*
X39934Y17903D01*
X39924Y17910D01*
X39911Y17916D01*
X39896Y17923D01*
X39877Y17926D01*
X39858Y17928D01*
D02*
G37*
%LPD*%
D11*
X3675Y14125D02*
X9625D01*
X3675Y6525D02*
Y14125D01*
Y6525D02*
X9625D01*
Y14125D01*
X3500Y15450D02*
X9450D01*
Y43050D01*
X3500D02*
X9450D01*
X3500Y15450D02*
Y43050D01*
X7975Y57196D02*
X9575D01*
Y59854D01*
X7975D02*
X9575D01*
X7975Y57196D02*
Y59854D01*
X10837Y52687D02*
X11587D01*
X10837Y51287D02*
Y52687D01*
Y51287D02*
X11587D01*
Y52687D01*
X13350Y51275D02*
X14100D01*
Y52675D01*
X13350D02*
X14100D01*
X13350Y51275D02*
Y52675D01*
X21000Y40029D02*
X22600D01*
X21000Y37371D02*
Y40029D01*
Y37371D02*
X22600D01*
Y40029D01*
X42100Y55750D02*
X48050D01*
X42100Y48150D02*
Y55750D01*
Y48150D02*
X48050D01*
Y55750D01*
X42125Y45675D02*
X48075D01*
X42125Y38075D02*
Y45675D01*
Y38075D02*
X48075D01*
Y45675D01*
X42325Y36725D02*
X48275D01*
X42325Y14125D02*
Y36725D01*
Y14125D02*
X48275D01*
Y36725D01*
X21975Y4925D02*
Y10875D01*
Y4925D02*
X29575D01*
Y10875D01*
X21975D02*
X29575D01*
X15000Y13446D02*
X16600D01*
Y16104D01*
X15000D02*
X16600D01*
X15000Y13446D02*
Y16104D01*
X11469Y60556D02*
X13481D01*
X11469Y56744D02*
Y60556D01*
Y56744D02*
X13481D01*
Y60556D01*
X10950Y47846D02*
X12550D01*
Y50504D01*
X10950D02*
X12550D01*
X10950Y47846D02*
Y50504D01*
X23956Y12844D02*
Y14856D01*
X20144D02*
X23956D01*
X20144Y12844D02*
Y14856D01*
Y12844D02*
X23956D01*
X26125Y12950D02*
X26875D01*
Y14350D01*
X26125D02*
X26875D01*
X26125Y12950D02*
Y14350D01*
X32475Y4775D02*
Y10725D01*
Y4775D02*
X40075D01*
Y10725D01*
X32475D02*
X40075D01*
X34896Y13725D02*
Y15325D01*
Y13725D02*
X37554D01*
Y15325D01*
X34896D02*
X37554D01*
X41554Y13650D02*
Y15250D01*
X38896D02*
X41554D01*
X38896Y13650D02*
Y15250D01*
Y13650D02*
X41554D01*
X23597Y20328D02*
X30302D01*
Y28122D01*
X23597D02*
X30302D01*
X23597Y20328D02*
Y28122D01*
X32025Y18025D02*
X35225D01*
Y22225D01*
X32025D02*
X35225D01*
X32025Y18025D02*
Y22225D01*
X16975Y41795D02*
Y68045D01*
Y41795D02*
X36175D01*
Y68045D01*
X16975D02*
X36175D01*
X39675Y16250D02*
X40425D01*
Y17650D01*
X39675D02*
X40425D01*
X39675Y16250D02*
Y17650D01*
X11525Y4675D02*
Y10625D01*
Y4675D02*
X19125D01*
Y10625D01*
X11525D02*
X19125D01*
M02*
