G04*
G04 #@! TF.GenerationSoftware,Altium Limited,Altium Designer,24.2.2 (26)*
G04*
G04 Layer_Physical_Order=1*
G04 Layer_Color=255*
%FSLAX43Y43*%
%MOMM*%
G71*
G04*
G04 #@! TF.SameCoordinates,78AD72C9-59E1-4A50-B3D3-B96FA2B5B495*
G04*
G04*
G04 #@! TF.FilePolarity,Positive*
G04*
G01*
G75*
%ADD12C,0.500*%
%ADD13C,0.254*%
%ADD15R,1.307X0.906*%
%ADD16R,0.500X0.400*%
%ADD17R,1.200X1.200*%
%ADD18R,1.600X1.500*%
%ADD19R,1.012X1.208*%
%ADD20R,1.500X1.550*%
%ADD21R,1.208X1.012*%
%ADD22R,1.100X1.300*%
%ADD23R,0.906X1.307*%
%ADD24R,1.250X1.500*%
G04:AMPARAMS|DCode=25|XSize=1.004mm|YSize=3.182mm|CornerRadius=0.437mm|HoleSize=0mm|Usage=FLASHONLY|Rotation=90.000|XOffset=0mm|YOffset=0mm|HoleType=Round|Shape=RoundedRectangle|*
%AMROUNDEDRECTD25*
21,1,1.004,2.308,0,0,90.0*
21,1,0.131,3.182,0,0,90.0*
1,1,0.874,1.154,0.065*
1,1,0.874,1.154,-0.065*
1,1,0.874,-1.154,-0.065*
1,1,0.874,-1.154,0.065*
%
%ADD25ROUNDEDRECTD25*%
G04:AMPARAMS|DCode=26|XSize=1.004mm|YSize=0.872mm|CornerRadius=0.436mm|HoleSize=0mm|Usage=FLASHONLY|Rotation=90.000|XOffset=0mm|YOffset=0mm|HoleType=Round|Shape=RoundedRectangle|*
%AMROUNDEDRECTD26*
21,1,1.004,0.000,0,0,90.0*
21,1,0.132,0.872,0,0,90.0*
1,1,0.872,0.000,0.066*
1,1,0.872,0.000,-0.066*
1,1,0.872,0.000,-0.066*
1,1,0.872,0.000,0.066*
%
%ADD26ROUNDEDRECTD26*%
%ADD27R,0.872X1.004*%
%ADD28R,2.800X1.400*%
%ADD29R,1.330X1.330*%
%ADD30R,0.900X2.000*%
%ADD31R,2.000X0.900*%
%ADD37C,1.550*%
%ADD38R,1.550X1.550*%
%ADD39C,1.400*%
%ADD40R,1.400X1.400*%
%ADD43R,1.550X1.550*%
%ADD48C,0.300*%
%ADD49R,1.500X1.500*%
%ADD50C,1.500*%
%ADD51R,0.985X0.985*%
%ADD52C,0.985*%
%ADD53C,3.500*%
%ADD54C,1.270*%
G36*
X33500Y25000D02*
X27514D01*
Y26758D01*
X28104D01*
X28285Y26782D01*
X28453Y26851D01*
X28597Y26962D01*
X28708Y27106D01*
X28777Y27274D01*
X28793Y27393D01*
X26950D01*
X25107D01*
X25123Y27274D01*
X25192Y27106D01*
X25303Y26962D01*
X25447Y26851D01*
X25615Y26782D01*
X25796Y26758D01*
X26486D01*
Y25000D01*
X21000D01*
Y31750D01*
X33500D01*
Y25000D01*
D02*
G37*
%LPC*%
G36*
X28104Y28282D02*
X27077D01*
Y27647D01*
X28793D01*
X28777Y27766D01*
X28708Y27934D01*
X28597Y28078D01*
X28453Y28189D01*
X28285Y28258D01*
X28104Y28282D01*
D02*
G37*
G36*
X26823D02*
X25796D01*
X25615Y28258D01*
X25447Y28189D01*
X25303Y28078D01*
X25192Y27934D01*
X25123Y27766D01*
X25107Y27647D01*
X26823D01*
Y28282D01*
D02*
G37*
%LPD*%
D12*
X17059Y16846D02*
X17213Y17000D01*
X15354Y16846D02*
X17059D01*
X14250Y17950D02*
X15354Y16846D01*
X26500Y14493D02*
Y16000D01*
X13798Y12150D02*
X15698Y14049D01*
X29866Y21700D02*
X32850D01*
X28851Y21936D02*
X29629D01*
X29866Y21700D01*
X28614D02*
X28851Y21936D01*
X27000Y21700D02*
Y21961D01*
X32850Y21700D02*
X33000Y21550D01*
X27000Y21700D02*
X28614D01*
X27000Y20955D02*
Y21700D01*
X6100Y37850D02*
X6850D01*
X7000Y38000D01*
X4747Y36497D02*
X6100Y37850D01*
X45115Y8585D02*
Y9835D01*
Y8585D02*
X45250Y8450D01*
X23000Y10025D02*
Y13500D01*
X11000Y14750D02*
X14225Y17975D01*
X26500Y14093D02*
Y14493D01*
X31550Y15750D02*
Y20857D01*
X31843Y21150D01*
X32550D01*
X33000Y21600D01*
X17696Y19946D02*
X20139Y22389D01*
X25566D01*
X13946Y19946D02*
X17696D01*
X25566Y22389D02*
X27000Y20955D01*
X17700Y17950D02*
X20250Y20500D01*
X20913Y20955D02*
X24710D01*
X20250Y20500D02*
X20458D01*
X16250Y17950D02*
X17700D01*
X20458Y20500D02*
X20913Y20955D01*
X22457Y17000D02*
X22750Y16707D01*
X17213Y17000D02*
X22457D01*
X22750Y14000D02*
Y16707D01*
X11500Y17500D02*
X13946Y19946D01*
X14502Y57698D02*
X16119Y59315D01*
X12750Y57698D02*
X14502D01*
X16119Y59315D02*
X18165D01*
X33500Y16325D02*
X34500D01*
X33500D02*
Y19075D01*
X35399Y14604D02*
X35474D01*
X35271Y14476D02*
X35399Y14604D01*
X35474D02*
Y15604D01*
X34500Y16250D02*
X34647Y16103D01*
X34975D02*
X35474Y15604D01*
X34647Y16103D02*
X34975D01*
X35970Y13042D02*
X37957D01*
X38250Y13335D01*
Y15500D01*
X35677Y13335D02*
Y13997D01*
Y13335D02*
X35970Y13042D01*
X38250Y15500D02*
X39300Y16550D01*
X40000D01*
X35474Y14200D02*
Y14273D01*
Y14200D02*
X35677Y13997D01*
X32826Y14476D02*
X35271D01*
X27000Y21961D02*
Y27545D01*
X37500Y8250D02*
X39474Y10224D01*
Y14200D01*
X32000Y13650D02*
X32826Y14476D01*
X4500Y58250D02*
X5500Y59250D01*
X8500D01*
X10750Y54211D02*
X10773Y54188D01*
Y52826D02*
Y54188D01*
Y52826D02*
X11212Y52387D01*
X29290Y18790D02*
Y20955D01*
X26500Y16000D02*
X29290Y18790D01*
X16956Y60269D02*
X17122D01*
X14669Y59302D02*
X15617Y60250D01*
X16937D01*
X16956Y60269D01*
X17965Y60385D02*
X18165Y60585D01*
X17238Y60385D02*
X17965D01*
X17122Y60269D02*
X17238Y60385D01*
X34965D02*
X35165Y60585D01*
X27500Y51250D02*
Y53085D01*
X23830Y51250D02*
Y53085D01*
X25665Y51250D02*
X27500D01*
X23830D02*
X25665D01*
X23830Y54920D02*
Y56670D01*
X27500Y54920D02*
X28670D01*
X23830Y53085D02*
Y54920D01*
X27500Y53085D02*
Y54920D01*
X25665D02*
X27500D01*
X25665Y53085D02*
Y54920D01*
X28670D02*
X30500Y56750D01*
Y58000D01*
X18365Y60385D02*
X20115D01*
X30500Y58000D02*
X32885Y60385D01*
X20115D02*
X23830Y56670D01*
X32885Y60385D02*
X34965D01*
X18165Y60585D02*
X18365Y60385D01*
X11494Y57856D02*
X12592D01*
X10100Y59250D02*
X11494Y57856D01*
X8500Y59250D02*
X10100D01*
X12592Y57856D02*
X12750Y57698D01*
Y59302D02*
X14669D01*
X31600Y13250D02*
Y13350D01*
X31900Y13650D02*
X32000D01*
X31600Y13350D02*
X31900Y13650D01*
X13750Y12102D02*
X13798Y12150D01*
X13750Y8615D02*
X13894Y8471D01*
X14228D01*
X13750Y8615D02*
Y12102D01*
X5500Y14750D02*
X11000D01*
X33550Y19075D02*
X34000Y18625D01*
X33500Y19075D02*
X33550D01*
X22750Y14000D02*
X23000Y13750D01*
Y10025D02*
X24250Y8775D01*
X4747Y15503D02*
Y36497D01*
Y15503D02*
X5500Y14750D01*
X8712Y53737D02*
X8712Y53737D01*
X43000Y11950D02*
X45115Y9835D01*
X43000Y5450D02*
Y11950D01*
D13*
X39975Y17350D02*
X40731D01*
X36000Y23000D02*
X39975Y19025D01*
Y17350D02*
Y19025D01*
X40250Y29250D02*
X44750D01*
X39750Y29750D02*
X40250Y29250D01*
X47500Y5450D02*
Y11950D01*
X46877Y12573D02*
X47500Y11950D01*
X41026Y14200D02*
Y17055D01*
Y13999D02*
Y14200D01*
X37088Y53912D02*
X39750Y51250D01*
Y29750D02*
Y51250D01*
X38250Y27750D02*
X41800Y24200D01*
X35414Y45096D02*
X36397D01*
X36546Y44948D01*
X37562Y26438D02*
Y47188D01*
Y26438D02*
X41835Y22165D01*
X35165Y44075D02*
X35677D01*
X39000Y29000D02*
X41300Y26700D01*
X36647Y48103D02*
X37562Y47188D01*
X37054Y25196D02*
X43050Y19200D01*
X37054Y25196D02*
Y45696D01*
X36546Y23954D02*
Y44948D01*
X36575Y50425D02*
X38250Y48750D01*
X35677Y44075D02*
X36000Y43752D01*
X36546Y23954D02*
X43800Y16700D01*
X36000Y23000D02*
Y43752D01*
X36458Y46292D02*
X37054Y45696D01*
X35165Y45345D02*
X35414Y45096D01*
X38250Y27750D02*
Y48750D01*
X39000Y29000D02*
Y49250D01*
X36555Y51695D02*
X39000Y49250D01*
X46200Y13500D02*
X46877Y12823D01*
X41526Y13500D02*
X46200D01*
X41026Y13999D02*
X41526Y13500D01*
X40877Y17204D02*
X40877D01*
X40731Y17350D02*
X40877Y17204D01*
X40877D02*
X41026Y17055D01*
X43800Y16700D02*
X44750D01*
X40980Y56500D02*
X41980Y57500D01*
X35440Y56500D02*
X40980D01*
X35165Y56775D02*
X35440Y56500D01*
X35488Y53912D02*
X37088D01*
X35165Y54235D02*
X35488Y53912D01*
X35165Y47885D02*
X35383Y48103D01*
X35165Y51695D02*
X36555D01*
X35165Y50425D02*
X36575D01*
X35383Y48103D02*
X36647D01*
X35165Y46615D02*
X35488Y46292D01*
X36458D01*
X44396Y57376D02*
X44520Y57500D01*
X35165Y55505D02*
X43005D01*
X44396Y56896D01*
Y57376D01*
X43050Y19200D02*
X44750D01*
X42300Y21700D02*
X44750D01*
X41835Y22165D02*
X42300Y21700D01*
X41835Y22165D02*
X41835D01*
X41800Y24200D02*
X44750D01*
X41300Y26700D02*
X44750D01*
X46877Y12573D02*
Y12823D01*
D15*
X8775Y59301D02*
D03*
Y57749D02*
D03*
X21800Y37924D02*
D03*
Y39476D02*
D03*
X15800Y15551D02*
D03*
Y13999D02*
D03*
X11750Y49951D02*
D03*
Y48399D02*
D03*
D16*
X11212Y51587D02*
D03*
Y52387D02*
D03*
X13725Y52375D02*
D03*
Y51575D02*
D03*
X26500Y14050D02*
D03*
Y13250D02*
D03*
X40050Y17350D02*
D03*
Y16550D02*
D03*
D17*
X14250Y17950D02*
D03*
X16250D02*
D03*
D18*
X15250Y21200D02*
D03*
D19*
X12475Y57848D02*
D03*
Y59452D02*
D03*
D20*
X13138Y54712D02*
D03*
X14938D02*
D03*
D21*
X21248Y13850D02*
D03*
X22852D02*
D03*
D22*
X31550Y13175D02*
D03*
X29450D02*
D03*
D23*
X37001Y14525D02*
D03*
X35449D02*
D03*
X39449Y14450D02*
D03*
X41001D02*
D03*
D24*
X31550Y15800D02*
D03*
X29450D02*
D03*
D25*
X26950Y27520D02*
D03*
D26*
X29240Y20930D02*
D03*
X26950D02*
D03*
D27*
X24660D02*
D03*
D28*
X33625Y21425D02*
D03*
Y18825D02*
D03*
D29*
X27410Y51070D02*
D03*
X25575D02*
D03*
X23740D02*
D03*
X27410Y52905D02*
D03*
X25575D02*
D03*
X23740D02*
D03*
X27410Y54740D02*
D03*
X25575D02*
D03*
X23740D02*
D03*
D30*
X32290Y42895D02*
D03*
X31020D02*
D03*
X29750D02*
D03*
X28480D02*
D03*
X27210D02*
D03*
X25940D02*
D03*
X24670D02*
D03*
X23400D02*
D03*
X22130D02*
D03*
X20860D02*
D03*
D31*
X35075Y60405D02*
D03*
Y59135D02*
D03*
Y57865D02*
D03*
Y56595D02*
D03*
Y55325D02*
D03*
Y54055D02*
D03*
Y52785D02*
D03*
Y51515D02*
D03*
Y50245D02*
D03*
Y48975D02*
D03*
Y47705D02*
D03*
Y46435D02*
D03*
Y45165D02*
D03*
Y43895D02*
D03*
X18075D02*
D03*
Y45165D02*
D03*
Y46435D02*
D03*
Y47705D02*
D03*
Y48975D02*
D03*
Y50245D02*
D03*
Y51515D02*
D03*
Y52785D02*
D03*
Y54055D02*
D03*
Y55325D02*
D03*
Y56595D02*
D03*
Y57865D02*
D03*
Y59135D02*
D03*
Y60405D02*
D03*
D37*
X7175Y9075D02*
D03*
X45600Y50700D02*
D03*
X45625Y40625D02*
D03*
X27025Y8425D02*
D03*
X37525Y8275D02*
D03*
X16575Y8175D02*
D03*
D38*
X7175Y11575D02*
D03*
X45600Y53200D02*
D03*
X45625Y43125D02*
D03*
D39*
X7000Y18000D02*
D03*
Y20500D02*
D03*
Y23000D02*
D03*
Y25500D02*
D03*
Y28000D02*
D03*
Y30500D02*
D03*
Y33000D02*
D03*
Y35500D02*
D03*
Y38000D02*
D03*
X44775Y34175D02*
D03*
Y31675D02*
D03*
Y29175D02*
D03*
Y26675D02*
D03*
Y24175D02*
D03*
Y21675D02*
D03*
Y19175D02*
D03*
D40*
X7000Y40500D02*
D03*
X44775Y16675D02*
D03*
D43*
X24525Y8425D02*
D03*
X35025Y8275D02*
D03*
X14075Y8175D02*
D03*
D48*
X8775Y57698D02*
X9552D01*
X7523D02*
X8724D01*
X8775Y57749D01*
X4486Y54661D02*
X7523Y57698D01*
X4486Y53736D02*
Y54661D01*
X4400Y53650D02*
X4486Y53736D01*
X4653Y47500D02*
X7343D01*
X13750Y50026D02*
Y51600D01*
X21800Y38000D02*
X30250D01*
X19850Y39173D02*
X21023Y38000D01*
X19850Y43996D02*
X22250Y46396D01*
X19850Y39173D02*
Y43996D01*
X21023Y38000D02*
X21800D01*
X43986Y39186D02*
X45750Y40950D01*
X21224Y39552D02*
X21276Y39500D01*
X32380Y43075D02*
X32500Y42955D01*
Y40039D02*
Y42955D01*
X18715Y54235D02*
X22074D01*
X22250Y46396D02*
Y54059D01*
X22074Y54235D02*
X22250Y54059D01*
X24064Y40000D02*
X24250D01*
X22199Y40651D02*
Y43054D01*
Y40651D02*
X22375Y40475D01*
X23589D02*
X24064Y40000D01*
X22375Y40475D02*
X23589D01*
X21235Y44160D02*
X21554Y44479D01*
X22979D01*
X21235Y43360D02*
Y44160D01*
X20950Y43075D02*
X21235Y43360D01*
X22979Y44479D02*
X27500Y49000D01*
X20935Y39841D02*
Y43050D01*
Y39841D02*
X21224Y39552D01*
X14000Y27500D02*
Y42250D01*
X7000Y20500D02*
X14000Y27500D01*
Y42250D02*
X16795Y45045D01*
X12500Y41717D02*
X17098Y46315D01*
X12500Y28250D02*
Y41717D01*
X6987Y22737D02*
X12500Y28250D01*
X8882Y41599D02*
X14304Y47021D01*
X9436Y41369D02*
X14858Y46791D01*
X9990Y30990D02*
Y41140D01*
X11696Y42062D02*
X15966Y46332D01*
X9436Y32936D02*
Y41369D01*
X8882Y34882D02*
Y41599D01*
X9990Y41140D02*
X15412Y46562D01*
X7000Y33000D02*
X8882Y34882D01*
X6987Y25237D02*
Y25487D01*
X11696Y30196D02*
Y42062D01*
X15966Y46332D02*
Y46437D01*
X6987Y25487D02*
X11696Y30196D01*
X6987Y27987D02*
X9990Y30990D01*
X7000Y32750D02*
Y33000D01*
X6987Y27737D02*
Y27987D01*
Y30487D02*
X9436Y32936D01*
X6987Y30237D02*
Y30487D01*
X12326Y54924D02*
X12926D01*
X9552Y57698D02*
X12326Y54924D01*
X12926D02*
X13350Y54500D01*
X23300Y14050D02*
X26500D01*
X23000Y13750D02*
X23300Y14050D01*
X27207Y13250D02*
X27500Y12957D01*
X26500Y13250D02*
X27207D01*
X27500Y9593D02*
Y12957D01*
X29426Y15638D02*
X29535Y15747D01*
X29450D02*
X29535D01*
X29250Y15462D02*
X29426Y15638D01*
X18165Y52965D02*
X20750D01*
X19500Y14250D02*
Y15500D01*
X17250Y14250D02*
X19500D01*
X12950Y21200D02*
X15461D01*
X6543Y16646D02*
X8396D01*
X12950Y21200D01*
X13846Y15596D02*
X16904D01*
X17146Y15354D01*
X10500Y12250D02*
X13846Y15596D01*
X17146Y14354D02*
X17250Y14250D01*
X17146Y14354D02*
Y15354D01*
X20750Y52750D02*
Y52965D01*
X27500Y49000D02*
Y51250D01*
X15829Y58045D02*
X18165D01*
X13350Y55566D02*
X15829Y58045D01*
X13350Y54500D02*
Y55566D01*
X11200Y51450D02*
X11250Y51500D01*
X10950Y51450D02*
X11200D01*
X10692Y51192D02*
X10950Y51450D01*
X10692Y48474D02*
Y51192D01*
X4475Y47500D02*
X4653D01*
X4212Y47237D02*
X4475Y47500D01*
X7343D02*
X8317Y48474D01*
X4653Y47237D02*
Y47625D01*
X8317Y48474D02*
X10692D01*
X11750D01*
X11750Y48474D01*
X17098Y46315D02*
X17865D01*
X16795Y45045D02*
X17865D01*
Y46315D02*
X18165Y46615D01*
X14858Y47869D02*
X17114Y50125D01*
X15966Y46437D02*
X17114Y47585D01*
X17865D01*
X15412Y47153D02*
X17114Y48855D01*
Y50125D02*
X17865D01*
X15412Y46562D02*
Y47153D01*
X17114Y48855D02*
X17865D01*
X14304Y47021D02*
Y48585D01*
X2676Y45750D02*
X12250D01*
X13750Y47250D02*
Y50026D01*
X14304Y48585D02*
X17114Y51395D01*
X12250Y45750D02*
X13750Y47250D01*
X14858Y46791D02*
Y47869D01*
X11750Y50026D02*
X13700D01*
X17114Y51395D02*
X17865D01*
X2500Y45926D02*
X2676Y45750D01*
X2500Y45926D02*
Y55000D01*
X4500Y57000D01*
Y58250D01*
X4212Y47237D02*
Y53962D01*
Y47237D02*
X4653D01*
X41250Y39000D02*
X41436Y39186D01*
X43986D01*
X37026Y14200D02*
Y20745D01*
X31250Y39500D02*
Y42935D01*
X35000Y22771D02*
Y35750D01*
X31250Y39500D02*
X35000Y35750D01*
Y22771D02*
X37026Y20745D01*
X31110Y43075D02*
X31250Y42935D01*
X35370Y59520D02*
X47683D01*
X49000Y58204D01*
X35165Y59315D02*
X35370Y59520D01*
X36439Y57939D02*
X37250Y58750D01*
X47670D02*
X48289Y58131D01*
X37250Y58750D02*
X47670D01*
X35165Y58045D02*
X35271Y57939D01*
X36439D01*
X17865Y51395D02*
X18165Y51695D01*
X17865Y48855D02*
X18165Y49155D01*
X17865Y47585D02*
X18165Y47885D01*
X17865Y50125D02*
X18165Y50425D01*
X17865Y45045D02*
X18165Y45345D01*
X17865Y43775D02*
X18165Y44075D01*
X17025Y43775D02*
X17865D01*
X44950Y34000D02*
X47750D01*
X49000Y35250D02*
Y58204D01*
X47750Y34000D02*
X49000Y35250D01*
X44293Y35304D02*
X47804D01*
X48289Y35789D02*
Y58131D01*
X47804Y35304D02*
X48289Y35789D01*
X44750Y34200D02*
X44950Y34000D01*
X43250Y34261D02*
X44293Y35304D01*
X43250Y32500D02*
X43887Y31863D01*
X44587D01*
X44750Y31700D01*
X43250Y32500D02*
Y34261D01*
X13750Y52400D02*
X13800D01*
X14550Y53900D02*
X15150Y54500D01*
X14550Y53150D02*
Y53900D01*
X13800Y52400D02*
X14550Y53150D01*
X11300Y52300D02*
X11400Y52400D01*
X13750D01*
X11250Y52300D02*
X11300D01*
X29250Y13500D02*
Y15462D01*
Y13500D02*
X29500Y13250D01*
X17247Y12500D02*
X20146D01*
X15698Y14049D02*
X17247Y12500D01*
X20146D02*
X21396Y13750D01*
X15698Y14049D02*
Y14250D01*
X10500Y8750D02*
Y12250D01*
X8013Y8237D02*
X9987D01*
X10500Y8750D01*
X26750Y8775D02*
Y8843D01*
X27500Y9593D01*
X5896Y17293D02*
X6543Y16646D01*
X5896Y17293D02*
Y34146D01*
X7000Y35250D01*
X15462Y26212D02*
Y42212D01*
X7000Y17750D02*
X15462Y26212D01*
Y42212D02*
X17025Y43775D01*
X46075Y43550D02*
X46170Y43645D01*
X7513Y8737D02*
X8013Y8237D01*
X7212Y8737D02*
X7513D01*
D49*
X47500Y11950D02*
D03*
X4400Y47150D02*
D03*
D50*
X43000Y11950D02*
D03*
Y5450D02*
D03*
X47500D02*
D03*
X8900Y47150D02*
D03*
Y53650D02*
D03*
X4400D02*
D03*
D51*
X39410Y57575D02*
D03*
D52*
X41950D02*
D03*
X44490D02*
D03*
X47030D02*
D03*
D53*
X2750Y61250D02*
D03*
X49000Y61500D02*
D03*
X2250Y2250D02*
D03*
X49750D02*
D03*
D54*
X45250Y8450D02*
D03*
X20250Y20500D02*
D03*
X19500Y15500D02*
D03*
X11500Y17500D02*
D03*
X24250Y40000D02*
D03*
X20750Y52750D02*
D03*
X30250Y38000D02*
D03*
X34500Y16325D02*
D03*
X32500Y40039D02*
D03*
X41250Y39000D02*
D03*
X37000Y17250D02*
D03*
X30250Y56500D02*
D03*
X4500Y58250D02*
D03*
X10750Y54211D02*
D03*
M02*
