G04*
G04 #@! TF.GenerationSoftware,Altium Limited,Altium Designer,24.2.2 (26)*
G04*
G04 Layer_Color=2752767*
%FSLAX43Y43*%
%MOMM*%
G71*
G04*
G04 #@! TF.SameCoordinates,78AD72C9-59E1-4A50-B3D3-B96FA2B5B495*
G04*
G04*
G04 #@! TF.FilePolarity,Positive*
G04*
G01*
G75*
%ADD59C,0.127*%
%ADD60C,0.169*%
D59*
X6667Y8567D02*
Y9583D01*
X7683D01*
Y8567D01*
X6667D01*
Y11067D02*
Y12083D01*
X7683D01*
Y11067D01*
X6667D01*
X7000Y17492D02*
X6492Y18508D01*
X7508D01*
X7000Y17492D01*
Y19992D02*
X6492Y21008D01*
X7508D01*
X7000Y19992D01*
Y22492D02*
X6492Y23508D01*
X7508D01*
X7000Y22492D01*
Y24992D02*
X6492Y26008D01*
X7508D01*
X7000Y24992D01*
Y27492D02*
X6492Y28508D01*
X7508D01*
X7000Y27492D01*
Y29992D02*
X6492Y31008D01*
X7508D01*
X7000Y29992D01*
Y32492D02*
X6492Y33508D01*
X7508D01*
X7000Y32492D01*
Y34992D02*
X6492Y36008D01*
X7508D01*
X7000Y34992D01*
Y37492D02*
X6492Y38508D01*
X7508D01*
X7000Y37492D01*
Y39992D02*
X6492Y41008D01*
X7508D01*
X7000Y39992D01*
X45092Y50192D02*
Y51208D01*
X46108D01*
Y50192D01*
X45092D01*
Y52692D02*
Y53708D01*
X46108D01*
Y52692D01*
X45092D01*
X45117Y40117D02*
Y41133D01*
X46133D01*
Y40117D01*
X45117D01*
Y42617D02*
Y43633D01*
X46133D01*
Y42617D01*
X45117D01*
X44775Y33667D02*
X44267Y34683D01*
X45283D01*
X44775Y33667D01*
Y31167D02*
X44267Y32183D01*
X45283D01*
X44775Y31167D01*
Y28667D02*
X44267Y29683D01*
X45283D01*
X44775Y28667D01*
Y26167D02*
X44267Y27183D01*
X45283D01*
X44775Y26167D01*
Y23667D02*
X44267Y24683D01*
X45283D01*
X44775Y23667D01*
Y21167D02*
X44267Y22183D01*
X45283D01*
X44775Y21167D01*
Y18667D02*
X44267Y19683D01*
X45283D01*
X44775Y18667D01*
Y16167D02*
X44267Y17183D01*
X45283D01*
X44775Y16167D01*
X26517Y7917D02*
Y8933D01*
X27533D01*
Y7917D01*
X26517D01*
X24017D02*
Y8933D01*
X25033D01*
Y7917D01*
X24017D01*
X37017Y7767D02*
Y8783D01*
X38033D01*
Y7767D01*
X37017D01*
X34517D02*
Y8783D01*
X35533D01*
Y7767D01*
X34517D01*
X16067Y7667D02*
Y8683D01*
X17083D01*
Y7667D01*
X16067D01*
X13567D02*
Y8683D01*
X14583D01*
Y7667D01*
X13567D01*
X39410Y57067D02*
X39664Y57321D01*
X39918D01*
X39664Y57575D01*
X39918Y57829D01*
X39664D01*
X39410Y58083D01*
X39156Y57829D01*
X38902D01*
X39156Y57575D01*
X38902Y57321D01*
X39156D01*
X39410Y57067D01*
X41950D02*
X42204Y57321D01*
X42458D01*
X42204Y57575D01*
X42458Y57829D01*
X42204D01*
X41950Y58083D01*
X41696Y57829D01*
X41442D01*
X41696Y57575D01*
X41442Y57321D01*
X41696D01*
X41950Y57067D01*
X44490D02*
X44744Y57321D01*
X44998D01*
X44744Y57575D01*
X44998Y57829D01*
X44744D01*
X44490Y58083D01*
X44236Y57829D01*
X43982D01*
X44236Y57575D01*
X43982Y57321D01*
X44236D01*
X44490Y57067D01*
X47030D02*
X47284Y57321D01*
X47538D01*
X47284Y57575D01*
X47538Y57829D01*
X47284D01*
X47030Y58083D01*
X46776Y57829D01*
X46522D01*
X46776Y57575D01*
X46522Y57321D01*
X46776D01*
X47030Y57067D01*
X2242Y60742D02*
X2496Y61250D01*
X2242Y61758D01*
X2750Y61504D01*
X3258Y61758D01*
X3004Y61250D01*
X3258Y60742D01*
X2750Y60996D01*
X2242Y60742D01*
X48492Y60992D02*
X48746Y61500D01*
X48492Y62008D01*
X49000Y61754D01*
X49508Y62008D01*
X49254Y61500D01*
X49508Y60992D01*
X49000Y61246D01*
X48492Y60992D01*
X1742Y1742D02*
X1996Y2250D01*
X1742Y2758D01*
X2250Y2504D01*
X2758Y2758D01*
X2504Y2250D01*
X2758Y1742D01*
X2250Y1996D01*
X1742Y1742D01*
X49242D02*
X49496Y2250D01*
X49242Y2758D01*
X49750Y2504D01*
X50258Y2758D01*
X50004Y2250D01*
X50258Y1742D01*
X49750Y1996D01*
X49242Y1742D01*
X44996Y8196D02*
Y7942D01*
X45504D01*
Y8196D01*
X45758D01*
Y8704D01*
X45504D01*
Y8958D01*
X44996D01*
Y8704D01*
X44742D01*
Y8196D01*
X44996D01*
X19996Y20246D02*
Y19992D01*
X20504D01*
Y20246D01*
X20758D01*
Y20754D01*
X20504D01*
Y21008D01*
X19996D01*
Y20754D01*
X19742D01*
Y20246D01*
X19996D01*
X19246Y15246D02*
Y14992D01*
X19754D01*
Y15246D01*
X20008D01*
Y15754D01*
X19754D01*
Y16008D01*
X19246D01*
Y15754D01*
X18992D01*
Y15246D01*
X19246D01*
X11246Y17246D02*
Y16992D01*
X11754D01*
Y17246D01*
X12008D01*
Y17754D01*
X11754D01*
Y18008D01*
X11246D01*
Y17754D01*
X10992D01*
Y17246D01*
X11246D01*
X23996Y39746D02*
Y39492D01*
X24504D01*
Y39746D01*
X24758D01*
Y40254D01*
X24504D01*
Y40508D01*
X23996D01*
Y40254D01*
X23742D01*
Y39746D01*
X23996D01*
X20496Y52496D02*
Y52242D01*
X21004D01*
Y52496D01*
X21258D01*
Y53004D01*
X21004D01*
Y53258D01*
X20496D01*
Y53004D01*
X20242D01*
Y52496D01*
X20496D01*
X29996Y37746D02*
Y37492D01*
X30504D01*
Y37746D01*
X30758D01*
Y38254D01*
X30504D01*
Y38508D01*
X29996D01*
Y38254D01*
X29742D01*
Y37746D01*
X29996D01*
X34246Y16071D02*
Y15817D01*
X34754D01*
Y16071D01*
X35008D01*
Y16579D01*
X34754D01*
Y16833D01*
X34246D01*
Y16579D01*
X33992D01*
Y16071D01*
X34246D01*
X32246Y39785D02*
Y39531D01*
X32754D01*
Y39785D01*
X33008D01*
Y40293D01*
X32754D01*
Y40547D01*
X32246D01*
Y40293D01*
X31992D01*
Y39785D01*
X32246D01*
X40996Y38746D02*
Y38492D01*
X41504D01*
Y38746D01*
X41758D01*
Y39254D01*
X41504D01*
Y39508D01*
X40996D01*
Y39254D01*
X40742D01*
Y38746D01*
X40996D01*
X36746Y16996D02*
Y16742D01*
X37254D01*
Y16996D01*
X37508D01*
Y17504D01*
X37254D01*
Y17758D01*
X36746D01*
Y17504D01*
X36492D01*
Y16996D01*
X36746D01*
X29996Y56246D02*
Y55992D01*
X30504D01*
Y56246D01*
X30758D01*
Y56754D01*
X30504D01*
Y57008D01*
X29996D01*
Y56754D01*
X29742D01*
Y56246D01*
X29996D01*
X4246Y57996D02*
Y57742D01*
X4754D01*
Y57996D01*
X5008D01*
Y58504D01*
X4754D01*
Y58758D01*
X4246D01*
Y58504D01*
X3992D01*
Y57996D01*
X4246D01*
X10496Y53957D02*
Y53703D01*
X11004D01*
Y53957D01*
X11258D01*
Y54465D01*
X11004D01*
Y54719D01*
X10496D01*
Y54465D01*
X10242D01*
Y53957D01*
X10496D01*
D60*
X48008Y11950D02*
G03*
X48008Y11950I-508J0D01*
G01*
X43508D02*
G03*
X43508Y11950I-508J0D01*
G01*
Y5450D02*
G03*
X43508Y5450I-508J0D01*
G01*
X48008D02*
G03*
X48008Y5450I-508J0D01*
G01*
X4908Y47150D02*
G03*
X4908Y47150I-508J0D01*
G01*
X9408D02*
G03*
X9408Y47150I-508J0D01*
G01*
Y53650D02*
G03*
X9408Y53650I-508J0D01*
G01*
X4908D02*
G03*
X4908Y53650I-508J0D01*
G01*
M02*
